<?xml version="1.0" encoding="UTF-8"?><svg xmlns="http://www.w3.org/2000/svg" xmlns:xlink="http://www.w3.org/1999/xlink" width="338pt" height="250pt" viewBox="0 0 338 250"><g transform="translate(73.5996, 99.7002)" style="fill:#000; fill-rule:nonzero; stroke:none; stroke-width:2; stroke-linecap:butt; stroke-linejoin:miter; stroke-dasharray:none;"><path d="M2 48.6498C2 48.6498 1 49.2498 1 49.2498C1 49.2498 0 48.6498 0 48.6498C0 48.6498 0 0 0 0C0 0 2 1.1498 2 1.1498C2 1.1498 2 48.6498 2 48.6498Z"/></g><g transform="translate(82.3496, 105.35)" style="fill:#000; fill-rule:nonzero; stroke:none; stroke-width:2; stroke-linecap:butt; stroke-linejoin:miter; stroke-dasharray:none;"><path d="M2 38.5C2 38.5 0 38.5 0 38.5C0 38.5 0 0 0 0C0 0 2 0 2 0C2 0 2 38.5 2 38.5Z"/></g><g transform="translate(74.5996, 148.35)" style="fill:#000; fill-rule:nonzero; stroke:none; stroke-width:2; stroke-linecap:butt; stroke-linejoin:miter; stroke-dasharray:none;"><path d="M42.1504 23.75C42.1504 23.75 42.1504 24.9 42.1504 24.9C42.1504 24.9 41.1004 25.5 41.1004 25.5C41.1004 25.5 0 1.75 0 1.75C0 1.75 0 0.6 0 0.6C0 0.6 1 0 1 0C1 0 42.1504 23.75 42.1504 23.75Z"/></g><g transform="translate(116.75, 148.35)" style="fill:#000; fill-rule:nonzero; stroke:none; stroke-width:2; stroke-linecap:butt; stroke-linejoin:miter; stroke-dasharray:none;"><path d="M41.1 0C41.1 0 43.1 1.15 43.1 1.15C43.1 1.15 1 25.5 1 25.5C1 25.5 0 24.9 0 24.9C0 24.9 0 23.75 0 23.75C0 23.75 41.1 0 41.1 0Z"/></g><g transform="translate(116.2, 143)" style="fill:#000; fill-rule:nonzero; stroke:none; stroke-width:2; stroke-linecap:butt; stroke-linejoin:miter; stroke-dasharray:none;"><path d="M33.4 0C33.4 0 34.4 1.75 34.4 1.75C34.4 1.75 1.05 21 1.05 21C1.05 21 0 19.25 0 19.25C0 19.25 33.4 0 33.4 0Z"/></g><g transform="translate(157.85, 100.3)" style="fill:#000; fill-rule:nonzero; stroke:none; stroke-width:2; stroke-linecap:butt; stroke-linejoin:miter; stroke-dasharray:none;"><path d="M0 0.55C0 0.55 1 0 1 0C1 0 2 0.55 2 0.55C2 0.55 2 49.2 2 49.2C2 49.2 0 48.05 0 48.05C0 48.05 0 0.55 0 0.55Z"/></g><g transform="translate(116.75, 75.4004)" style="fill:#000; fill-rule:nonzero; stroke:none; stroke-width:2; stroke-linecap:butt; stroke-linejoin:miter; stroke-dasharray:none;"><path d="M0 1.75C0 1.75 0 0.5498 0 0.5498C0 0.5498 1 0 1 0C1 0 42.1 23.6992 42.1 23.6992C42.1 23.6992 42.1 24.8996 42.1 24.8996C42.1 24.8996 41.1 25.4496 41.1 25.4496C41.1 25.4496 0 1.75 0 1.75Z"/></g><g transform="translate(116.2, 85.2002)" style="fill:#000; fill-rule:nonzero; stroke:none; stroke-width:2; stroke-linecap:butt; stroke-linejoin:miter; stroke-dasharray:none;"><path d="M0 1.75C0 1.75 1.05 0 1.05 0C1.05 0 34.4 19.2498 34.4 19.2498C34.4 19.2498 33.4 20.9998 33.4 20.9998C33.4 20.9998 0 1.75 0 1.75Z"/></g><g transform="translate(73.5996, 75.4004)" style="fill:#000; fill-rule:nonzero; stroke:none; stroke-width:2; stroke-linecap:butt; stroke-linejoin:miter; stroke-dasharray:none;"><path d="M2 25.4496C2 25.4496 0 24.2998 0 24.2998C0 24.2998 42.1004 0 42.1004 0C42.1004 0 43.1504 0.5498 43.1504 0.5498C43.1504 0.5498 43.1504 1.75 43.1504 1.75C43.1504 1.75 2 25.4496 2 25.4496Z"/></g><g transform="translate(158.85, 74.7998)" style="fill:#000; fill-rule:nonzero; stroke:none; stroke-width:2; stroke-linecap:butt; stroke-linejoin:miter; stroke-dasharray:none;"><path d="M42.1 0C42.1 0 42.1 2.3506 42.1 2.3506C42.1 2.3506 1 26.0502 1 26.0502C1 26.0502 0 25.5002 0 25.5002C0 25.5002 0 24.2998 0 24.2998C0 24.2998 42.1 0 42.1 0Z"/></g><g transform="translate(200.95, 74.7998)" style="fill:#000; fill-rule:nonzero; stroke:none; stroke-width:2; stroke-linecap:butt; stroke-linejoin:miter; stroke-dasharray:none;"><path d="M42.1 24.2998C42.1 24.2998 42.1 26.6502 42.1 26.6502C42.1 26.6502 0 2.3506 0 2.3506C0 2.3506 0 0 0 0C0 0 42.1 24.2998 42.1 24.2998Z"/></g><g transform="translate(275.565, 64.6465)" style="fill:#000; fill-rule:evenodd; stroke:none; stroke-width:2; stroke-linecap:butt; stroke-linejoin:miter; stroke-dasharray:none;"><path d="M19.238 0C19.238 0 16.268 0 16.268 0C16.268 0 16.268 20.1152 16.268 20.1152C16.268 20.1152 3.409 0 3.409 0C3.409 0 0 0 0 0C0 0 0 24.6035 0 24.6035C0 24.6035 2.97 24.6035 2.97 24.6035C2.97 24.6035 2.97 4.6572 2.97 4.6572C2.97 4.6572 15.694 24.6035 15.694 24.6035C15.694 24.6035 19.238 24.6035 19.238 24.6035C19.238 24.6035 19.238 0 19.238 0Z"/></g><g transform="translate(300.051, 64.6465)" style="fill:#000; fill-rule:evenodd; stroke:none; stroke-width:2; stroke-linecap:butt; stroke-linejoin:miter; stroke-dasharray:none;"><path d="M15.796 13.3984C15.796 13.3984 15.796 24.6035 15.796 24.6035C15.796 24.6035 18.934 24.6035 18.934 24.6035C18.934 24.6035 18.934 0 18.934 0C18.934 0 15.796 0 15.796 0C15.796 0 15.796 10.6308 15.796 10.6308C15.796 10.6308 3.139 10.6308 3.139 10.6308C3.139 10.6308 3.139 0 3.139 0C3.139 0 0 0 0 0C0 0 0 24.6035 0 24.6035C0 24.6035 3.173 24.6035 3.173 24.6035C3.173 24.6035 3.173 13.3984 3.173 13.3984C3.173 13.3984 15.796 13.3984 15.796 13.3984Z"/></g><g transform="translate(322.61, 77.5537)" style="fill:#000; fill-rule:evenodd; stroke:none; stroke-width:2; stroke-linecap:butt; stroke-linejoin:miter; stroke-dasharray:none;"><path d="M11.949 15.7442C11.949 15.7442 2.506 15.7442 2.506 15.7442C2.735 14.2764 3.544 13.3399 5.746 12.0488C5.746 12.0488 8.278 10.6817 8.278 10.6817C10.784 9.3145 12.075 7.4668 12.075 5.2647C12.075 3.7715 11.467 2.3789 10.404 1.417C9.341 0.4551 8.025 0 6.328 0C4.05 0 2.355 0.8096 1.368 2.3281C0.735 3.2901 0.456 4.4043 0.406 6.2266C0.406 6.2266 2.633 6.2266 2.633 6.2266C2.709 5.0117 2.861 4.2774 3.164 3.6953C3.746 2.6074 4.911 1.9492 6.253 1.9492C8.278 1.9492 9.796 3.3916 9.796 5.3154C9.796 6.7324 8.961 7.9483 7.367 8.8594C7.367 8.8594 5.037 10.1758 5.037 10.1758C1.291 12.3018 0.203 13.9971 0 17.9463C0 17.9463 11.949 17.9463 11.949 17.9463C11.949 17.9463 11.949 15.7442 11.949 15.7442Z"/></g><g transform="translate(243.05, 85.2002)" style="fill:#000; fill-rule:nonzero; stroke:none; stroke-width:2; stroke-linecap:butt; stroke-linejoin:miter; stroke-dasharray:none;"><path d="M24.1 0C24.1 0 25.1 1.75 25.1 1.75C25.1 1.75 0 16.2498 0 16.2498C0 16.2498 0 13.8994 0 13.8994C0 13.8994 24.1 0 24.1 0Z"/></g><g transform="translate(104.782, 15.7412)" style="fill:#000; fill-rule:evenodd; stroke:none; stroke-width:2; stroke-linecap:butt; stroke-linejoin:miter; stroke-dasharray:none;"><path d="M11.847 0C4.793 0 0 5.1973 0 12.8926C0 20.5879 4.793 25.7852 11.88 25.7852C14.851 25.7852 17.517 24.874 19.508 23.1865C22.174 20.9248 23.761 17.1113 23.761 13.0947C23.761 5.1641 19.07 0 11.847 0ZM11.847 2.7676C17.179 2.7676 20.621 6.8174 20.621 13.0274C20.621 18.9678 17.078 23.0176 11.88 23.0176C6.65 23.0176 3.139 18.9678 3.139 12.8926C3.139 6.8174 6.65 2.7676 11.847 2.7676Z"/></g><g transform="translate(115.7, 46.4502)" style="fill:#000; fill-rule:nonzero; stroke:none; stroke-width:2; stroke-linecap:butt; stroke-linejoin:miter; stroke-dasharray:none;"><path d="M0 0C0 0 2.05 0 2.05 0C2.05 0 2.05 28.9502 2.05 28.9502C2.05 28.9502 1.05 29.5 1.05 29.5C1.05 29.5 0 28.9502 0 28.9502C0 28.9502 0 0 0 0Z"/></g><g transform="translate(74.1504, 2.2002)" style="fill:#000; fill-rule:nonzero; stroke:none; stroke-width:2; stroke-linecap:butt; stroke-linejoin:miter; stroke-dasharray:none;"><path d="M0 1.75C0 1.75 1 0 1 0C1 0 28.4996 15.8496 28.4996 15.8496C28.4996 15.8496 27.4496 17.5996 27.4496 17.5996C27.4496 17.5996 0 1.75 0 1.75Z"/></g><g transform="translate(104.782, 209.991)" style="fill:#000; fill-rule:evenodd; stroke:none; stroke-width:2; stroke-linecap:butt; stroke-linejoin:miter; stroke-dasharray:none;"><path d="M11.847 0C4.793 0 0 5.197 0 12.893C0 20.588 4.793 25.785 11.88 25.785C14.851 25.785 17.517 24.874 19.508 23.187C22.174 20.925 23.761 17.112 23.761 13.095C23.761 5.164 19.07 0 11.847 0ZM11.847 2.768C17.179 2.768 20.621 6.818 20.621 13.028C20.621 18.968 17.078 23.018 11.88 23.018C6.65 23.018 3.139 18.968 3.139 12.893C3.139 6.818 6.65 2.768 11.847 2.768Z"/></g><g transform="translate(115.7, 173.25)" style="fill:#000; fill-rule:nonzero; stroke:none; stroke-width:2; stroke-linecap:butt; stroke-linejoin:miter; stroke-dasharray:none;"><path d="M2.05 31.9C2.05 31.9 0 31.9 0 31.9C0 31.9 0 0.6 0 0.6C0 0.6 1.05 0 1.05 0C1.05 0 2.05 0.6 2.05 0.6C2.05 0.6 2.05 31.9 2.05 31.9Z"/></g><g transform="translate(131.9, 230.05)" style="fill:#000; fill-rule:nonzero; stroke:none; stroke-width:2; stroke-linecap:butt; stroke-linejoin:miter; stroke-dasharray:none;"><path d="M27.4 15.2C27.4 15.2 26.4 16.95 26.4 16.95C26.4 16.95 0 1.75 0 1.75C0 1.75 1 0 1 0C1 0 27.4 15.2 27.4 15.2Z"/></g><g transform="translate(5.41602, 161.896)" style="fill:#000; fill-rule:evenodd; stroke:none; stroke-width:2; stroke-linecap:butt; stroke-linejoin:miter; stroke-dasharray:none;"><path d="M0 24.604C0 24.604 11.1045 24.604 11.1045 24.604C13.4326 24.604 15.1543 23.962 16.4707 22.545C17.6856 21.263 18.3604 19.507 18.3604 17.584C18.3604 14.614 17.0108 12.826 13.8711 11.61C16.0986 10.564 17.2803 8.742 17.2803 6.244C17.2803 4.456 16.6055 2.869 15.3233 1.721C14.0401 0.541 12.3526 0 9.99028 0C9.99028 0 0 0 0 0C0 0 0 24.604 0 24.604ZM3.13867 10.598C3.13867 10.598 3.13867 2.768 3.13867 2.768C3.13867 2.768 9.21388 2.768 9.21388 2.768C10.9688 2.768 11.9483 3.004 12.792 3.645C13.669 4.32 14.1416 5.333 14.1416 6.683C14.1416 8 13.669 9.045 12.792 9.72C11.9483 10.362 10.9688 10.598 9.21388 10.598C9.21388 10.598 3.13867 10.598 3.13867 10.598ZM3.13867 21.836C3.13867 21.836 3.13867 13.366 3.13867 13.366C3.13867 13.366 10.7998 13.366 10.7998 13.366C12.3194 13.366 13.3311 13.737 14.0742 14.546C14.8164 15.323 15.2217 16.403 15.2217 17.618C15.2217 18.799 14.8164 19.879 14.0742 20.655C13.3311 21.465 12.3194 21.836 10.7998 21.836C10.7998 21.836 3.13867 21.836 3.13867 21.836Z"/></g><g transform="translate(27.5791, 168.309)" style="fill:#000; fill-rule:evenodd; stroke:none; stroke-width:2; stroke-linecap:butt; stroke-linejoin:miter; stroke-dasharray:none;"><path d="M0 0.506C0 0.506 0 18.191 0 18.191C0 18.191 2.835 18.191 2.835 18.191C2.835 18.191 2.835 9.011 2.835 9.011C2.835 6.48 3.4756 4.826 4.8262 3.847C5.7031 3.206 6.5469 3.004 8.5049 2.969C8.5049 2.969 8.5049 0.101 8.5049 0.101C8.0322 0.034 7.7959 0 7.4248 0C5.6025 0 4.2188 1.08 2.5986 3.712C2.5986 3.712 2.5986 0.506 2.5986 0.506C2.5986 0.506 0 0.506 0 0.506Z"/></g><g transform="translate(41.4004, 148.35)" style="fill:#000; fill-rule:nonzero; stroke:none; stroke-width:2; stroke-linecap:butt; stroke-linejoin:miter; stroke-dasharray:none;"><path d="M1 20.35C1 20.35 0 18.6 0 18.6C0 18.6 32.1992 0 32.1992 0C32.1992 0 33.1992 0.6 33.1992 0.6C33.1992 0.6 33.1992 1.75 33.1992 1.75C33.1992 1.75 1 20.35 1 20.35Z"/></g></svg>