<!-- Generator: Adobe Illustrator 12.0.1, SVG Export Plug-In . SVG Version: 6.00 Build 51448)  -->

<svg xmlns:rdf="http://www.w3.org/1999/02/22-rdf-syntax-ns#" style="enable-background:new 0 0 331.688 163.831;" xmlns="http://www.w3.org/2000/svg" xml:space="preserve" height="163.831" viewBox="0 0 331.688 163.831" width="331.688" version="1.1" xmlns:cc="http://creativecommons.org/ns#" xmlns:dc="http://purl.org/dc/elements/1.1/"><metadata><rdf:RDF><cc:Work rdf:about=""><dc:format>image/svg+xml</dc:format><dc:type rdf:resource="http://purl.org/dc/dcmitype/StillImage"/><dc:title/></cc:Work></rdf:RDF></metadata><defs>
</defs>
<path fill="#000000" d="M165.875,20.90625l-1.5,0.59375,10.1875,24.59375-2.375-0.4375-1.40625,1.84375-10.125-24.46875-1.53125,0.625,10.5,25.3125-20.40625,26.59375h-37.0625l-22.65625-13.0625-0.8125,1.4375,22.15625,12.78125-7.3125,12.65625h1.84375l7.03125-12.1875h36.625l9.03125,33.71875-28.46875-19.375h-40.375l-5.96875-22.375-1.59375,0.4375,5.4375,20.125-19.09375,39.625,25.6875-19.78125,6.40625-11h-1.90625l-5.75,9.9375-18.75,14.4375,18.09375-26.5625h31.625l36.03125,17.34375,23.75-13.75-0.8125-1.375-22.46875,12.96875-9.40625-35,22.40625-29.15625,27.03125,4.84375,0.28125-1.625-23.78125-4.21875-10.5625-25.5z"/>
<path d="m72.8124,66.5431,0-16.32765,2.223,0,8.5538,12.81455,0-12.81455,2.0786,0,0,16.3286-2.223,0-8.5538-12.81455,0,12.81455-2.0786,0,0-0.00095z" fill="#000000"/>
<path d="m184.22555,94.98135c0-2.71035,0.7277-4.83075,2.1831-6.3631,1.4554-1.5333,3.3345-2.29995,5.63635-2.29995,1.50765,0,2.8671,0.36005,4.07645,1.08015,1.20935,0.72105,2.13275,1.72425,2.7683,3.01245,0.6346,1.28725,0.9519,2.7493,0.9519,4.3814,0,1.65585-0.3344,3.1369-1.00225,4.44315-0.6688,1.30625-1.61595,2.29615-2.8405,2.9678-1.2255,0.67165-2.5479,1.00795-3.9653,1.00795-1.5371,0-2.9108-0.37145-4.1211-1.1134s-2.12705-1.75655-2.7512-3.04c-0.62415-1.28535-0.93575-2.6429-0.93575-4.07645zm2.2268,0.02755c0,1.9665,0.52915,3.51595,1.58745,4.64835s2.3864,1.69765,3.9824,1.69765c1.6264,0,2.96495-0.5719,4.0166-1.71475s1.57605-2.7645,1.57605-4.86495c0-1.3281-0.2242-2.48805-0.67355-3.4789-0.4503-0.99085-1.1077-1.7594-1.9722-2.3047s-1.83635-0.81795-2.9127-0.81795c-1.5295,0-2.8462,0.52535-3.94915,1.5751s-1.6549,2.80345-1.6549,5.26015z" fill="#000000"/>
<path d="m150.35805,12.75885c0-2.71035,0.7277-4.83075,2.1831-6.3631,1.45635-1.5333,3.3345-2.29995,5.63635-2.29995,1.50765,0,2.86615,0.36005,4.07645,1.08015,1.2103,0.72105,2.13275,1.72425,2.7683,3.01245,0.6346,1.28725,0.9519,2.7493,0.9519,4.3814,0,1.65585-0.3344,3.1369-1.00225,4.44315-0.6688,1.30625-1.615,2.29615-2.8405,2.9678s-2.54695,1.00795-3.9653,1.00795c-1.5371,0-2.9108-0.37145-4.1211-1.1134s-2.12705-1.75655-2.7512-3.04-0.93575-2.6429-0.93575-4.07645zm2.2268,0.02755c0,1.9665,0.52915,3.51595,1.58745,4.64835s2.3864,1.69765,3.9824,1.69765c1.6264,0,2.96495-0.5719,4.0166-1.71475,1.0507-1.14285,1.57605-2.7645,1.57605-4.86495,0-1.3281-0.2242-2.48805-0.67355-3.4789s-1.10675-1.7594-1.9722-2.3047-1.83635-0.81795-2.9127-0.81795c-1.5295,0-2.8462,0.52535-3.94915,1.5751s-1.6549,2.8044-1.6549,5.26015z" fill="#000000"/>
<path d="m202.0865,52.46885c0-2.71035,0.7277-4.83075,2.18215-6.3631,1.45635-1.5333,3.3345-2.29995,5.6373-2.29995,1.5067,0,2.86615,0.36005,4.07645,1.08015,1.20935,0.72105,2.1318,1.72425,2.76735,3.01245s0.95285,2.7493,0.95285,4.3814c0,1.65585-0.3344,3.1369-1.0032,4.44315s-1.615,2.29615-2.83955,2.9678c-1.22645,0.67165-2.5479,1.00795-3.9653,1.00795-1.53805,0-2.9108-0.37145-4.1211-1.1134-1.21125-0.74195-2.128-1.75655-2.7512-3.04s-0.93575-2.6429-0.93575-4.07645zm2.2268,0.02755c0,1.9665,0.52915,3.51595,1.5865,4.64835,1.05925,1.13145,2.3864,1.69765,3.98335,1.69765,1.62545,0,2.96495-0.5719,4.01565-1.71475s1.577-2.7645,1.577-4.86495c0-1.3281-0.2242-2.48805-0.6745-3.4789s-1.10675-1.7594-1.97125-2.3047c-0.86545-0.5453-1.8373-0.81795-2.9127-0.81795-1.53045,0-2.8462,0.52535-3.9501,1.5751-1.10295,1.0507-1.65395,2.80345-1.65395,5.26015z" fill="#000000"/>
<path d="m8.2922,66.5431,0-16.32765,2.16695,0,0,6.70985,8.44645,0,0-6.70985,2.16695,0,0,16.3286-2.16695,0,0-7.6893-8.44645,0,0,7.6893-2.16695,0,0-0.00095z" fill="#000000"/>
<path d="m22.98015,67.5824,1.4991-0.20805c0.17385,0.8512,0.4674,1.4649,0.8816,1.8411,0.41515,0.37525,0.9234,0.56335,1.52665,0.56335,0.71535,0,1.3167-0.2451,1.80405-0.7334,0.48735-0.4902,0.73055-1.0963,0.73055-1.8202,0-0.6897-0.2261-1.2578-0.6802-1.7062-0.45315-0.4484-1.02885-0.67165-1.72805-0.67165-0.28595,0-0.64125,0.05605-1.0659,0.1672l0.16815-1.32145c0.1007,0.0114,0.18145,0.0171,0.2432,0.0171,0.6403,0,1.21695-0.16625,1.72995-0.4997s0.7695-0.8474,0.7695-1.54185c0-0.55005-0.18715-1.00605-0.56145-1.3661-0.3743-0.361-0.8569-0.5415-1.44875-0.5415-0.58615,0-1.0754,0.1843-1.46585,0.5529s-0.6422,0.9215-0.75335,1.6587l-1.4991-0.26695c0.18335-1.0089,0.6023-1.79075,1.254-2.3446,0.6517-0.5548,1.463-0.8322,2.43295-0.8322,0.6688,0,1.28535,0.1425,1.84775,0.4294,0.5624,0.28595,0.99275,0.6764,1.292,1.1704,0.29735,0.49495,0.44745,1.01935,0.44745,1.5751,0,0.5282-0.14155,1.0089-0.4256,1.4421s-0.70395,0.7771-1.26065,1.0336c0.7239,0.1672,1.2863,0.51395,1.69005,1.0393,0.4028,0.52725,0.60515,1.18465,0.60515,1.97505,0,1.0697-0.39045,1.97505-1.17135,2.71795s-1.76795,1.1153-2.96115,1.1153c-1.07635,0-1.9703-0.32015-2.6809-0.95855-0.71345-0.6403-1.1191-1.4687-1.2198-2.48615z" fill="#000000"/>
<path d="m44.42925,60.81745,2.16695,0.5453c-0.4522,1.7765-1.26635,3.1312-2.44055,4.06315-1.17515,0.93195-2.6125,1.39935-4.31015,1.39935-1.7575,0-3.1863-0.35815-4.28735-1.0754-1.10105-0.7163-1.93895-1.7556-2.5137-3.1141-0.57475-1.35945-0.86165-2.8196-0.86165-4.37855,0-1.7005,0.32395-3.18535,0.9728-4.4517s1.5713-2.22965,2.76925-2.8861c1.197-0.65645,2.5137-0.9861,3.952-0.9861,1.63115,0,3.002,0.4161,4.1135,1.2483,1.11245,0.83315,1.8867,2.0026,2.3237,3.51215l-2.1223,0.50065c-0.3781-1.1875-0.92625-2.052-1.64445-2.5935-0.71915-0.5415-1.62355-0.81225-2.71225-0.81225-1.2521,0-2.299,0.3002-3.1407,0.90155-0.84075,0.60135-1.43165,1.4079-1.7727,2.42155s-0.51205,2.0577-0.51205,3.13405c0,1.38795,0.2014,2.5992,0.60515,3.6347s1.03075,1.8088,1.8829,2.32085,1.77365,0.76855,2.7664,0.76855c1.20745,0,2.2287-0.34865,3.06565-1.0469s1.40315-1.7328,1.69955-3.10555z" fill="#000000"/>
<path fill="#000000" d="M51.02985,56.758098h19.617499v1.615h-19.617499v-1.615z"/>
<path d="m238.03165,24.81245,2.16695,0.5453c-0.4522,1.7765-1.26635,3.1312-2.44055,4.06315-1.17515,0.93195-2.6125,1.39935-4.31015,1.39935-1.7575,0-3.1863-0.35815-4.28735-1.0754-1.10105-0.7163-1.93895-1.7556-2.5137-3.1141-0.57475-1.35945-0.86165-2.8196-0.86165-4.37855,0-1.7005,0.32395-3.18535,0.9728-4.4517,0.6479-1.26635,1.57035-2.22965,2.7683-2.8861,1.197-0.65645,2.5137-0.9861,3.952-0.9861,1.63115,0,3.002,0.4161,4.1135,1.2483,1.11245,0.83315,1.8867,2.0026,2.3237,3.51215l-2.1223,0.50065c-0.37715-1.1875-0.9272-2.052-1.64445-2.5935-0.71915-0.5415-1.62355-0.81225-2.71225-0.81225-1.2521,0-2.299,0.3002-3.1407,0.90155s-1.43165,1.4079-1.7727,2.42155-0.5111,2.0577-0.5111,3.13405c0,1.38795,0.2014,2.5992,0.6061,3.6347,0.4028,1.0355,1.03075,1.8088,1.88195,2.32085s1.77365,0.76855,2.76545,0.76855c1.20745,0,2.22965-0.34865,3.0666-1.0469s1.4041-1.7328,1.69955-3.10555z" fill="#000000"/><path d="m242.94885,30.5381,0-16.3286,2.16695,0,0,6.70985,8.44645,0,0-6.70985,2.16695,0,0,16.3286-2.16695,0,0-7.6893-8.44645,0,0,7.6893-2.16695,0,0,0z" fill="#000000"/>
<path d="m257.24635,31.5774,1.4991-0.20805c0.1748,0.8512,0.4674,1.4649,0.8816,1.8411,0.4161,0.37525,0.92435,0.56335,1.52665,0.56335,0.7163,0,1.31765-0.2451,1.80405-0.7334,0.48735-0.4902,0.73055-1.0963,0.73055-1.8202,0-0.6897-0.2261-1.2578-0.67925-1.7062s-1.0298-0.67165-1.729-0.67165c-0.28595,0-0.6403,0.05605-1.06495,0.1672l0.1672-1.32145c0.1007,0.0114,0.18145,0.0171,0.2432,0.0171,0.64125,0,1.21695-0.16625,1.7309-0.4997,0.51205-0.33345,0.76855-0.8474,0.76855-1.54185,0-0.55005-0.18715-1.00605-0.5605-1.3661-0.37525-0.361-0.8569-0.5415-1.44875-0.5415-0.58615,0-1.07635,0.1843-1.4668,0.5529s-0.64315,0.9215-0.7543,1.6587l-1.4991-0.26695c0.18335-1.0089,0.60325-1.79075,1.254-2.3446,0.65265-0.5548,1.463-0.8322,2.43295-0.8322,0.66975,0,1.2863,0.1425,1.84775,0.4294,0.5624,0.28595,0.99275,0.6764,1.29105,1.1704s0.44745,1.01935,0.44745,1.5751c0,0.5282-0.1406,1.0089-0.42465,1.4421s-0.7049,0.7771-1.2616,1.0336c0.7239,0.1672,1.28725,0.51395,1.69005,1.0393,0.40375,0.52725,0.60515,1.18465,0.60515,1.97505,0,1.0697-0.3895,1.97505-1.1704,2.71795s-1.76795,1.1153-2.96115,1.1153c-1.07635,0-1.9703-0.32015-2.6809-0.95855-0.7125-0.64125-1.1191-1.4687-1.21885-2.48615z" fill="#000000"/>
<path fill="#000000" d="M225.5458,29.7306l1.28155,0.95-10.2125,13.3475-1.28155-0.9975,10.2125-13.3z"/>
<path fill="#000000" d="M289.90625,36.46875l-33.4375,19.34375v37.65625l-31.8125,18.375-22.96875-13.25-0.78125,1.4375,20.125,11.59375v29.03125h1.625v-28.09375l2,1.15625,2.03125-1.15625v28.09375h1.625v-29.03125l28.96875-16.71875,32.625,18.84375,33.5-19.3125v-38.625l-33.5-19.34375zm0,1.84375l31.875,18.40625v36.75l-31.875,18.375-31.8125-18.375v-36.75l31.8125-18.40625z"/>
<path fill="#000000" d="M290.33485,105.5881l-0.8075,1.3775-26.98-15.58,0.80655-1.3775,26.98095,15.58z"/>
<path fill="#000000" d="M316.12734,59.5131h1.61405v31.207498h-1.61405v-31.207498z"/>
<path fill="#000000" d="M263.3539,60.2256l-0.80655-1.3775,26.98-15.6275,0.8075,1.425-26.98095,15.58z"/>
<path d="m216.85805,151.50635c0-2.71035,0.7277-4.83075,2.18405-6.3631,1.45445-1.5333,3.3345-2.29995,5.6354-2.29995,1.5086,0,2.8671,0.36005,4.07645,1.08015,1.2103,0.72105,2.1337,1.72425,2.7683,3.01245s0.9519,2.7493,0.9519,4.3814c0,1.65585-0.3344,3.1369-1.00225,4.44315s-1.615,2.29615-2.8405,2.9678c-1.22455,0.67165-2.54695,1.00795-3.9653,1.00795-1.53615,0-2.9108-0.37145-4.1211-1.1134s-2.1261-1.75655-2.7512-3.04-0.93575-2.6429-0.93575-4.07645zm2.2268,0.0275c0,1.9665,0.52915,3.51595,1.5884,4.64835,1.05735,1.13145,2.3864,1.69765,3.98145,1.69765,1.62735,0,2.96495-0.5719,4.01755-1.71475,1.04975-1.14285,1.5751-2.7645,1.5751-4.86495,0-1.3281-0.2242-2.48805-0.67355-3.4789s-1.10675-1.7594-1.9722-2.3047c-0.8645-0.5453-1.8354-0.81795-2.9127-0.81795-1.52855,0-2.8462,0.52535-3.9482,1.5751-1.10485,1.0507-1.65585,2.80345-1.65585,5.26015z" fill="#000000"/>
</svg>

