<?xml version="1.0" encoding="UTF-8"?><svg xmlns="http://www.w3.org/2000/svg" xmlns:xlink="http://www.w3.org/1999/xlink" width="189pt" height="111pt" viewBox="0 0 189 111"><g transform="translate(2.7002, 24.0996)" style="fill:#000; fill-rule:nonzero; stroke:none; stroke-width:1.2; stroke-linecap:butt; stroke-linejoin:miter; stroke-dasharray:none;"><path d="M9.5996 27.3506C9.5996 27.3506 8.6494 28.3506 8.6494 28.3506C8.6494 28.3506 0 0 0 0C0 0 1.3496 0.3506 1.3496 0.3506C1.3496 0.3506 9.5996 27.3506 9.5996 27.3506Z"/></g><g transform="translate(8.65039, 25.4502)" style="fill:#000; fill-rule:nonzero; stroke:none; stroke-width:1.2; stroke-linecap:butt; stroke-linejoin:miter; stroke-dasharray:none;"><path d="M7.89941 21.8994C7.89941 21.8994 6.69921 22.25 6.69921 22.25C6.69921 22.25 0 0.3496 0 0.3496C0 0.3496 1.19922 0 1.19922 0C1.19922 0 7.89941 21.8994 7.89941 21.8994Z"/></g><g transform="translate(11.3496, 51.4502)" style="fill:#000; fill-rule:nonzero; stroke:none; stroke-width:1.2; stroke-linecap:butt; stroke-linejoin:miter; stroke-dasharray:none;"><path d="M28.5 6.3496C28.5 6.3496 28.7002 7 28.7002 7C28.7002 7 28.3008 7.5 28.3008 7.5C28.3008 7.5 0 1 0 1C0 1 0.9502 0 0.9502 0C0.9502 0 28.5 6.3496 28.5 6.3496Z"/></g><g transform="translate(39.8496, 37.1504)" style="fill:#000; fill-rule:nonzero; stroke:none; stroke-width:1.2; stroke-linecap:butt; stroke-linejoin:miter; stroke-dasharray:none;"><path d="M19.25 0C19.25 0 19.9004 0.1494 19.9004 0.1494C19.9004 0.1494 20.0508 0.8496 20.0508 0.8496C20.0508 0.8496 0.9502 21.3994 0.9502 21.3994C0.9502 21.3994 0.2002 21.2998 0.2002 21.2998C0.2002 21.2998 0 20.6494 0 20.6494C0 20.6494 19.25 0 19.25 0Z"/></g><g transform="translate(37.8496, 35.5)" style="fill:#000; fill-rule:nonzero; stroke:none; stroke-width:1.2; stroke-linecap:butt; stroke-linejoin:miter; stroke-dasharray:none;"><path d="M15.6006 0C15.6006 0 16.5 0.8496 16.5 0.8496C16.5 0.8496 0.8506 17.5996 0.8506 17.5996C0.8506 17.5996 0 16.7998 0 16.7998C0 16.7998 15.6006 0 15.6006 0Z"/></g><g transform="translate(50.8496, 9.09961)" style="fill:#000; fill-rule:nonzero; stroke:none; stroke-width:1.2; stroke-linecap:butt; stroke-linejoin:miter; stroke-dasharray:none;"><path d="M0 1.05079C0 1.05079 0.9502 0 0.9502 0C0.9502 0 9.4004 27.75 9.4004 27.75C9.4004 27.75 8.9004 28.2002 8.9004 28.2002C8.9004 28.2002 8.25 28.0508 8.25 28.0508C8.25 28.0508 0 1.05079 0 1.05079Z"/></g><g transform="translate(22.9004, 2.4502)" style="fill:#000; fill-rule:nonzero; stroke:none; stroke-width:1.2; stroke-linecap:butt; stroke-linejoin:miter; stroke-dasharray:none;"><path d="M0.3994 1.3496C0.3994 1.3496 0 0 0 0C0 0 28.8994 6.64941 28.8994 6.64941C28.8994 6.64941 27.9492 7.7002 27.9492 7.7002C27.9492 7.7002 0.3994 1.3496 0.3994 1.3496Z"/></g><g transform="translate(24.75, 8.2998)" style="fill:#000; fill-rule:nonzero; stroke:none; stroke-width:1.2; stroke-linecap:butt; stroke-linejoin:miter; stroke-dasharray:none;"><path d="M0 1.1504C0 1.1504 0.25 0 0.25 0C0.25 0 22.5996 5.1504 22.5996 5.1504C22.5996 5.1504 22.2998 6.2998 22.2998 6.2998C22.2998 6.2998 0 1.1504 0 1.1504Z"/></g><g transform="translate(2.7002, 2.4502)" style="fill:#000; fill-rule:nonzero; stroke:none; stroke-width:1.2; stroke-linecap:butt; stroke-linejoin:miter; stroke-dasharray:none;"><path d="M1.3496 22C1.3496 22 0 21.6494 0 21.6494C0 21.6494 20.2002 0 20.2002 0C20.2002 0 20.5996 1.3496 20.5996 1.3496C20.5996 1.3496 1.3496 22 1.3496 22Z"/></g><g transform="translate(48.2764, 77.1045)" style="fill:#000; fill-rule:evenodd; stroke:none; stroke-width:1.2; stroke-linecap:butt; stroke-linejoin:miter; stroke-dasharray:none;"><path d="M11.4521 0C11.4521 0 9.6836 0 9.6836 0C9.6836 0 9.6836 11.9736 9.6836 11.9736C9.6836 11.9736 2.0293 0 2.0293 0C2.0293 0 0 0 0 0C0 0 0 14.6455 0 14.6455C0 14.6455 1.7685 14.6455 1.7685 14.6455C1.7685 14.6455 1.7685 2.7725 1.7685 2.7725C1.7685 2.7725 9.3427 14.6455 9.3427 14.6455C9.3427 14.6455 11.4521 14.6455 11.4521 14.6455C11.4521 14.6455 11.4521 0 11.4521 0Z"/></g><g transform="translate(39.6504, 58.4502)" style="fill:#000; fill-rule:nonzero; stroke:none; stroke-width:1.2; stroke-linecap:butt; stroke-linejoin:miter; stroke-dasharray:none;"><path d="M9.2998 14.8496C9.2998 14.8496 8.25 15.3994 8.25 15.3994C8.25 15.3994 0 0.5 0 0.5C0 0.5 0.3994 0 0.3994 0C0.3994 0 1.1494 0.0996 1.1494 0.0996C1.1494 0.0996 9.2998 14.8496 9.2998 14.8496Z"/></g><g transform="translate(63.4004, 77.7002)" style="fill:#000; fill-rule:nonzero; stroke:none; stroke-width:1.2; stroke-linecap:butt; stroke-linejoin:miter; stroke-dasharray:none;"><path d="M18.5 0C18.5 0 19.5996 1.0498 19.5996 1.0498C19.5996 1.0498 0.25 4.7998 0.25 4.7998C0.25 4.7998 0 3.5996 0 3.5996C0 3.5996 18.5 0 18.5 0Z"/></g><g transform="translate(81.9004, 49.5)" style="fill:#000; fill-rule:nonzero; stroke:none; stroke-width:1.2; stroke-linecap:butt; stroke-linejoin:miter; stroke-dasharray:none;"><path d="M3.4492 0.3496C3.4492 0.3496 4.0996 0 4.0996 0C4.0996 0 4.6494 0.4004 4.6494 0.4004C4.6494 0.4004 1.0996 29.25 1.0996 29.25C1.0996 29.25 0 28.2002 0 28.2002C0 28.2002 3.4492 0.3496 3.4492 0.3496Z"/></g><g transform="translate(77.1504, 52.5498)" style="fill:#000; fill-rule:nonzero; stroke:none; stroke-width:1.2; stroke-linecap:butt; stroke-linejoin:miter; stroke-dasharray:none;"><path d="M2.5996 0C2.5996 0 3.7998 0.1504 3.7998 0.1504C3.7998 0.1504 1.1992 21.3506 1.1992 21.3506C1.1992 21.3506 0 21.2002 0 21.2002C0 21.2002 2.5996 0 2.5996 0Z"/></g><g transform="translate(59.75, 36.8496)" style="fill:#000; fill-rule:nonzero; stroke:none; stroke-width:1.2; stroke-linecap:butt; stroke-linejoin:miter; stroke-dasharray:none;"><path d="M0.1504 1.1504C0.1504 1.1504 0 0.4502 0 0.4502C0 0.4502 0.5 0 0.5 0C0.5 0 26.2002 12 26.2002 12C26.2002 12 26.25 12.6504 26.25 12.6504C26.25 12.6504 25.5996 13 25.5996 13C25.5996 13 0.1504 1.1504 0.1504 1.1504Z"/></g><g transform="translate(85.9502, 34.7998)" style="fill:#000; fill-rule:nonzero; stroke:none; stroke-width:1.2; stroke-linecap:butt; stroke-linejoin:miter; stroke-dasharray:none;"><path d="M25.3498 0C25.3498 0 25.3498 1.4004 25.3498 1.4004C25.3498 1.4004 0.5996 15.1006 0.5996 15.1006C0.5996 15.1006 0.0498 14.7002 0.0498 14.7002C0.0498 14.7002 0 14.0498 0 14.0498C0 14.0498 25.3498 0 25.3498 0Z"/></g><g transform="translate(111.3, 34.7998)" style="fill:#000; fill-rule:nonzero; stroke:none; stroke-width:1.2; stroke-linecap:butt; stroke-linejoin:miter; stroke-dasharray:none;"><path d="M24.8 14.9004C24.8 14.9004 24.75 16.2998 24.75 16.2998C24.75 16.2998 0 1.4004 0 1.4004C0 1.4004 0 0 0 0C0 0 24.8 14.9004 24.8 14.9004Z"/></g><g transform="translate(155.776, 29.6045)" style="fill:#000; fill-rule:evenodd; stroke:none; stroke-width:1.2; stroke-linecap:butt; stroke-linejoin:miter; stroke-dasharray:none;"><path d="M11.453 0C11.453 0 9.684 0 9.684 0C9.684 0 9.684 11.9736 9.684 11.9736C9.684 11.9736 2.03 0 2.03 0C2.03 0 0 0 0 0C0 0 0 14.6455 0 14.6455C0 14.6455 1.769 14.6455 1.769 14.6455C1.769 14.6455 1.769 2.7725 1.769 2.7725C1.769 2.7725 9.343 14.6455 9.343 14.6455C9.343 14.6455 11.453 14.6455 11.453 14.6455C11.453 14.6455 11.453 0 11.453 0Z"/></g><g transform="translate(136.05, 41.5996)" style="fill:#000; fill-rule:nonzero; stroke:none; stroke-width:1.2; stroke-linecap:butt; stroke-linejoin:miter; stroke-dasharray:none;"><path d="M14.7 0C14.7 0 15.25 1.0508 15.25 1.0508C15.25 1.0508 0 9.5 0 9.5C0 9.5 0.05 8.1006 0.05 8.1006C0.05 8.1006 14.7 0 14.7 0Z"/></g><g transform="translate(171.45, 42.0996)" style="fill:#000; fill-rule:nonzero; stroke:none; stroke-width:1.2; stroke-linecap:butt; stroke-linejoin:miter; stroke-dasharray:none;"><path d="M15.05 8.6504C15.05 8.6504 14.4 9.7002 14.4 9.7002C14.4 9.7002 0 1 0 1C0 1 0.65 0 0.65 0C0.65 0 15.05 8.6504 15.05 8.6504Z"/></g><g transform="translate(160.8, 7.40039)" style="fill:#000; fill-rule:nonzero; stroke:none; stroke-width:1.2; stroke-linecap:butt; stroke-linejoin:miter; stroke-dasharray:none;"><path d="M0.5 0C0.5 0 1.7 0.04981 1.7 0.04981C1.7 0.04981 1.2 19.2998 1.2 19.2998C1.2 19.2998 0 19.2998 0 19.2998C0 19.2998 0.5 0 0.5 0Z"/></g><g transform="translate(48.167, 94.1045)" style="fill:#000; fill-rule:evenodd; stroke:none; stroke-width:1.2; stroke-linecap:butt; stroke-linejoin:miter; stroke-dasharray:none;"><path d="M9.4023 7.9755C9.4023 7.9755 9.4023 14.6455 9.4023 14.6455C9.4023 14.6455 11.2705 14.6455 11.2705 14.6455C11.2705 14.6455 11.2705 0 11.2705 0C11.2705 0 9.4023 0 9.4023 0C9.4023 0 9.4023 6.3285 9.4023 6.3285C9.4023 6.3285 1.8691 6.3285 1.8691 6.3285C1.8691 6.3285 1.8691 0 1.8691 0C1.8691 0 0 0 0 0C0 0 0 14.6455 0 14.6455C0 14.6455 1.8887 14.6455 1.8887 14.6455C1.8887 14.6455 1.8887 7.9755 1.8887 7.9755C1.8887 7.9755 9.4023 7.9755 9.4023 7.9755Z"/></g></svg>