<?xml version="1.0" encoding="UTF-8" standalone="no"?>
<!-- Created with Inkscape (http://www.inkscape.org/) -->

<svg
   xmlns:dc="http://purl.org/dc/elements/1.1/"
   xmlns:cc="http://creativecommons.org/ns#"
   xmlns:rdf="http://www.w3.org/1999/02/22-rdf-syntax-ns#"
   xmlns:svg="http://www.w3.org/2000/svg"
   xmlns="http://www.w3.org/2000/svg"
   version="1.1"
   width="460"
   height="333.34"
   id="svg2">
  <defs
     id="defs4" />
  <metadata
     id="metadata7">
    <rdf:RDF>
      <cc:Work
         rdf:about="">
        <dc:format>image/svg+xml</dc:format>
        <dc:type
           rdf:resource="http://purl.org/dc/dcmitype/StillImage" />
        <dc:title></dc:title>
      </cc:Work>
    </rdf:RDF>
  </metadata>
  <g
     transform="translate(1133.9,-544.39)"
     id="layer1">
    <path
       d="m -894.79,852.6 -26.09,-15.12 -0.12,-10.47 c -0.11,-8.85 0,-10.47 0.53,-10.47 0.35,0 0.97,-0.12 1.37,-0.27 0.64,-0.25 0.71,0.79 0.71,9.71 l 0,9.98 25.23,14.58 25.24,14.58 25.36,-14.63 25.36,-14.63 0,-29.28 0,-29.28 -24.77,-14.29 c -13.61,-7.87 -24.91,-14.35 -25.12,-14.43 -0.2,-0.1 -7.07,13.01 -15.27,29.06 l -14.9,29.18 -31.87,8.54 -31.86,8.53 -18.51,-10.54 c -10.18,-5.8 -18.8,-10.78 -19.1,-11.05 -0.4,-0.38 -0.1,-1.26 1.3,-3.75 l 1.8,-3.24 17.83,10.14 17.83,10.15 26,-6.98 c 14.3,-3.83 26.15,-7.14 26.35,-7.35 0.4,-0.43 34.09,-49.02 34.71,-50.06 0.35,-0.59 0.25,-0.58 -0.71,0 -0.61,0.39 -10.96,6.39 -23.01,13.33 l -21.89,12.6 0,11.98 c 0,6.58 -0.15,11.97 -0.34,11.97 -0.18,0 -0.8,0.14 -1.36,0.29 l -1.02,0.27 0,-12.19 0,-12.19 -24.78,-14.29 c -13.62,-7.86 -25.02,-14.35 -25.31,-14.42 -0.29,-0.1 -6.2,6.92 -13.14,15.54 -6.96,8.62 -12.76,15.67 -12.96,15.67 -0.1,0 -2,-1.79 -4.2,-3.97 l -3.9,-3.97 16.05,-12.88 16.07,-12.87 0.12,-30.17 0.12,-30.18 25.97,-15.01 25.97,-15 0,-30.01 0,-30.01 26.46,-15.27 c 14.54,-8.41 26.57,-15.28 26.72,-15.28 0.26,0 48.59,27.77 50.99,29.27 0.87,0.55 2.45,-0.28 18.61,-9.61 9.71,-5.61 17.83,-10.3 18.1,-10.41 0.27,-0.12 0.73,0.3 1.04,0.92 0.55,1.27 3.09,-0.34 -23.18,14.81 l -12.12,7 0,30.01 0,30.01 -26.08,15.07 -26.11,15.07 0.11,29.29 0.12,29.3 25.97,14.99 25.99,15 0,30.66 0,30.67 -26.49,15.29 c -14.59,8.4 -26.78,15.26 -27.12,15.24 -0.34,0 -12.36,-6.85 -26.7,-15.17 z m -26.77,-79.27 c 0,-0.32 -0.92,-9.14 -2.04,-19.63 -1.12,-10.48 -2.05,-19.2 -2.05,-19.39 0,-0.19 2.55,-0.34 5.68,-0.34 l 5.67,0 0,1.47 c 0,0.82 -0.91,9.75 -1.99,19.85 -1.09,10.11 -1.91,18.45 -1.83,18.55 0.1,0.1 11.09,-6.14 24.45,-13.84 l 24.28,-14.01 -0.1,-29.47 -0.11,-29.46 -24.95,-14.44 c -13.73,-7.94 -25.27,-14.35 -25.64,-14.25 -0.37,0.1 -11.8,6.62 -25.4,14.49 l -24.73,14.3 0,29.4 0,29.4 24.04,13.93 c 13.23,7.66 24.2,13.95 24.39,13.97 0.19,0 0.34,-0.22 0.34,-0.53 z m -8.62,-55.24 0,-13.16 1.59,0 1.58,0 0,5.45 0,5.44 6.81,0 6.8,0 0,-5.44 0,-5.45 1.59,0 1.59,0 0,13.16 0,13.16 -1.59,0 -1.59,0 0,-6.13 0,-6.12 -6.8,0 -6.81,0 0,6.12 0,6.13 -1.58,0 -1.59,0 0,-13.16 z m 88.12,-47.96 24.86,-14.33 0,-29.31 0,-29.31 -25.22,-14.52 c -13.93,-7.99 -25.49,-14.46 -25.75,-14.38 -0.25,0.1 -11.66,6.6 -25.34,14.51 l -24.88,14.36 0.11,29.44 0.12,29.44 24.95,14.45 c 13.94,8.06 25.26,14.34 25.63,14.21 0.38,-0.12 11.86,-6.68 25.52,-14.56 z m -48.01,-5.28 c -20.44,-11.82 -21.34,-12.39 -20.91,-13.37 0.26,-0.57 0.72,-0.97 1.04,-0.9 1.24,0.29 42.34,24.21 42.35,24.66 0,0.26 -0.24,0.81 -0.55,1.22 -0.5,0.65 -2.97,-0.66 -21.93,-11.61 z m 63.8,-38.41 0,-24.95 1.36,0 1.36,0 0,24.95 0,24.95 -1.36,0 -1.36,0 0,-24.95 z m -84.59,-24.73 c -0.66,-1.01 -0.63,-1.09 0.78,-1.92 10.57,-6.24 41.17,-23.71 41.52,-23.71 0.63,0 1.18,1.82 0.69,2.24 -0.21,0.18 -4.77,2.86 -10.14,5.94 -5.36,3.08 -14.79,8.5 -20.95,12.06 l -11.21,6.46 -0.69,-1.07 z M -1097,826.09 c -2.8,-1.68 -3.8,-4.62 -1.7,-4.92 0.7,-0.1 1.1,0.24 1.6,1.27 1,2.47 4,3.08 6.1,1.23 2.8,-2.38 0.8,-7 -2.9,-6.57 -1.4,0.16 -1.5,0.11 -1.2,-0.98 0.1,-0.64 0.3,-1.18 0.4,-1.2 0,0 0.7,-0.23 1.7,-0.47 2.1,-0.59 3,-2.46 2,-4.05 -1.4,-2.18 -5,-2.02 -5.8,0.27 -0.6,1.36 -0.9,1.51 -2.2,0.96 -0.7,-0.27 -0.7,-0.47 -0.2,-1.77 0.3,-0.81 1.3,-1.88 2.2,-2.38 4.5,-2.81 10.8,1.59 8.4,6.03 -0.3,0.55 -0.8,1.15 -1.1,1.35 -0.9,0.53 -0.8,1.12 0.3,1.46 1.4,0.45 2.4,2.78 2.1,5.09 -0.5,4.47 -5.8,7.04 -9.7,4.68 z m 20.8,-7.48 c -6.5,-2.13 -9.7,-11.98 -6.4,-19.77 3.5,-8.07 15.8,-9.13 19.9,-1.72 1.3,2.28 1.1,2.77 -0.9,3.24 -1,0.23 -1.3,0 -2,-1.38 -1.9,-3.38 -5.6,-4.6 -9.6,-3.1 -3.5,1.33 -5.1,4.54 -5.1,9.77 0,5.04 1.5,8.12 4.7,9.57 4.5,2.06 9.5,0 10.9,-4.46 0.3,-1.04 1,-1.18 2.9,-0.64 l 1,0.3 -1.5,2.93 c -2,3.93 -4.5,5.51 -8.9,5.75 -1.8,0.1 -3.8,-0.1 -5,-0.49 z m -47.7,-12.96 0,-13.15 1.6,0 1.6,0 0,5.44 0,5.45 6.8,0 6.8,0 0,-5.45 0,-5.44 1.6,0 1.6,0 0,13.15 0,13.16 -1.6,0 -1.6,0 0,-6.12 0,-6.13 -6.8,0 -6.8,0 0,6.13 0,6.12 -1.6,0 -1.6,0 0,-13.16 z m 99.3,-15.42 0,-13.16 1.8,0 1.7,0 6.9,10.32 6.9,10.32 0,-10.32 0,-10.32 1.6,0 1.6,0 0,13.16 0,13.16 -1.7,0 -1.7,0 -6.8,-10.32 -6.9,-10.31 -0.1,10.32 -0.1,10.32 -1.6,0 -1.6,0 0,-13.16 z m -33.3,10.56 c -0.1,-0.63 -0.2,-1.21 -0.1,-1.29 0.1,-0.1 6.6,-1.87 14.4,-3.97 10,-2.69 14.4,-3.68 14.6,-3.32 1.1,1.62 0.4,1.93 -8.4,4.29 -4.8,1.29 -11.3,3.03 -14.5,3.88 l -5.7,1.54 -0.3,-1.13 z m 364.25,-212.44 c -2.77,-1.68 -3.77,-4.62 -1.68,-4.92 0.68,-0.1 1.09,0.24 1.54,1.27 1,2.48 3.99,3.08 6.12,1.23 2.77,-2.38 0.78,-7 -2.85,-6.57 -1.46,0.16 -1.5,0.11 -1.23,-0.98 0.14,-0.64 0.32,-1.18 0.36,-1.2 0,0 0.78,-0.23 1.68,-0.47 2.14,-0.59 3.09,-2.46 2.04,-4.05 -1.4,-2.18 -4.99,-2.02 -5.85,0.27 -0.5,1.36 -0.81,1.51 -2.18,0.96 -0.68,-0.27 -0.68,-0.47 -0.13,-1.77 0.32,-0.8 1.27,-1.88 2.13,-2.38 4.58,-2.81 10.8,1.59 8.44,6.03 -0.27,0.55 -0.77,1.15 -1.13,1.35 -0.87,0.53 -0.78,1.12 0.31,1.46 1.41,0.45 2.41,2.78 2.14,5.09 -0.5,4.47 -5.86,7.04 -9.71,4.68 z m -74.23,-7.47 c -0.95,-0.34 -2.4,-1.07 -3.18,-1.62 -6.21,-4.27 -7.07,-15.9 -1.58,-21.4 2.54,-2.55 4.58,-3.32 8.75,-3.32 4.31,0 6.49,0.95 8.99,3.9 4.35,5.06 4.22,14.44 -0.28,19.29 -3.04,3.31 -8.48,4.66 -12.7,3.15 z m 7.85,-3.55 c 3.54,-1.79 5.26,-5.64 4.81,-10.65 -0.41,-4.48 -2.09,-7.11 -5.4,-8.5 -4.36,-1.82 -9.26,0.16 -11.25,4.52 -1.18,2.49 -1.18,7.94 0,10.49 0.86,1.95 3.36,4.27 5.12,4.77 2.14,0.62 4.72,0.38 6.72,-0.63 z m 19.55,3.54 c -6.53,-2.13 -9.71,-11.98 -6.35,-19.77 3.45,-8.07 15.75,-9.13 19.87,-1.72 1.23,2.28 1.14,2.77 -0.86,3.24 -1,0.23 -1.31,0 -2.04,-1.38 -1.86,-3.38 -5.63,-4.6 -9.57,-3.1 -3.5,1.33 -5.17,4.54 -5.17,9.77 0,5.04 1.49,8.12 4.71,9.58 4.54,2.05 9.53,0 10.89,-4.47 0.32,-1.03 0.96,-1.18 2.91,-0.63 l 1.04,0.29 -1.5,2.93 c -2.04,3.93 -4.49,5.51 -8.89,5.75 -1.86,0.1 -3.81,-0.1 -5.04,-0.49 z m 19.47,-12.96 0,-13.15 1.59,0 1.58,0 0,5.44 0,5.45 6.81,0 6.8,0 0,-5.45 0,-5.44 1.59,0 1.59,0 0,13.15 0,13.16 -1.59,0 -1.59,0 0,-6.12 0,-6.13 -6.8,0 -6.81,0 0,6.13 0,6.12 -1.58,0 -1.59,0 0,-13.16 z"
       id="path2996"
       style="fill:#000" />
  </g>
</svg>
