<?xml version="1.0" encoding="UTF-8" standalone="no"?>
<!-- Generator: Adobe Illustrator 12.0.1, SVG Export Plug-In . SVG Version: 6.00 Build 51448)  -->
<svg
   xmlns:dc="http://purl.org/dc/elements/1.1/"
   xmlns:cc="http://web.resource.org/cc/"
   xmlns:rdf="http://www.w3.org/1999/02/22-rdf-syntax-ns#"
   xmlns:svg="http://www.w3.org/2000/svg"
   xmlns="http://www.w3.org/2000/svg"
   xmlns:sodipodi="http://sodipodi.sourceforge.net/DTD/sodipodi-0.dtd"
   xmlns:inkscape="http://www.inkscape.org/namespaces/inkscape"
   version="1.1"
   id="Layer_1"
   width="221.221"
   height="77.331"
   viewBox="0 0 221.221 77.331"
   style="overflow:visible;enable-background:new 0 0 221.221 77.331;"
   xml:space="preserve"
   sodipodi:version="0.32"
   inkscape:version="0.44.1"
   sodipodi:docname="4-Hydroxybutansäure - 4-Hydroxybutanoic acid.svg"
   sodipodi:docbase="E:\Eigene Dateien"><metadata
   id="metadata38"><rdf:RDF><cc:Work
       rdf:about=""><dc:format>image/svg+xml</dc:format><dc:type
         rdf:resource="http://purl.org/dc/dcmitype/StillImage" fill="#000" /></cc:Work></rdf:RDF></metadata><defs
   id="defs36" fill="#000" /><sodipodi:namedview
   inkscape:window-height="573"
   inkscape:window-width="925"
   inkscape:pageshadow="2"
   inkscape:pageopacity="0.0"
   guidetolerance="10.0"
   gridtolerance="10.0"
   objecttolerance="10.0"
   borderopacity="1.0"
   bordercolor="#000"
   pagecolor="#000"
   id="base"
   inkscape:zoom="3.8016284"
   inkscape:cx="110.6105"
   inkscape:cy="38.665501"
   inkscape:window-x="110"
   inkscape:window-y="110"
   inkscape:current-layer="Layer_1" />
<g
   id="g3"
   transform="matrix(0.95,0,0,0.95,5.530525,1.9333)">
	<g
   id="g5">
		<path
   d="M 0,57.185 L 0,39.997 L 2.281,39.997 L 2.281,47.06 L 11.172,47.06 L 11.172,39.997 L 13.453,39.997 L 13.453,57.185 L 11.172,57.185 L 11.172,49.091 L 2.281,49.091 L 2.281,57.185 L 0,57.185 z "
   id="path7" fill="#000" />
		<path
   d="M 16.551,48.819 C 16.551,45.967 17.317,43.734 18.849,42.12 C 20.381,40.507 22.359,39.7 24.782,39.7 C 26.369,39.7 27.799,40.079 29.073,40.837 C 30.347,41.595 31.318,42.652 31.987,44.008 C 32.655,45.364 32.989,46.902 32.989,48.62 C 32.989,50.362 32.637,51.922 31.934,53.297 C 31.23,54.673 30.234,55.714 28.944,56.421 C 27.654,57.128 26.263,57.482 24.77,57.482 C 23.152,57.482 21.706,57.091 20.432,56.31 C 19.158,55.529 18.193,54.462 17.536,53.11 C 16.879,51.758 16.551,50.327 16.551,48.819 z M 18.895,48.849 C 18.895,50.919 19.452,52.55 20.566,53.742 C 21.68,54.934 23.078,55.529 24.758,55.529 C 26.47,55.529 27.879,54.927 28.986,53.724 C 30.092,52.521 30.645,50.814 30.645,48.603 C 30.645,47.205 30.409,45.984 29.936,44.941 C 29.463,43.898 28.771,43.089 27.86,42.515 C 26.949,41.941 25.927,41.654 24.794,41.654 C 23.184,41.654 21.798,42.207 20.637,43.312 C 19.476,44.417 18.895,46.263 18.895,48.849 z "
   id="path9" fill="#000" />
	</g>
	<polygon
   points="34.063,54.135 34.912,52.635 59.063,66.584 59.063,68.534 34.063,54.135 "
   id="polygon11" fill="#000" />
	<polygon
   points="59.063,68.534 59.063,66.584 93.412,46.734 93.412,48.685 59.063,68.534 "
   id="polygon13" fill="#000" />
	<polygon
   points="93.412,48.685 93.412,46.734 127.763,66.584 127.763,68.534 93.412,48.685 "
   id="polygon15" fill="#000" />
	<polygon
   points="127.763,68.534 127.763,66.584 162.162,46.734 162.162,48.685 127.763,68.534 "
   id="polygon17" fill="#000" />
	<g
   id="g19">
		<path
   d="M 188.318,68.669 C 188.318,65.817 189.084,63.584 190.616,61.97 C 192.148,60.357 194.126,59.55 196.549,59.55 C 198.136,59.55 199.567,59.929 200.84,60.687 C 202.113,61.445 203.085,62.502 203.754,63.858 C 204.422,65.214 204.756,66.752 204.756,68.47 C 204.756,70.212 204.404,71.772 203.701,73.147 C 202.997,74.523 202,75.564 200.711,76.271 C 199.421,76.978 198.029,77.332 196.537,77.332 C 194.919,77.332 193.473,76.941 192.199,76.16 C 190.925,75.379 189.96,74.312 189.303,72.96 C 188.646,71.607 188.318,70.177 188.318,68.669 z M 190.662,68.698 C 190.662,70.768 191.219,72.399 192.333,73.591 C 193.447,74.783 194.845,75.378 196.525,75.378 C 198.237,75.378 199.646,74.776 200.753,73.573 C 201.86,72.37 202.412,70.663 202.412,68.452 C 202.412,67.054 202.176,65.833 201.703,64.79 C 201.229,63.747 200.537,62.938 199.627,62.364 C 198.717,61.79 197.694,61.503 196.561,61.503 C 194.951,61.503 193.565,62.056 192.404,63.161 C 191.243,64.266 190.662,66.112 190.662,68.698 z "
   id="path21" fill="#000" />
		<path
   d="M 207.768,77.034 L 207.768,59.847 L 210.049,59.847 L 210.049,66.91 L 218.94,66.91 L 218.94,59.847 L 221.221,59.847 L 221.221,77.035 L 218.94,77.035 L 218.94,68.94 L 210.049,68.94 L 210.049,77.034 L 207.768,77.034 L 207.768,77.034 z "
   id="path23" fill="#000" />
	</g>
	<polygon
   points="162.162,48.685 162.162,46.734 187.962,61.635 187.112,63.084 162.162,48.685 "
   id="polygon25" fill="#000" />
	<g
   id="g27">
		<path
   d="M 153.918,9.119 C 153.918,6.267 154.684,4.034 156.217,2.42 C 157.748,0.807 159.727,0 162.149,0 C 163.737,0 165.167,0.379 166.44,1.137 C 167.714,1.895 168.686,2.952 169.354,4.308 C 170.022,5.664 170.356,7.202 170.356,8.92 C 170.356,10.662 170.004,12.222 169.301,13.597 C 168.598,14.973 167.601,16.014 166.311,16.721 C 165.022,17.428 163.63,17.782 162.137,17.782 C 160.52,17.782 159.073,17.391 157.799,16.61 C 156.525,15.829 155.561,14.762 154.903,13.41 C 154.246,12.058 153.918,10.627 153.918,9.119 z M 156.262,9.148 C 156.262,11.218 156.819,12.849 157.934,14.041 C 159.047,15.232 160.446,15.828 162.125,15.828 C 163.838,15.828 165.246,15.226 166.354,14.023 C 167.459,12.82 168.012,11.113 168.012,8.902 C 168.012,7.504 167.776,6.283 167.303,5.24 C 166.83,4.197 166.138,3.388 165.227,2.814 C 164.317,2.24 163.295,1.953 162.161,1.953 C 160.552,1.953 159.165,2.506 158.005,3.611 C 156.842,4.717 156.262,6.563 156.262,9.148 z "
   id="path29" fill="#000" />
	</g>
	<rect
   x="158.313"
   y="20.034"
   width="1.7"
   height="29.4"
   id="rect31" fill="#000" />
	<rect
   x="164.263"
   y="20.034"
   width="1.699"
   height="29.4"
   id="rect33" fill="#000" />
</g>
</svg>