<?xml version="1.0" encoding="UTF-8" standalone="no"?>
<!-- Generator: Adobe Illustrator 12.0.1, SVG Export Plug-In . SVG Version: 6.00 Build 51448)  -->
<svg
   xmlns:dc="http://purl.org/dc/elements/1.1/"
   xmlns:cc="http://web.resource.org/cc/"
   xmlns:rdf="http://www.w3.org/1999/02/22-rdf-syntax-ns#"
   xmlns:svg="http://www.w3.org/2000/svg"
   xmlns="http://www.w3.org/2000/svg"
   xmlns:sodipodi="http://sodipodi.sourceforge.net/DTD/sodipodi-0.dtd"
   xmlns:inkscape="http://www.inkscape.org/namespaces/inkscape"
   version="1.1"
   id="Layer_1"
   width="332.46"
   height="220.603"
   viewBox="0 0 332.46 220.603"
   style="overflow:visible;enable-background:new 0 0 332.46 220.603;"
   xml:space="preserve"
   sodipodi:version="0.32"
   inkscape:version="0.45.1"
   sodipodi:docname="Heroin.svg"
   inkscape:output_extension="org.inkscape.output.svg.inkscape"
   sodipodi:docbase="C:\"><metadata
   id="metadata162"><rdf:RDF><cc:Work
       rdf:about=""><dc:format>image/svg+xml</dc:format><dc:type
         rdf:resource="http://purl.org/dc/dcmitype/StillImage" /></cc:Work></rdf:RDF></metadata><defs
   id="defs160" /><sodipodi:namedview
   inkscape:window-height="579"
   inkscape:window-width="801"
   inkscape:pageshadow="2"
   inkscape:pageopacity="0.0"
   guidetolerance="10.0"
   gridtolerance="10.0"
   objecttolerance="10.0"
   borderopacity="1.0"
   bordercolor="#000"
   pagecolor="#000"
   id="base"
   inkscape:zoom="1.7134853"
   inkscape:cx="166.23"
   inkscape:cy="110.3015"
   inkscape:window-x="242"
   inkscape:window-y="242"
   inkscape:current-layer="Layer_1" />
<path
   style="fill:#000"
   d="M 139.30513,69.19835 L 138.49668,69.67335 L 137.69012,69.4824 L 137.69012,32.4324 L 138.49668,31.9574 L 139.30513,32.4324 L 139.30513,69.19835 z "
   id="polygon3" />
<path
   style="fill:#000"
   d="M 143.34263,35.23585 L 144.95762,35.23585 L 144.95762,66.3949 L 143.34263,66.3949 L 143.34263,35.23585 z "
   id="rect5" />
<path
   style="fill:#000"
   d="M 171.13012,87.58085 L 171.13012,88.53085 L 170.32168,89.00585 L 138.83013,70.8124 L 138.49668,69.67335 L 139.30513,69.19835 L 171.13012,87.58085 z "
   id="polygon7" />
<path
   style="fill:#000"
   d="M 203.00262,69.19835 L 203.80918,69.67335 L 203.80918,70.62335 L 171.98417,89.00585 L 171.13012,88.53085 L 171.13012,87.58085 L 203.00262,69.19835 z "
   id="polygon9" />
<path
   style="fill:#000"
   d="M 197.73012,65.73085 L 198.53667,67.1074 L 171.55762,82.6874 L 170.74917,81.31085 L 197.73012,65.73085 z "
   id="polygon11" />
<path
   style="fill:#000"
   d="M 203.00262,32.4324 L 204.61763,31.53085 L 204.61763,69.19835 L 203.80918,69.67335 L 203.00262,69.19835 L 203.00262,32.4324 z "
   id="polygon13" />
<path
   style="fill:#000"
   d="M 171.13012,14.0499 L 171.13012,12.19835 L 204.61763,31.53085 L 203.00262,32.4324 L 171.13012,14.0499 z "
   id="polygon15" />
<path
   style="fill:#000"
   d="M 170.74917,20.36835 L 171.55762,18.94335 L 198.53667,34.52335 L 197.73012,35.94835 L 170.74917,20.36835 z "
   id="polygon17" />
<path
   style="fill:#000"
   d="M 139.30513,32.4324 L 138.49668,31.9574 L 138.49668,31.05585 L 171.13012,12.19835 L 171.13012,14.0499 L 139.30513,32.4324 z "
   id="polygon19" />
<path
   style="fill:#000"
   d="M 171.98417,125.7699 L 171.13012,126.2449 L 170.32168,125.7699 L 170.32168,89.00585 L 171.13012,88.53085 L 171.98417,89.00585 L 171.98417,125.7699 z "
   id="polygon21" />
<path
   style="fill:#000"
   d="M 202.86013,143.5824 L 203.80918,145.1024 L 203.00262,145.53085 L 173.79012,128.7149 L 171.13012,126.2449 L 171.98417,125.7699 L 202.86013,143.5824 z "
   id="polygon23" />
<path
   style="fill:#000"
   d="M 235.63512,125.7699 L 236.44262,126.2449 L 236.06167,127.38585 L 204.61763,145.53085 L 203.80918,145.1024 L 204.75918,143.5824 L 235.63512,125.7699 z "
   id="polygon25" />
<path
   style="fill:#000"
   d="M 235.63512,89.00585 L 237.24917,88.05585 L 237.24917,125.96085 L 236.44262,126.2449 L 235.63512,125.7699 L 235.63512,89.00585 z "
   id="polygon27" />
<path
   style="fill:#000"
   d="M 203.80918,70.62335 L 203.80918,69.67335 L 204.61763,69.19835 L 237.24917,88.05585 L 235.63512,89.00585 L 203.80918,70.62335 z "
   id="polygon29" />
<path
   style="fill:#000"
   d="M 139.30513,145.53085 L 138.49668,145.1024 L 138.83013,143.9624 L 170.32168,125.7699 L 171.13012,126.2449 L 170.79763,127.38585 L 139.30513,145.53085 z "
   id="polygon31" />
<path
   style="fill:#000"
   d="M 139.30513,182.2949 L 137.69012,183.2449 L 137.69012,145.9574 L 138.49668,145.1024 L 139.30513,145.53085 L 139.30513,182.2949 z "
   id="polygon33" />
<path
   style="fill:#000"
   d="M 171.13012,200.6774 L 171.13012,202.5774 L 137.69012,183.2449 L 139.30513,182.2949 L 171.13012,200.6774 z "
   id="polygon35" />
<path
   style="fill:#000"
   d="M 203.00262,182.2949 L 204.61763,183.2449 L 171.13012,202.5774 L 171.13012,200.6774 L 203.00262,182.2949 z "
   id="polygon37" />
<path
   style="fill:#000"
   d="M 197.73012,178.8274 L 198.53667,180.20585 L 171.55762,195.78585 L 170.74917,194.4074 L 197.73012,178.8274 z "
   id="polygon39" />
<path
   style="fill:#000"
   d="M 203.00262,145.53085 L 203.80918,145.1024 L 204.61763,145.53085 L 204.61763,162.0124 L 203.00262,161.11085 L 203.00262,145.53085 z "
   id="polygon41" />
<path
   style="fill:#000"
   d="M 204.61763,183.2449 L 203.00262,182.2949 L 203.00262,171.65585 L 204.61763,172.60585 L 204.61763,183.2449 z "
   id="polygon43" />
<path
   style="fill:#000"
   d="M 124.77012,99.2649 L 123.34512,98.5524 L 137.69012,69.4824 L 138.49668,69.67335 L 138.83013,70.8124 L 124.77012,99.2649 z "
   id="polygon45" />
<g
   id="g47"
   transform="matrix(0.95,0,0,0.95,8.311525,5.5151)">
	<path
   style="fill:#000"
   d="M 108.994,108.769 C 108.994,105.916 109.76,103.684 111.292,102.071 C 112.824,100.457 114.802,99.65 117.225,99.65 C 118.812,99.65 120.242,100.029 121.516,100.787 C 122.79,101.546 123.761,102.602 124.43,103.958 C 125.099,105.314 125.432,106.852 125.432,108.57 C 125.432,110.313 125.08,111.872 124.377,113.247 C 123.674,114.622 122.677,115.664 121.387,116.371 C 120.097,117.078 118.706,117.432 117.213,117.432 C 115.595,117.432 114.149,117.041 112.875,116.26 C 111.601,115.479 110.636,114.411 109.979,113.06 C 109.322,111.709 108.994,110.277 108.994,108.769 z M 111.337,108.798 C 111.337,110.868 111.894,112.499 113.008,113.691 C 114.122,114.883 115.52,115.478 117.2,115.478 C 118.912,115.478 120.321,114.876 121.428,113.673 C 122.534,112.47 123.087,110.763 123.087,108.552 C 123.087,107.154 122.851,105.933 122.378,104.89 C 121.905,103.847 121.213,103.038 120.302,102.464 C 119.391,101.89 118.369,101.603 117.236,101.603 C 115.626,101.603 114.24,102.156 113.079,103.261 C 111.918,104.366 111.337,106.212 111.337,108.798 z "
   id="path49" />
</g>
<path
   style="fill:#000"
   d="M 124.05762,118.3124 L 125.48262,117.5999 L 138.83013,143.9624 L 138.49668,145.1024 L 137.12013,144.1524 L 124.05762,118.3124 z "
   id="polygon51" />
<g
   id="g53"
   transform="matrix(0.95,0,0,0.95,8.311525,5.5151)">
	<path
   style="fill:#000"
   d="M 94.494,9.119 C 94.494,6.266 95.26,4.034 96.792,2.421 C 98.324,0.807 100.301,0 102.724,0 C 104.311,0 105.741,0.379 107.015,1.137 C 108.289,1.896 109.26,2.952 109.929,4.308 C 110.598,5.664 110.931,7.202 110.931,8.92 C 110.931,10.663 110.579,12.222 109.876,13.597 C 109.173,14.972 108.176,16.014 106.886,16.721 C 105.596,17.428 104.205,17.782 102.712,17.782 C 101.094,17.782 99.648,17.391 98.374,16.61 C 97.1,15.829 96.135,14.761 95.478,13.41 C 94.821,12.059 94.494,10.628 94.494,9.119 z M 96.837,9.148 C 96.837,11.218 97.394,12.849 98.508,14.041 C 99.622,15.233 101.02,15.828 102.7,15.828 C 104.412,15.828 105.821,15.226 106.928,14.023 C 108.034,12.82 108.587,11.113 108.587,8.902 C 108.587,7.504 108.351,6.283 107.878,5.24 C 107.405,4.197 106.713,3.388 105.802,2.814 C 104.891,2.24 103.869,1.953 102.736,1.953 C 101.126,1.953 99.74,2.506 98.579,3.611 C 97.418,4.716 96.837,6.563 96.837,9.148 z "
   id="path55" />
</g>
<path
   style="fill:#000"
   d="M 114.79512,19.2274 L 115.60263,17.8024 L 138.49668,31.05585 L 138.49668,31.9574 L 137.69012,32.4324 L 114.79512,19.2274 z "
   id="polygon57" />
<g
   id="g59"
   transform="matrix(0.95,0,0,0.95,8.311525,5.5151)">
	<path
   style="fill:#000"
   d="M 94.494,207.519 C 94.494,204.666 95.26,202.434 96.792,200.821 C 98.324,199.207 100.302,198.4 102.725,198.4 C 104.312,198.4 105.742,198.779 107.016,199.537 C 108.29,200.296 109.261,201.352 109.93,202.708 C 110.599,204.064 110.932,205.602 110.932,207.32 C 110.932,209.063 110.58,210.622 109.877,211.997 C 109.174,213.372 108.177,214.414 106.887,215.121 C 105.597,215.828 104.206,216.182 102.713,216.182 C 101.095,216.182 99.649,215.791 98.375,215.01 C 97.101,214.229 96.136,213.161 95.479,211.81 C 94.822,210.459 94.494,209.027 94.494,207.519 z M 96.837,207.548 C 96.837,209.618 97.394,211.249 98.508,212.441 C 99.622,213.633 101.02,214.228 102.7,214.228 C 104.412,214.228 105.821,213.626 106.928,212.423 C 108.034,211.22 108.587,209.513 108.587,207.302 C 108.587,205.904 108.351,204.683 107.878,203.64 C 107.405,202.597 106.713,201.788 105.802,201.214 C 104.891,200.64 103.869,200.353 102.736,200.353 C 101.126,200.353 99.74,200.906 98.579,202.011 C 97.418,203.116 96.837,204.962 96.837,207.548 z "
   id="path61" />
</g>
<path
   style="fill:#000"
   d="M 116.31512,199.7749 L 112.65763,193.50585 L 114.17762,192.8399 L 117.59668,198.8249 L 116.31512,199.7749 z "
   id="polygon63" />
<path
   style="fill:#000"
   d="M 119.87762,197.1149 L 116.74263,191.74835 L 118.26167,191.0824 L 121.15918,196.1649 L 119.87762,197.1149 z "
   id="polygon65" />
<path
   style="fill:#000"
   d="M 123.44012,194.45585 L 120.82763,189.9899 L 122.34762,189.37335 L 124.72168,193.50585 L 123.44012,194.45585 z "
   id="polygon67" />
<path
   style="fill:#000"
   d="M 127.00262,191.7949 L 124.91167,188.2324 L 126.43262,187.6149 L 128.28418,190.8449 L 127.00262,191.7949 z "
   id="polygon69" />
<path
   style="fill:#000"
   d="M 130.56512,189.13585 L 128.99668,186.4749 L 130.51763,185.8574 L 131.84668,188.18585 L 130.56512,189.13585 z "
   id="polygon71" />
<path
   style="fill:#000"
   d="M 134.08013,186.4749 L 133.08262,184.7649 L 134.60262,184.0999 L 135.40918,185.5249 L 134.08013,186.4749 z "
   id="polygon73" />
<path
   style="fill:#000"
   d="M 194.07168,158.4499 L 186.28263,159.54335 L 170.79763,127.38585 L 171.13012,126.2449 L 173.79012,128.7149 L 194.07168,158.4499 z "
   id="polygon75" />
<g
   id="g77"
   transform="matrix(0.95,0,0,0.95,8.311525,5.5151)">
	<path
   style="fill:#000"
   d="M 253.216,170.884 L 253.216,153.696 L 255.556,153.696 L 264.56,167.185 L 264.56,153.696 L 266.748,153.696 L 266.748,170.884 L 264.408,170.884 L 255.404,157.395 L 255.404,170.884 L 253.216,170.884 z "
   id="path79" />
</g>
<path
   style="fill:#000"
   d="M 252.54513,146.86085 L 246.27417,150.51835 L 236.06167,127.38585 L 236.44262,126.2449 L 237.24917,125.96085 L 252.54513,146.86085 z "
   id="polygon81" />
<path
   style="fill:#000"
   d="M 222.66762,180.5374 L 222.66762,174.9324 L 243.47262,162.9149 L 245.89512,167.0949 L 222.66762,180.5374 z "
   id="polygon83" />
<path
   style="fill:#000"
   d="M 222.66762,174.9324 L 222.66762,180.5374 L 186.28263,159.54335 L 194.07168,158.4499 L 222.66762,174.9324 z "
   id="polygon85" />
<g
   id="g87"
   transform="matrix(0.95,0,0,0.95,8.311525,5.5151)">
	<path
   style="fill:#000"
   d="M 199.075,116.684 L 199.075,99.496 L 201.356,99.496 L 201.356,106.559 L 210.247,106.559 L 210.247,99.496 L 212.528,99.496 L 212.528,116.684 L 210.247,116.684 L 210.247,108.59 L 201.356,108.59 L 201.356,116.684 L 199.075,116.684 z "
   id="path89" />
</g>
<path
   style="fill:#000"
   d="M 200.15262,118.5024 L 207.42012,118.5024 L 204.75918,143.5824 L 203.80918,145.1024 L 202.86013,143.5824 L 200.15262,118.5024 z "
   id="polygon91" />
<g
   id="g93"
   transform="matrix(0.95,0,0,0.95,8.311525,5.5151)">
	<path
   style="fill:#000"
   d="M 303.781,175.106 L 306.062,175.68 C 305.586,177.55 304.729,178.976 303.493,179.957 C 302.256,180.938 300.743,181.43 298.956,181.43 C 297.106,181.43 295.602,181.053 294.443,180.298 C 293.284,179.544 292.402,178.45 291.797,177.02 C 291.192,175.589 290.89,174.052 290.89,172.411 C 290.89,170.621 291.231,169.058 291.914,167.725 C 292.596,166.392 293.567,165.378 294.828,164.687 C 296.088,163.996 297.474,163.649 298.988,163.649 C 300.705,163.649 302.148,164.087 303.318,164.963 C 304.489,165.84 305.304,167.071 305.764,168.66 L 303.53,169.187 C 303.133,167.937 302.554,167.027 301.799,166.457 C 301.042,165.887 300.09,165.602 298.944,165.602 C 297.626,165.602 296.524,165.918 295.638,166.551 C 294.752,167.184 294.131,168.033 293.772,169.1 C 293.413,170.167 293.234,171.266 293.234,172.399 C 293.234,173.86 293.446,175.135 293.872,176.225 C 294.296,177.315 294.957,178.129 295.853,178.668 C 296.749,179.207 297.72,179.477 298.764,179.477 C 300.035,179.477 301.111,179.11 301.992,178.375 C 302.873,177.64 303.47,176.552 303.781,175.106 z "
   id="path95" />
	<path
   style="fill:#000"
   d="M 308.957,181.134 L 308.957,163.946 L 311.238,163.946 L 311.238,171.009 L 320.129,171.009 L 320.129,163.946 L 322.41,163.946 L 322.41,181.134 L 320.129,181.134 L 320.129,173.04 L 311.238,173.04 L 311.238,181.134 L 308.957,181.134 z "
   id="path97" />
</g>
<g
   id="g99"
   transform="matrix(0.95,0,0,0.95,8.311525,5.5151)">
	<path
   style="fill:#000"
   d="M 324.007,182.228 L 325.585,182.009 C 325.769,182.905 326.077,183.551 326.513,183.947 C 326.951,184.342 327.486,184.54 328.12,184.54 C 328.874,184.54 329.507,184.282 330.019,183.768 C 330.532,183.252 330.788,182.614 330.788,181.852 C 330.788,181.126 330.55,180.528 330.073,180.056 C 329.596,179.584 328.989,179.349 328.253,179.349 C 327.952,179.349 327.579,179.408 327.132,179.525 L 327.308,178.134 C 327.414,178.146 327.499,178.152 327.564,178.152 C 328.239,178.152 328.845,177.977 329.386,177.626 C 329.925,177.275 330.195,176.734 330.195,176.003 C 330.195,175.424 329.998,174.944 329.605,174.565 C 329.21,174.185 328.703,173.995 328.08,173.995 C 327.463,173.995 326.947,174.189 326.536,174.577 C 326.125,174.965 325.859,175.547 325.742,176.323 L 324.164,176.042 C 324.357,174.98 324.799,174.157 325.484,173.574 C 326.171,172.99 327.024,172.698 328.045,172.698 C 328.75,172.698 329.399,172.848 329.99,173.15 C 330.582,173.451 331.035,173.862 331.349,174.382 C 331.663,174.902 331.82,175.455 331.82,176.04 C 331.82,176.596 331.672,177.102 331.373,177.558 C 331.074,178.014 330.631,178.376 330.045,178.646 C 330.807,178.822 331.4,179.187 331.824,179.74 C 332.249,180.295 332.461,180.987 332.461,181.819 C 332.461,182.945 332.051,183.898 331.229,184.68 C 330.407,185.462 329.368,185.854 328.112,185.854 C 326.979,185.854 326.038,185.517 325.29,184.845 C 324.54,184.17 324.112,183.299 324.007,182.228 z "
   id="path101" />
</g>
<path
   style="fill:#000"
   d="M 282.99262,165.48085 L 282.56512,166.9999 L 264.37262,162.15585 L 264.79917,160.5874 L 282.99262,165.48085 z "
   id="polygon103" />
<g
   id="g105"
   transform="matrix(0.95,0,0,0.95,8.311525,5.5151)">
	<path
   style="fill:#000"
   d="M 90.675,156.384 L 90.675,139.196 L 92.956,139.196 L 92.956,146.259 L 101.847,146.259 L 101.847,139.196 L 104.128,139.196 L 104.128,156.384 L 101.847,156.384 L 101.847,148.29 L 92.956,148.29 L 92.956,156.384 L 90.675,156.384 z "
   id="path107" />
</g>
<path
   style="fill:#000"
   d="M 109.42762,148.7124 L 109.42762,141.4449 L 137.12013,144.1524 L 138.49668,145.1024 L 137.69012,145.9574 L 109.42762,148.7124 z "
   id="polygon109" />
<path
   style="fill:#000"
   d="M 73.280125,32.9074 L 73.280125,31.05585 L 96.221675,17.8024 L 97.030125,19.18085 L 73.280125,32.9074 z "
   id="polygon111" />
<g
   id="g113"
   transform="matrix(0.95,0,0,0.95,8.311525,5.5151)">
	<path
   style="fill:#000"
   d="M 0,17.484 L 0,0.297 L 2.281,0.297 L 2.281,7.36 L 11.172,7.36 L 11.172,0.297 L 13.453,0.297 L 13.453,17.485 L 11.172,17.485 L 11.172,9.391 L 2.281,9.391 L 2.281,17.485 L 0,17.485 L 0,17.484 z "
   id="path115" />
</g>
<g
   id="g117"
   transform="matrix(0.95,0,0,0.95,8.311525,5.5151)">
	<path
   style="fill:#000"
   d="M 15.461,18.578 L 17.039,18.359 C 17.222,19.255 17.531,19.901 17.967,20.297 C 18.404,20.692 18.939,20.89 19.574,20.89 C 20.327,20.89 20.96,20.632 21.473,20.118 C 21.986,19.602 22.242,18.964 22.242,18.202 C 22.242,17.476 22.004,16.878 21.526,16.406 C 21.049,15.934 20.443,15.699 19.707,15.699 C 19.406,15.699 19.032,15.758 18.585,15.875 L 18.762,14.484 C 18.868,14.496 18.953,14.502 19.018,14.502 C 19.692,14.502 20.299,14.327 20.839,13.976 C 21.379,13.625 21.649,13.084 21.649,12.353 C 21.649,11.774 21.452,11.294 21.058,10.915 C 20.664,10.535 20.156,10.345 19.533,10.345 C 18.916,10.345 18.401,10.539 17.99,10.927 C 17.579,11.315 17.314,11.897 17.197,12.673 L 15.619,12.392 C 15.812,11.33 16.253,10.507 16.939,9.924 C 17.625,9.34 18.479,9.048 19.5,9.048 C 20.204,9.048 20.853,9.198 21.445,9.5 C 22.037,9.801 22.49,10.212 22.805,10.732 C 23.118,11.253 23.276,11.805 23.276,12.39 C 23.276,12.946 23.127,13.452 22.828,13.908 C 22.529,14.364 22.087,14.726 21.501,14.996 C 22.263,15.172 22.855,15.537 23.28,16.09 C 23.704,16.645 23.917,17.337 23.917,18.169 C 23.917,19.295 23.506,20.248 22.684,21.03 C 21.862,21.812 20.823,22.204 19.567,22.204 C 18.434,22.204 17.493,21.867 16.745,21.195 C 15.994,20.521 15.567,19.649 15.461,18.578 z "
   id="path119" />
</g>
<g
   id="g121"
   transform="matrix(0.95,0,0,0.95,8.311525,5.5151)">
	<path
   style="fill:#000"
   d="M 39.039,11.457 L 41.32,12.031 C 40.844,13.901 39.987,15.327 38.751,16.308 C 37.514,17.289 36.001,17.781 34.214,17.781 C 32.364,17.781 30.86,17.404 29.701,16.649 C 28.542,15.895 27.66,14.801 27.055,13.371 C 26.45,11.94 26.148,10.403 26.148,8.762 C 26.148,6.972 26.489,5.409 27.172,4.076 C 27.855,2.743 28.826,1.729 30.087,1.038 C 31.347,0.347 32.733,0 34.247,0 C 35.964,0 37.407,0.438 38.577,1.314 C 39.748,2.191 40.563,3.422 41.023,5.011 L 38.789,5.538 C 38.391,4.288 37.814,3.378 37.058,2.808 C 36.301,2.238 35.349,1.953 34.203,1.953 C 32.885,1.953 31.783,2.269 30.897,2.902 C 30.012,3.535 29.39,4.384 29.031,5.451 C 28.672,6.518 28.493,7.617 28.493,8.75 C 28.493,10.211 28.705,11.486 29.13,12.576 C 29.555,13.666 30.215,14.48 31.112,15.019 C 32.009,15.558 32.979,15.828 34.024,15.828 C 35.295,15.828 36.37,15.461 37.251,14.726 C 38.132,13.991 38.727,12.902 39.039,11.457 z "
   id="path123" />
</g>
<path
   style="fill:#000"
   d="M 49.530125,19.2274 L 50.336675,17.8024 L 73.280125,31.05585 L 73.280125,32.9074 L 49.530125,19.2274 z "
   id="polygon125" />
<g
   id="g127"
   transform="matrix(0.95,0,0,0.95,8.311525,5.5151)">
	<path
   style="fill:#000"
   d="M 60.144,68.568 C 60.144,65.715 60.91,63.483 62.442,61.87 C 63.974,60.256 65.952,59.449 68.375,59.449 C 69.962,59.449 71.392,59.828 72.666,60.586 C 73.94,61.345 74.911,62.401 75.58,63.757 C 76.249,65.113 76.582,66.651 76.582,68.369 C 76.582,70.112 76.23,71.671 75.527,73.046 C 74.824,74.421 73.827,75.463 72.537,76.17 C 71.247,76.877 69.856,77.231 68.363,77.231 C 66.745,77.231 65.299,76.84 64.025,76.059 C 62.751,75.278 61.786,74.21 61.129,72.859 C 60.472,71.508 60.144,70.077 60.144,68.568 z M 62.488,68.598 C 62.488,70.668 63.045,72.299 64.159,73.491 C 65.273,74.683 66.671,75.278 68.351,75.278 C 70.063,75.278 71.472,74.676 72.579,73.473 C 73.685,72.27 74.238,70.563 74.238,68.352 C 74.238,66.954 74.002,65.733 73.529,64.69 C 73.056,63.647 72.364,62.838 71.453,62.264 C 70.542,61.69 69.52,61.403 68.387,61.403 C 66.777,61.403 65.391,61.956 64.23,63.061 C 63.069,64.166 62.488,66.012 62.488,68.598 z "
   id="path129" />
</g>
<path
   style="fill:#000"
   d="M 75.274175,30.34335 L 76.889175,30.34335 L 76.889175,59.8399 L 75.274175,59.8399 L 75.274175,30.34335 z "
   id="rect131" />
<path
   style="fill:#000"
   d="M 69.622627,30.34335 L 71.236677,30.34335 L 71.236677,59.8399 L 69.622627,59.8399 L 69.622627,30.34335 z "
   id="rect133" />
<path
   style="fill:#000"
   d="M 73.280125,183.7199 L 73.280125,181.86835 L 97.695125,195.9274 L 96.886675,197.3524 L 73.280125,183.7199 z "
   id="polygon135" />
<g
   id="g137"
   transform="matrix(0.95,0,0,0.95,8.311525,5.5151)">
	<path
   style="fill:#000"
   d="M 0,215.884 L 0,198.696 L 2.281,198.696 L 2.281,205.759 L 11.172,205.759 L 11.172,198.696 L 13.453,198.696 L 13.453,215.884 L 11.172,215.884 L 11.172,207.79 L 2.281,207.79 L 2.281,215.884 L 0,215.884 z "
   id="path139" />
</g>
<g
   id="g141"
   transform="matrix(0.95,0,0,0.95,8.311525,5.5151)">
	<path
   style="fill:#000"
   d="M 15.461,216.978 L 17.039,216.759 C 17.222,217.655 17.531,218.301 17.967,218.697 C 18.404,219.092 18.939,219.29 19.574,219.29 C 20.327,219.29 20.96,219.032 21.473,218.518 C 21.986,218.002 22.242,217.364 22.242,216.602 C 22.242,215.876 22.004,215.278 21.526,214.806 C 21.049,214.334 20.443,214.099 19.707,214.099 C 19.406,214.099 19.032,214.158 18.585,214.275 L 18.762,212.884 C 18.868,212.896 18.953,212.902 19.018,212.902 C 19.692,212.902 20.299,212.727 20.839,212.376 C 21.379,212.025 21.649,211.484 21.649,210.753 C 21.649,210.174 21.452,209.694 21.058,209.315 C 20.664,208.935 20.156,208.745 19.533,208.745 C 18.916,208.745 18.401,208.939 17.99,209.327 C 17.579,209.715 17.314,210.297 17.197,211.073 L 15.619,210.792 C 15.812,209.73 16.253,208.907 16.939,208.324 C 17.625,207.74 18.479,207.448 19.5,207.448 C 20.204,207.448 20.853,207.598 21.445,207.9 C 22.037,208.201 22.49,208.612 22.805,209.132 C 23.118,209.653 23.276,210.205 23.276,210.79 C 23.276,211.346 23.127,211.852 22.828,212.308 C 22.529,212.764 22.087,213.126 21.501,213.396 C 22.263,213.572 22.855,213.937 23.28,214.49 C 23.704,215.045 23.917,215.737 23.917,216.569 C 23.917,217.695 23.506,218.648 22.684,219.43 C 21.862,220.212 20.823,220.604 19.567,220.604 C 18.434,220.604 17.493,220.267 16.745,219.595 C 15.994,218.92 15.567,218.049 15.461,216.978 z "
   id="path143" />
</g>
<g
   id="g145"
   transform="matrix(0.95,0,0,0.95,8.311525,5.5151)">
	<path
   style="fill:#000"
   d="M 39.039,209.856 L 41.32,210.43 C 40.844,212.3 39.987,213.726 38.751,214.707 C 37.514,215.688 36.001,216.18 34.214,216.18 C 32.364,216.18 30.86,215.803 29.701,215.048 C 28.542,214.294 27.66,213.2 27.055,211.77 C 26.45,210.339 26.148,208.802 26.148,207.161 C 26.148,205.371 26.489,203.808 27.172,202.475 C 27.855,201.142 28.826,200.128 30.087,199.437 C 31.347,198.746 32.733,198.399 34.247,198.399 C 35.964,198.399 37.407,198.837 38.577,199.713 C 39.748,200.59 40.563,201.821 41.023,203.41 L 38.789,203.937 C 38.391,202.687 37.814,201.777 37.058,201.207 C 36.301,200.637 35.349,200.352 34.203,200.352 C 32.885,200.352 31.783,200.668 30.897,201.301 C 30.012,201.934 29.39,202.783 29.031,203.85 C 28.672,204.917 28.493,206.016 28.493,207.149 C 28.493,208.61 28.705,209.885 29.13,210.975 C 29.555,212.065 30.215,212.879 31.112,213.418 C 32.009,213.957 32.979,214.227 34.024,214.227 C 35.295,214.227 36.37,213.86 37.251,213.125 C 38.132,212.39 38.727,211.302 39.039,209.856 z "
   id="path147" />
</g>
<path
   style="fill:#000"
   d="M 49.672625,197.3524 L 48.865125,195.9274 L 73.280125,181.86835 L 73.280125,183.7199 L 49.672625,197.3524 z "
   id="polygon149" />
<g
   id="g151"
   transform="matrix(0.95,0,0,0.95,8.311525,5.5151)">
	<path
   style="fill:#000"
   d="M 60.144,148.019 C 60.144,145.166 60.91,142.934 62.442,141.321 C 63.974,139.707 65.952,138.9 68.375,138.9 C 69.962,138.9 71.392,139.279 72.666,140.037 C 73.94,140.796 74.911,141.852 75.58,143.208 C 76.249,144.564 76.582,146.102 76.582,147.82 C 76.582,149.563 76.23,151.122 75.527,152.497 C 74.824,153.872 73.827,154.914 72.537,155.621 C 71.247,156.328 69.856,156.682 68.363,156.682 C 66.745,156.682 65.299,156.291 64.025,155.51 C 62.751,154.729 61.786,153.661 61.129,152.31 C 60.472,150.959 60.144,149.527 60.144,148.019 z M 62.488,148.048 C 62.488,150.118 63.045,151.749 64.159,152.941 C 65.273,154.133 66.671,154.728 68.351,154.728 C 70.063,154.728 71.472,154.126 72.579,152.923 C 73.685,151.72 74.238,150.013 74.238,147.802 C 74.238,146.404 74.002,145.183 73.529,144.14 C 73.056,143.097 72.364,142.288 71.453,141.714 C 70.542,141.14 69.52,140.853 68.387,140.853 C 66.777,140.853 65.391,141.406 64.23,142.511 C 63.069,143.616 62.488,145.462 62.488,148.048 z "
   id="path153" />
</g>
<path
   style="fill:#000"
   d="M 69.622627,156.54989 L 71.236677,156.54989 L 71.236677,184.43239 L 69.622627,184.43239 L 69.622627,156.54989 z "
   id="rect155" />
<path
   style="fill:#000"
   d="M 75.274175,156.54989 L 76.889175,156.54989 L 76.889175,184.43239 L 75.274175,184.43239 L 75.274175,156.54989 z "
   id="rect157" />
</svg>