<?xml version="1.0" encoding="utf-8"?>
<!-- Generator: Adobe Illustrator 18.0.0, SVG Export Plug-In . SVG Version: 6.00 Build 0)  -->
<!DOCTYPE svg PUBLIC "-//W3C//DTD SVG 1.1//EN" "http://www.w3.org/Graphics/SVG/1.1/DTD/svg11.dtd">
<svg version="1.1" id="svg2" xmlns:svg="http://www.w3.org/2000/svg"
	 xmlns="http://www.w3.org/2000/svg" xmlns:xlink="http://www.w3.org/1999/xlink" x="0px" y="0px" viewBox="0 0 1387 665.8"
	 enable-background="new 0 0 1387 665.8" xml:space="preserve">
<g id="レイヤー_1" transform="translate(50,37.052)">
	<g id="g7">
		<text transform="matrix(1 0 0 1 510.4985 490.8003)" fill="#000" font-size="100">N</text>
		<text transform="matrix(1 0 0 1 510.4985 574.2153)" fill="#000" font-size="100">H</text>
		<polygon id="polygon17" fill="#000" points="477,234.3 474.5,230.3 476,226.3 616,226.3 618.5,230.3 615.5,234.3 		"/>
		<polygon id="polygon19" fill="#000" points="434.5,365.8 430,367.3 427,363.8 470,231.3 474.5,230.3 477,234.3 		"/>
		
			<rect id="rect21" x="423.6" y="233.7" transform="matrix(-0.9487 -0.3162 0.3162 -0.9487 741.1489 701.8378)" fill="#000" width="7.9" height="114.2"/>
		<polygon id="polygon23" fill="#000" points="502,415.3 497.5,421.3 429,371.8 430,367.3 434.5,365.8 		"/>
		<polygon id="polygon25" fill="#000" points="658,365.8 663,367.3 663.5,371.8 595,421.8 590,415.3 		"/>
		<polygon id="polygon27" fill="#000" points="615.5,234.3 618.5,230.3 622.5,230.8 666,364.3 663,367.3 658,365.8 		"/>
		
			<rect id="rect29" x="612" y="254" transform="matrix(0.9487 -0.3162 0.3162 0.9487 -65.4753 210.53)" fill="#000" width="7.9" height="106.1"/>
		<text transform="matrix(1 0 0 1 904.499 240.2979)" fill="#000" font-size="100">N</text>
		<polygon id="polygon35" fill="#000" points="797.5,413.8 797.5,417.8 795,421.3 663.5,371.8 663,367.3 666,364.3 		"/>
		<polygon id="polygon37" fill="#000" points="918,341.8 921.5,344.3 921.5,348.8 803.5,419.3 797.5,417.8 797.5,413.8 		"/>
		<polygon id="polygon39" fill="#000" points="936.5,254.8 944.5,256.3 926,342.3 921.5,344.3 918,341.8 		"/>
		<polygon id="polygon41" fill="#000" points="839.5,101.3 842.5,93.3 903,156.3 897.5,161.8 		"/>
		<polygon id="polygon43" fill="#000" points="700,113.8 695.5,106.3 842.5,93.3 839.5,101.3 		"/>
		<polygon id="polygon45" fill="#000" points="622.5,230.8 618.5,230.3 616,226.3 695.5,106.3 700,113.8 		"/>
		<polygon id="polygon47" fill="#000" points="376.5,127.8 379.5,119.3 476,226.3 474.5,230.3 470,231.3 		"/>
		<polygon id="polygon49" fill="#000" points="240,156.8 237,153.3 238.5,148.8 379.5,119.3 376.5,127.8 		"/>
		<polygon id="polygon51" fill="#000" points="258,179.3 256.5,171.8 368,147.8 369.5,155.8 		"/>
		<polygon id="polygon53" fill="#000" points="197,289.3 188,291.3 232.5,154.3 237,153.3 240,156.8 		"/>
		<polygon id="polygon55" fill="#000" points="290.5,392.8 287.5,401.8 188,291.3 197,289.3 		"/>
		<polygon id="polygon57" fill="#000" points="301,366.3 295.5,371.3 219,286.8 225,281.3 		"/>
		<polygon id="polygon59" fill="#000" points="427,363.8 430,367.3 429,371.8 287.5,401.8 290.5,392.8 		"/>
		<text transform="matrix(1 0 0 1 102.9985 85.7998)" fill="#000" font-size="100">O</text>
		<polygon id="polygon65" fill="#000" points="174.5,89.8 180.5,84.8 238.5,148.8 237,153.3 232.5,154.3 		"/>
		<polygon id="polygon67" fill="#000" points="877,526.8 861,559.3 795,421.3 797.5,417.8 803.5,419.3 		"/>
		<polygon id="polygon69" fill="#000" points="985,464.3 994.5,470.8 994.5,482.3 861,559.3 877,526.8 		"/>
		<polygon id="polygon71" fill="#000" points="1088.5,513.3 1162,578.8 994.5,482.3 994.5,470.8 1005,465.3 		"/>
		<polygon id="polygon73" fill="#000" points="1045.5,411.3 1046,416.3 1043,418.8 1028.5,410.8 1030,402.3 		"/>
		<polygon id="polygon75" fill="#000" points="921.5,348.8 921.5,344.3 926,342.3 981,374.3 980,382.8 		"/>
		<polygon id="polygon77" fill="#000" points="1162,578.8 1088.5,513.3 1043,418.8 1046,416.3 1051,416.8 		"/>
		<polygon id="polygon79" fill="#000" points="1146.5,310.3 1148.5,319.3 1051,416.8 1046,416.3 1045.5,411.3 		"/>
		<polygon id="polygon81" fill="#000" points="1287,347.8 1286,351.8 1285,355.8 1148.5,319.3 1146.5,310.3 		"/>
		<polygon id="polygon83" fill="#000" points="1002,338.8 1025,318.3 1005,465.3 994.5,470.8 985,464.3 		"/>
		<polygon id="polygon85" fill="#000" points="969,258.3 976,254.3 1025,318.3 1002,338.8 		"/>
		<polygon id="polygon87" fill="#000" points="1.5,80.3 1,76.8 0,72.8 90.5,53.3 92,61.3 		"/>
	</g>
</g>
</svg>
