<?xml version="1.0" encoding="UTF-8"?><svg xmlns="http://www.w3.org/2000/svg" xmlns:xlink="http://www.w3.org/1999/xlink" width="157pt" height="246pt" viewBox="0 0 157 246"><g transform="translate(2.2998, 147.65)" style="fill:#000; fill-rule:nonzero; stroke:none; stroke-width:1.2; stroke-linecap:butt; stroke-linejoin:miter; stroke-dasharray:none;"><path d="M1.2002 29.05C1.2002 29.05 0 29.75 0 29.75C0 29.75 0 0 0 0C0 0 1.2002 0.7 1.2002 0.7C1.2002 0.7 1.2002 29.05 1.2002 29.05Z"/></g><g transform="translate(7.5, 151)" style="fill:#000; fill-rule:nonzero; stroke:none; stroke-width:1.2; stroke-linecap:butt; stroke-linejoin:miter; stroke-dasharray:none;"><path d="M1.2002 23.05C1.2002 23.05 0 23.05 0 23.05C0 23.05 0 0 0 0C0 0 1.2002 0 1.2002 0C1.2002 0 1.2002 23.05 1.2002 23.05Z"/></g><g transform="translate(2.2998, 176.7)" style="fill:#000; fill-rule:nonzero; stroke:none; stroke-width:1.2; stroke-linecap:butt; stroke-linejoin:miter; stroke-dasharray:none;"><path d="M25.75 14.2C25.75 14.2 25.75 14.9 25.75 14.9C25.75 14.9 25.25 15.3 25.25 15.3C25.25 15.3 0 0.7 0 0.7C0 0.7 1.2002 0 1.2002 0C1.2002 0 25.75 14.2 25.75 14.2Z"/></g><g transform="translate(28.0498, 176.7)" style="fill:#000; fill-rule:nonzero; stroke:none; stroke-width:1.2; stroke-linecap:butt; stroke-linejoin:miter; stroke-dasharray:none;"><path d="M24.6006 0C24.6006 0 25.2002 0.35 25.2002 0.35C25.2002 0.35 25.2002 1.05 25.2002 1.05C25.2002 1.05 0.7002 15.2 0.7002 15.2C0.7002 15.2 0 14.9 0 14.9C0 14.9 0 14.2 0 14.2C0 14.2 24.6006 0 24.6006 0Z"/></g><g transform="translate(27.75, 173.5)" style="fill:#000; fill-rule:nonzero; stroke:none; stroke-width:1.2; stroke-linecap:butt; stroke-linejoin:miter; stroke-dasharray:none;"><path d="M19.9502 0C19.9502 0 20.5498 1.05 20.5498 1.05C20.5498 1.05 0.5996 12.55 0.5996 12.55C0.5996 12.55 0 11.5 0 11.5C0 11.5 19.9502 0 19.9502 0Z"/></g><g transform="translate(52.6504, 148)" style="fill:#000; fill-rule:nonzero; stroke:none; stroke-width:1.2; stroke-linecap:butt; stroke-linejoin:miter; stroke-dasharray:none;"><path d="M0 0.35C0 0.35 0.5996 0 0.5996 0C0.5996 0 1.1992 0.35 1.1992 0.35C1.1992 0.35 1.1992 28.7 1.1992 28.7C1.1992 28.7 0.5996 29.05 0.5996 29.05C0.5996 29.05 0 28.7 0 28.7C0 28.7 0 0.35 0 0.35Z"/></g><g transform="translate(28.0498, 132.75)" style="fill:#000; fill-rule:nonzero; stroke:none; stroke-width:1.2; stroke-linecap:butt; stroke-linejoin:miter; stroke-dasharray:none;"><path d="M0 1.4C0 1.4 0 0 0 0C0 0 25.2002 14.55 25.2002 14.55C25.2002 14.55 25.2002 15.25 25.2002 15.25C25.2002 15.25 24.6006 15.6 24.6006 15.6C24.6006 15.6 0 1.4 0 1.4Z"/></g><g transform="translate(27.75, 138.95)" style="fill:#000; fill-rule:nonzero; stroke:none; stroke-width:1.2; stroke-linecap:butt; stroke-linejoin:miter; stroke-dasharray:none;"><path d="M0 1.05C0 1.05 0.5996 0 0.5996 0C0.5996 0 20.5498 11.55 20.5498 11.55C20.5498 11.55 19.9502 12.55 19.9502 12.55C19.9502 12.55 0 1.05 0 1.05Z"/></g><g transform="translate(2.2998, 132.75)" style="fill:#000; fill-rule:nonzero; stroke:none; stroke-width:1.2; stroke-linecap:butt; stroke-linejoin:miter; stroke-dasharray:none;"><path d="M1.2002 15.6C1.2002 15.6 0 14.9 0 14.9C0 14.9 25.75 0 25.75 0C25.75 0 25.75 1.4 25.75 1.4C25.75 1.4 1.2002 15.6 1.2002 15.6Z"/></g><g transform="translate(53.25, 176.7)" style="fill:#000; fill-rule:nonzero; stroke:none; stroke-width:1.2; stroke-linecap:butt; stroke-linejoin:miter; stroke-dasharray:none;"><path d="M25.1504 14.2C25.1504 14.2 25.1504 14.9 25.1504 14.9C25.1504 14.9 24.4004 15.15 24.4004 15.15C24.4004 15.15 0 1.05 0 1.05C0 1.05 0 0.35 0 0.35C0 0.35 0.5996 0 0.5996 0C0.5996 0 25.1504 14.2 25.1504 14.2Z"/></g><g transform="translate(78.4004, 176.7)" style="fill:#000; fill-rule:nonzero; stroke:none; stroke-width:1.2; stroke-linecap:butt; stroke-linejoin:miter; stroke-dasharray:none;"><path d="M24.5996 0C24.5996 0 25.7996 0.7 25.7996 0.7C25.7996 0.7 0.5 15.3 0.5 15.3C0.5 15.3 0 14.9 0 14.9C0 14.9 0 14.2 0 14.2C0 14.2 24.5996 0 24.5996 0Z"/></g><g transform="translate(103, 148)" style="fill:#000; fill-rule:nonzero; stroke:none; stroke-width:1.2; stroke-linecap:butt; stroke-linejoin:miter; stroke-dasharray:none;"><path d="M0 0.35C0 0.35 0.6 0 0.6 0C0.6 0 1.2 0.35 1.2 0.35C1.2 0.35 1.2 29.4 1.2 29.4C1.2 29.4 0 28.7 0 28.7C0 28.7 0 0.35 0 0.35Z"/></g><g transform="translate(78.4004, 133.1)" style="fill:#000; fill-rule:nonzero; stroke:none; stroke-width:1.2; stroke-linecap:butt; stroke-linejoin:miter; stroke-dasharray:none;"><path d="M0 1.05C0 1.05 0 0.35 0 0.35C0 0.35 0.6494 0 0.6494 0C0.6494 0 24.4496 13.75 24.4496 13.75C24.4496 13.75 25.1996 14.9 25.1996 14.9C25.1996 14.9 24.5996 15.25 24.5996 15.25C24.5996 15.25 0 1.05 0 1.05Z"/></g><g transform="translate(53.25, 133.1)" style="fill:#000; fill-rule:nonzero; stroke:none; stroke-width:1.2; stroke-linecap:butt; stroke-linejoin:miter; stroke-dasharray:none;"><path d="M0.5996 15.25C0.5996 15.25 0 14.9 0 14.9C0 14.9 0 14.2 0 14.2C0 14.2 24.5498 0 24.5498 0C24.5498 0 25.1504 0.35 25.1504 0.35C25.1504 0.35 25.1504 1.05 25.1504 1.05C25.1504 1.05 0.5996 15.25 0.5996 15.25Z"/></g><g transform="translate(28.2842, 213.281)" style="fill:#000; fill-rule:evenodd; stroke:none; stroke-width:1.2; stroke-linecap:butt; stroke-linejoin:miter; stroke-dasharray:none;"><path d="M11.5088 0C11.5088 0 9.7314 0 9.7314 0C9.7314 0 9.7314 12.033 9.7314 12.033C9.7314 12.033 2.039 0 2.039 0C2.039 0 0 0 0 0C0 0 0 14.719 0 14.719C0 14.719 1.7773 14.719 1.7773 14.719C1.7773 14.719 1.7773 2.786 1.7773 2.786C1.7773 2.786 9.3887 14.719 9.3887 14.719C9.3887 14.719 11.5088 14.719 11.5088 14.719C11.5088 14.719 11.5088 0 11.5088 0Z"/></g><g transform="translate(27.5498, 191.6)" style="fill:#000; fill-rule:nonzero; stroke:none; stroke-width:1.2; stroke-linecap:butt; stroke-linejoin:miter; stroke-dasharray:none;"><path d="M4.9004 17.8C4.9004 17.8 3.75 18.1 3.75 18.1C3.75 18.1 0 0.4 0 0.4C0 0.4 0.5 0 0.5 0C0.5 0 1.2002 0.3 1.2002 0.3C1.2002 0.3 4.9004 17.8 4.9004 17.8Z"/></g><g transform="translate(42.8496, 219.45)" style="fill:#000; fill-rule:nonzero; stroke:none; stroke-width:1.2; stroke-linecap:butt; stroke-linejoin:miter; stroke-dasharray:none;"><path d="M19.8008 2.95C19.8008 2.95 20.5 4.3 20.5 4.3C20.5 4.3 0 1.2 0 1.2C0 1.2 0.1504 0 0.1504 0C0.1504 0 19.8008 2.95 19.8008 2.95Z"/></g><g transform="translate(62.6504, 191.6)" style="fill:#000; fill-rule:nonzero; stroke:none; stroke-width:1.2; stroke-linecap:butt; stroke-linejoin:miter; stroke-dasharray:none;"><path d="M15 0.25C15 0.25 15.75 0 15.75 0C15.75 0 16.25 0.4 16.25 0.4C16.25 0.4 0.6992 32.15 0.6992 32.15C0.6992 32.15 0 30.8 0 30.8C0 30.8 15 0.25 15 0.25Z"/></g><g transform="translate(58.75, 193.85)" style="fill:#000; fill-rule:nonzero; stroke:none; stroke-width:1.2; stroke-linecap:butt; stroke-linejoin:miter; stroke-dasharray:none;"><path d="M10.8496 0C10.8496 0 11.9502 0.5 11.9502 0.5C11.9502 0.5 1.0996 22.75 1.0996 22.75C1.0996 22.75 0 22.2 0 22.2C0 22.2 10.8496 0 10.8496 0Z"/></g><g transform="translate(123.034, 126.531)" style="fill:#000; fill-rule:evenodd; stroke:none; stroke-width:1.2; stroke-linecap:butt; stroke-linejoin:miter; stroke-dasharray:none;"><path d="M11.509 0C11.509 0 9.732 0 9.732 0C9.732 0 9.732 12.033 9.732 12.033C9.732 12.033 2.039 0 2.039 0C2.039 0 0 0 0 0C0 0 0 14.719 0 14.719C0 14.719 1.778 14.719 1.778 14.719C1.778 14.719 1.778 2.786 1.778 2.786C1.778 2.786 9.389 14.719 9.389 14.719C9.389 14.719 11.509 14.719 11.509 14.719C11.509 14.719 11.509 0 11.509 0Z"/></g><g transform="translate(103.6, 138.95)" style="fill:#000; fill-rule:nonzero; stroke:none; stroke-width:1.2; stroke-linecap:butt; stroke-linejoin:miter; stroke-dasharray:none;"><path d="M14.45 0C14.45 0 15.05 1.05 15.05 1.05C15.05 1.05 0.6 9.4 0.6 9.4C0.6 9.4 0 9.05 0 9.05C0 9.05 0.75 7.9 0.75 7.9C0.75 7.9 14.45 0 14.45 0Z"/></g><g transform="translate(128.15, 104)" style="fill:#000; fill-rule:nonzero; stroke:none; stroke-width:1.2; stroke-linecap:butt; stroke-linejoin:miter; stroke-dasharray:none;"><path d="M0 0.7C0 0.7 1.25 0 1.25 0C1.25 0 1.25 19.7 1.25 19.7C1.25 19.7 0 19.7 0 19.7C0 19.7 0 0.7 0 0.7Z"/></g><g transform="translate(103.6, 89.5)" style="fill:#000; fill-rule:nonzero; stroke:none; stroke-width:1.2; stroke-linecap:butt; stroke-linejoin:miter; stroke-dasharray:none;"><path d="M0 1.0498C0 1.0498 0 0.3496 0 0.3496C0 0.3496 0.65 0 0.65 0C0.65 0 25.8 14.5 25.8 14.5C25.8 14.5 24.55 15.2 24.55 15.2C24.55 15.2 0 1.0498 0 1.0498Z"/></g><g transform="translate(77.7998, 89.5)" style="fill:#000; fill-rule:nonzero; stroke:none; stroke-width:1.2; stroke-linecap:butt; stroke-linejoin:miter; stroke-dasharray:none;"><path d="M1.25 15.2C1.25 15.2 0 14.5 0 14.5C0 14.5 25.1502 0 25.1502 0C25.1502 0 25.8002 0.3496 25.8002 0.3496C25.8002 0.3496 25.8002 1.0498 25.8002 1.0498C25.8002 1.0498 1.25 15.2 1.25 15.2Z"/></g><g transform="translate(77.7998, 104)" style="fill:#000; fill-rule:nonzero; stroke:none; stroke-width:1.2; stroke-linecap:butt; stroke-linejoin:miter; stroke-dasharray:none;"><path d="M1.25 29.1C1.25 29.1 0.6006 29.45 0.6006 29.45C0.6006 29.45 0 29.1 0 29.1C0 29.1 0 0 0 0C0 0 1.25 0.7 1.25 0.7C1.25 0.7 1.25 29.1 1.25 29.1Z"/></g><g transform="translate(83.0498, 107.4)" style="fill:#000; fill-rule:nonzero; stroke:none; stroke-width:1.2; stroke-linecap:butt; stroke-linejoin:miter; stroke-dasharray:none;"><path d="M1.2002 23C1.2002 23 0 23 0 23C0 23 0 0 0 0C0 0 1.2002 0 1.2002 0C1.2002 0 1.2002 23 1.2002 23Z"/></g><g transform="translate(138.9, 138.95)" style="fill:#000; fill-rule:nonzero; stroke:none; stroke-width:1.2; stroke-linecap:butt; stroke-linejoin:miter; stroke-dasharray:none;"><path d="M15.25 8.45C15.25 8.45 14.65 9.5 14.65 9.5C14.65 9.5 0 1.05 0 1.05C0 1.05 0.6 0 0.6 0C0.6 0 15.25 8.45 15.25 8.45Z"/></g><g transform="translate(97.9258, 112.281)" style="fill:#000; fill-rule:evenodd; stroke:none; stroke-width:1.2; stroke-linecap:butt; stroke-linejoin:miter; stroke-dasharray:none;"><path d="M9.4492 8.016C9.4492 8.016 9.4492 14.719 9.4492 14.719C9.4492 14.719 11.3262 14.719 11.3262 14.719C11.3262 14.719 11.3262 0 11.3262 0C11.3262 0 9.4492 0 9.4492 0C9.4492 0 9.4492 6.361 9.4492 6.361C9.4492 6.361 1.8779 6.361 1.8779 6.361C1.8779 6.361 1.8779 0 1.8779 0C1.8779 0 0 0 0 0C0 0 0 14.719 0 14.719C0 14.719 1.8974 14.719 1.8974 14.719C1.8974 14.719 1.8974 8.016 1.8974 8.016C1.8974 8.016 9.4492 8.016 9.4492 8.016Z"/></g><g transform="translate(100.55, 130.15)" style="fill:#000; fill-rule:nonzero; stroke:none; stroke-width:1.2; stroke-linecap:butt; stroke-linejoin:miter; stroke-dasharray:none;"><path d="M0 0C0 0 6.1 0 6.1 0C6.1 0 3.8 16.7 3.8 16.7C3.8 16.7 3.05 17.85 3.05 17.85C3.05 17.85 2.3 16.7 2.3 16.7C2.3 16.7 0 0 0 0Z"/></g><g transform="translate(100.5, 59.75)" style="fill:#000; fill-rule:nonzero; stroke:none; stroke-width:1.2; stroke-linecap:butt; stroke-linejoin:miter; stroke-dasharray:none;"><path d="M0 0C0 0 6.05 2.0996 6.05 2.0996C6.05 2.0996 3.75 29.75 3.75 29.75C3.75 29.75 3.1 30.0996 3.1 30.0996C3.1 30.0996 2.45 29.75 2.45 29.75C2.45 29.75 0 0 0 0Z"/></g><g transform="translate(72.7842, 39.5313)" style="fill:#000; fill-rule:evenodd; stroke:none; stroke-width:1.2; stroke-linecap:butt; stroke-linejoin:miter; stroke-dasharray:none;"><path d="M11.5088 0C11.5088 0 9.7314 0 9.7314 0C9.7314 0 9.7314 12.0332 9.7314 12.0332C9.7314 12.0332 2.039 0 2.039 0C2.039 0 0 0 0 0C0 0 0 14.7187 0 14.7187C0 14.7187 1.7773 14.7187 1.7773 14.7187C1.7773 14.7187 1.7773 2.7861 1.7773 2.7861C1.7773 2.7861 9.3887 14.7187 9.3887 14.7187C9.3887 14.7187 11.5088 14.7187 11.5088 14.7187C11.5088 14.7187 11.5088 0 11.5088 0Z"/></g><g transform="translate(88.6504, 51.8496)" style="fill:#000; fill-rule:nonzero; stroke:none; stroke-width:1.2; stroke-linecap:butt; stroke-linejoin:miter; stroke-dasharray:none;"><path d="M0 1.0508C0 1.0508 0.5996 0 0.5996 0C0.5996 0 17.8996 10 17.8996 10C17.8996 10 11.8496 7.9004 11.8496 7.9004C11.8496 7.9004 0 1.0508 0 1.0508Z"/></g><g transform="translate(121.518, 39.2891)" style="fill:#000; fill-rule:evenodd; stroke:none; stroke-width:1.2; stroke-linecap:butt; stroke-linejoin:miter; stroke-dasharray:none;"><path d="M7.086 0C2.866 0 0 3.1093 0 7.7129C0 12.3164 2.866 15.4257 7.106 15.4257C8.882 15.4257 10.478 14.8798 11.67 13.8711C13.264 12.5175 14.213 10.2363 14.213 7.8339C14.213 3.0888 11.407 0 7.086 0ZM7.086 1.6562C10.276 1.6562 12.336 4.0781 12.336 7.7939C12.336 11.3466 10.215 13.7695 7.106 13.7695C3.977 13.7695 1.877 11.3466 1.877 7.7129C1.877 4.0781 3.977 1.6562 7.086 1.6562Z"/></g><g transform="translate(100.7, 49)" style="fill:#000; fill-rule:nonzero; stroke:none; stroke-width:1.2; stroke-linecap:butt; stroke-linejoin:miter; stroke-dasharray:none;"><path d="M17.05 0C17.05 0 17.65 1.0498 17.65 1.0498C17.65 1.0498 0.6 10.9004 0.6 10.9004C0.6 10.9004 0 9.8496 0 9.8496C0 9.8496 17.05 0 17.05 0Z"/></g><g transform="translate(103.3, 53.5)" style="fill:#000; fill-rule:nonzero; stroke:none; stroke-width:1.2; stroke-linecap:butt; stroke-linejoin:miter; stroke-dasharray:none;"><path d="M17.05 0C17.05 0 17.65 1.0498 17.65 1.0498C17.65 1.0498 0.6 10.9004 0.6 10.9004C0.6 10.9004 0 9.8496 0 9.8496C0 9.8496 17.05 0 17.05 0Z"/></g><g transform="translate(53.4004, 51.9004)" style="fill:#000; fill-rule:nonzero; stroke:none; stroke-width:1.2; stroke-linecap:butt; stroke-linejoin:miter; stroke-dasharray:none;"><path d="M0 9.6494C0 9.6494 0 8.25 0 8.25C0 8.25 14.3496 0 14.3496 0C14.3496 0 14.9492 1.0498 14.9492 1.0498C14.9492 1.0498 0 9.6494 0 9.6494Z"/></g><g transform="translate(77.9004, 17.0498)" style="fill:#000; fill-rule:nonzero; stroke:none; stroke-width:1.2; stroke-linecap:butt; stroke-linejoin:miter; stroke-dasharray:none;"><path d="M0 0.7002C0 0.7002 1.1992 0 1.1992 0C1.1992 0 1.1992 19.5498 1.1992 19.5498C1.1992 19.5498 0 19.5498 0 19.5498C0 19.5498 0 0.7002 0 0.7002Z"/></g><g transform="translate(53.0996, 2.40039)" style="fill:#000; fill-rule:nonzero; stroke:none; stroke-width:1.2; stroke-linecap:butt; stroke-linejoin:miter; stroke-dasharray:none;"><path d="M0 1.04981C0 1.04981 0.6006 0 0.6006 0C0.6006 0 26 14.6494 26 14.6494C26 14.6494 24.8008 15.3496 24.8008 15.3496C24.8008 15.3496 0 1.04981 0 1.04981Z"/></g><g transform="translate(28, 45.8496)" style="fill:#000; fill-rule:nonzero; stroke:none; stroke-width:1.2; stroke-linecap:butt; stroke-linejoin:miter; stroke-dasharray:none;"><path d="M0 1.0508C0 1.0508 0.6504 0 0.6504 0C0.6504 0 25.4004 14.3008 25.4004 14.3008C25.4004 14.3008 25.4004 15.7002 25.4004 15.7002C25.4004 15.7002 0 1.0508 0 1.0508Z"/></g><g transform="translate(28.1758, 228.781)" style="fill:#000; fill-rule:evenodd; stroke:none; stroke-width:1.2; stroke-linecap:butt; stroke-linejoin:miter; stroke-dasharray:none;"><path d="M9.4492 8.016C9.4492 8.016 9.4492 14.719 9.4492 14.719C9.4492 14.719 11.3262 14.719 11.3262 14.719C11.3262 14.719 11.3262 0 11.3262 0C11.3262 0 9.4492 0 9.4492 0C9.4492 0 9.4492 6.361 9.4492 6.361C9.4492 6.361 1.8779 6.361 1.8779 6.361C1.8779 6.361 1.8779 0 1.8779 0C1.8779 0 0 0 0 0C0 0 0 14.719 0 14.719C0 14.719 1.8974 14.719 1.8974 14.719C1.8974 14.719 1.8974 8.016 1.8974 8.016C1.8974 8.016 9.4492 8.016 9.4492 8.016Z"/></g></svg>