<?xml version="1.0" encoding="UTF-8"?><svg xmlns="http://www.w3.org/2000/svg" xmlns:xlink="http://www.w3.org/1999/xlink" width="205pt" height="90pt" viewBox="0 0 205 90"><g transform="translate(47.8496, 40.5996)" style="fill:#000000; fill-rule:nonzero; stroke:none; stroke-width:1.25; stroke-linecap:butt; stroke-linejoin:miter; stroke-dasharray:none;"><path d="M1.25 29.2002C1.25 29.2002 0.6504 29.5508 0.6504 29.5508C0.6504 29.5508 0 29.1006 0 29.1006C0 29.1006 0 0.4502 0 0.4502C0 0.4502 0.6504 0 0.6504 0C0.6504 0 1.25 0.3506 1.25 0.3506C1.25 0.3506 1.25 29.2002 1.25 29.2002Z"/></g><g transform="translate(53.2002, 43.6504)" style="fill:#000000; fill-rule:nonzero; stroke:none; stroke-width:1.25; stroke-linecap:butt; stroke-linejoin:miter; stroke-dasharray:none;"><path d="M1.2002 23.3994C1.2002 23.3994 0 23.3994 0 23.3994C0 23.3994 0 0 0 0C0 0 1.2002 0 1.2002 0C1.2002 0 1.2002 23.3994 1.2002 23.3994Z"/></g><g transform="translate(48.4004, 69.7998)" style="fill:#000000; fill-rule:nonzero; stroke:none; stroke-width:1.25; stroke-linecap:butt; stroke-linejoin:miter; stroke-dasharray:none;"><path d="M25.6494 14.4004C25.6494 14.4004 25.6494 15.7998 25.6494 15.7998C25.6494 15.7998 0 1 0 1C0 1 0.0996 0.3506 0.0996 0.3506C0.0996 0.3506 0.6992 0 0.6992 0C0.6992 0 25.6494 14.4004 25.6494 14.4004Z"/></g><g transform="translate(74.0498, 69.7998)" style="fill:#000000; fill-rule:nonzero; stroke:none; stroke-width:1.25; stroke-linecap:butt; stroke-linejoin:miter; stroke-dasharray:none;"><path d="M25 0C25 0 26.2502 0.7002 26.2502 0.7002C26.2502 0.7002 0 15.7998 0 15.7998C0 15.7998 0 14.4004 0 14.4004C0 14.4004 25 0 25 0Z"/></g><g transform="translate(73.75, 66.5498)" style="fill:#000000; fill-rule:nonzero; stroke:none; stroke-width:1.25; stroke-linecap:butt; stroke-linejoin:miter; stroke-dasharray:none;"><path d="M20.2998 0C20.2998 0 20.9004 1.0498 20.9004 1.0498C20.9004 1.0498 0.6504 12.75 0.6504 12.75C0.6504 12.75 0 11.7002 0 11.7002C0 11.7002 20.2998 0 20.2998 0Z"/></g><g transform="translate(99.0498, 40.5996)" style="fill:#000000; fill-rule:nonzero; stroke:none; stroke-width:1.25; stroke-linecap:butt; stroke-linejoin:miter; stroke-dasharray:none;"><path d="M0 0.3506C0 0.3506 0.6006 0 0.6006 0C0.6006 0 1.2502 0.3506 1.2502 0.3506C1.2502 0.3506 1.2502 29.9004 1.2502 29.9004C1.2502 29.9004 0 29.2002 0 29.2002C0 29.2002 0 0.3506 0 0.3506Z"/></g><g transform="translate(74.0498, 25.0996)" style="fill:#000000; fill-rule:nonzero; stroke:none; stroke-width:1.25; stroke-linecap:butt; stroke-linejoin:miter; stroke-dasharray:none;"><path d="M0 1.4502C0 1.4502 0 0 0 0C0 0 25.6006 14.8008 25.6006 14.8008C25.6006 14.8008 25.6006 15.5 25.6006 15.5C25.6006 15.5 25 15.8506 25 15.8506C25 15.8506 0 1.4502 0 1.4502Z"/></g><g transform="translate(73.75, 31.4004)" style="fill:#000000; fill-rule:nonzero; stroke:none; stroke-width:1.25; stroke-linecap:butt; stroke-linejoin:miter; stroke-dasharray:none;"><path d="M0 1.0996C0 1.0996 0.6504 0 0.6504 0C0.6504 0 20.9004 11.75 20.9004 11.75C20.9004 11.75 20.2998 12.7998 20.2998 12.7998C20.2998 12.7998 0 1.0996 0 1.0996Z"/></g><g transform="translate(48.4004, 25.0996)" style="fill:#000000; fill-rule:nonzero; stroke:none; stroke-width:1.25; stroke-linecap:butt; stroke-linejoin:miter; stroke-dasharray:none;"><path d="M0.6992 15.8506C0.6992 15.8506 0.0996 15.5 0.0996 15.5C0.0996 15.5 0 14.8008 0 14.8008C0 14.8008 25.6494 0 25.6494 0C25.6494 0 25.6494 1.4502 25.6494 1.4502C25.6494 1.4502 0.6992 15.8506 0.6992 15.8506Z"/></g><g transform="translate(13.2793, 24.2949)" style="fill:#000000; fill-rule:evenodd; stroke:none; stroke-width:1.25; stroke-linecap:butt; stroke-linejoin:miter; stroke-dasharray:none;"><path d="M7.2031 0C2.9141 0 0 3.1602 0 7.8389C0 12.5166 2.9141 15.6768 7.2236 15.6768C9.0293 15.6768 10.6504 15.1231 11.8613 14.0967C13.4824 12.7217 14.4463 10.4033 14.4463 7.9619C14.4463 3.1397 11.5947 0 7.2031 0ZM7.2031 1.6826C10.4453 1.6826 12.5381 4.1446 12.5381 7.9209C12.5381 11.5322 10.3838 13.9942 7.2236 13.9942C4.043 13.9942 1.9092 11.5322 1.9092 7.8389C1.9092 4.1446 4.043 1.6826 7.2031 1.6826Z"/></g><g transform="translate(13.2793, 72.0449)" style="fill:#000000; fill-rule:evenodd; stroke:none; stroke-width:1.25; stroke-linecap:butt; stroke-linejoin:miter; stroke-dasharray:none;"><path d="M7.2031 0C2.9141 0 0 3.1602 0 7.8389C0 12.5166 2.9141 15.6768 7.2236 15.6768C9.0293 15.6768 10.6504 15.1231 11.8613 14.0967C13.4824 12.7217 14.4463 10.4033 14.4463 7.9619C14.4463 3.1397 11.5947 0 7.2031 0ZM7.2031 1.6826C10.4453 1.6826 12.5381 4.1446 12.5381 7.9209C12.5381 11.5322 10.3838 13.9942 7.2236 13.9942C4.043 13.9942 1.9092 11.5322 1.9092 7.8389C1.9092 4.1446 4.043 1.6826 7.2031 1.6826Z"/></g><g transform="translate(30.3496, 34.2002)" style="fill:#000000; fill-rule:nonzero; stroke:none; stroke-width:1.25; stroke-linecap:butt; stroke-linejoin:miter; stroke-dasharray:none;"><path d="M0 1.1494C0 1.1494 0.4004 0 0.4004 0C0.4004 0 18.0508 5.7002 18.0508 5.7002C18.0508 5.7002 18.1504 6.3994 18.1504 6.3994C18.1504 6.3994 17.5 6.8496 17.5 6.8496C17.5 6.8496 0 1.1494 0 1.1494Z"/></g><g transform="translate(2.25, 40.3496)" style="fill:#000000; fill-rule:nonzero; stroke:none; stroke-width:1.25; stroke-linecap:butt; stroke-linejoin:miter; stroke-dasharray:none;"><path d="M1.5 15C1.5 15 0 15 0 15C0 15 10.9004 0 10.9004 0C10.9004 0 11.9004 0.75 11.9004 0.75C11.9004 0.75 1.5 15 1.5 15Z"/></g><g transform="translate(2.25, 55.3496)" style="fill:#000000; fill-rule:nonzero; stroke:none; stroke-width:1.25; stroke-linecap:butt; stroke-linejoin:miter; stroke-dasharray:none;"><path d="M12.5996 15.25C12.5996 15.25 11.5996 15.9502 11.5996 15.9502C11.5996 15.9502 0 0 0 0C0 0 1.5 0 1.5 0C1.5 0 12.5996 15.25 12.5996 15.25Z"/></g><g transform="translate(30, 69.7002)" style="fill:#000000; fill-rule:nonzero; stroke:none; stroke-width:1.25; stroke-linecap:butt; stroke-linejoin:miter; stroke-dasharray:none;"><path d="M17.8496 0C17.8496 0 18.5 0.4502 18.5 0.4502C18.5 0.4502 18.4004 1.0996 18.4004 1.0996C18.4004 1.0996 0.3496 6.9502 0.3496 6.9502C0.3496 6.9502 0 5.7998 0 5.7998C0 5.7998 17.8496 0 17.8496 0Z"/></g><g transform="translate(99.6504, 25.0996)" style="fill:#000000; fill-rule:nonzero; stroke:none; stroke-width:1.25; stroke-linecap:butt; stroke-linejoin:miter; stroke-dasharray:none;"><path d="M25.5996 0C25.5996 0 25.5996 1.4502 25.5996 1.4502C25.5996 1.4502 0.6496 15.8506 0.6496 15.8506C0.6496 15.8506 0 15.5 0 15.5C0 15.5 0 14.8008 0 14.8008C0 14.8008 25.5996 0 25.5996 0Z"/></g><g transform="translate(125.25, 25.0996)" style="fill:#000000; fill-rule:nonzero; stroke:none; stroke-width:1.25; stroke-linecap:butt; stroke-linejoin:miter; stroke-dasharray:none;"><path d="M25.6 14.8008C25.6 14.8008 25.6 15.5 25.6 15.5C25.6 15.5 24.95 15.8506 24.95 15.8506C24.95 15.8506 0 1.4502 0 1.4502C0 1.4502 0 0 0 0C0 0 25.6 14.8008 25.6 14.8008Z"/></g><g transform="translate(170.703, 1.79102)" style="fill:#000000; fill-rule:evenodd; stroke:none; stroke-width:1.25; stroke-linecap:butt; stroke-linejoin:miter; stroke-dasharray:none;"><path d="M9.604 8.14648C9.604 8.14648 9.604 14.959 9.604 14.959C9.604 14.959 11.512 14.959 11.512 14.959C11.512 14.959 11.512 0 11.512 0C11.512 0 9.604 0 9.604 0C9.604 0 9.604 6.46386 9.604 6.46386C9.604 6.46386 1.908 6.46386 1.908 6.46386C1.908 6.46386 1.908 0 1.908 0C1.908 0 0 0 0 0C0 0 0 14.959 0 14.959C0 14.959 1.929 14.959 1.929 14.959C1.929 14.959 1.929 8.14648 1.929 8.14648C1.929 8.14648 9.604 8.14648 9.604 8.14648Z"/></g><g transform="translate(170.56, 19.041)" style="fill:#000000; fill-rule:evenodd; stroke:none; stroke-width:1.25; stroke-linecap:butt; stroke-linejoin:miter; stroke-dasharray:none;"><path d="M11.696 0C11.696 0 9.89 0 9.89 0C9.89 0 9.89 12.2295 9.89 12.2295C9.89 12.2295 2.072 0 2.072 0C2.072 0 0 0 0 0C0 0 0 14.959 0 14.959C0 14.959 1.805 14.959 1.805 14.959C1.805 14.959 1.805 2.832 1.805 2.832C1.805 2.832 9.542 14.959 9.542 14.959C9.542 14.959 11.696 14.959 11.696 14.959C11.696 14.959 11.696 0 11.696 0Z"/></g><g transform="translate(150.85, 31.4004)" style="fill:#000000; fill-rule:nonzero; stroke:none; stroke-width:1.25; stroke-linecap:butt; stroke-linejoin:miter; stroke-dasharray:none;"><path d="M14.7 0C14.7 0 15.3 1.0498 15.3 1.0498C15.3 1.0498 0.6 9.5498 0.6 9.5498C0.6 9.5498 0 9.1992 0 9.1992C0 9.1992 0 8.5 0 8.5C0 8.5 14.7 0 14.7 0Z"/></g><g transform="translate(150.2, 40.5996)" style="fill:#000000; fill-rule:nonzero; stroke:none; stroke-width:1.25; stroke-linecap:butt; stroke-linejoin:miter; stroke-dasharray:none;"><path d="M1.25 29.5508C1.25 29.5508 0 29.5508 0 29.5508C0 29.5508 0 0.3506 0 0.3506C0 0.3506 0.65 0 0.65 0C0.65 0 1.25 0.3506 1.25 0.3506C1.25 0.3506 1.25 29.5508 1.25 29.5508Z"/></g><g transform="translate(186.65, 31.3496)" style="fill:#000000; fill-rule:nonzero; stroke:none; stroke-width:1.25; stroke-linecap:butt; stroke-linejoin:miter; stroke-dasharray:none;"><path d="M15.7 8.7002C15.7 8.7002 15.05 9.75 15.05 9.75C15.05 9.75 0 1.1006 0 1.1006C0 1.1006 0.6 0 0.6 0C0.6 0 15.7 8.7002 15.7 8.7002Z"/></g></svg>
