<?xml version="1.0" encoding="UTF-8"?>
<svg width="896pt" version="1.1" xmlns="http://www.w3.org/2000/svg" height="740pt" viewBox="0 0 896 740" xmlns:xlink="http://www.w3.org/1999/xlink">
 <defs>
  <clipPath id="Clip0">
   <path d="M0 0 L889.244 0 L889.244 733.939 L0 733.939 L0 0 Z" transform="translate(3.68922, 1.93299)"/>
  </clipPath>
  <clipPath id="Clip1">
   <path d="M0 0 L889.244 0 L889.244 733.939 L0 733.939 L0 0 Z" transform="translate(3.68922, 1.93299)"/>
  </clipPath>
  <clipPath id="Clip2">
   <path d="M0 0 L889.244 0 L889.244 733.939 L0 733.939 L0 0 Z" transform="translate(3.68922, 1.93299)"/>
  </clipPath>
 </defs>
 <g id="Background">
  <g id="Group3" clip-path="url(#Clip0)">
   <g id="Group2" clip-path="url(#Clip1)">
    <g id="Group1" clip-path="url(#Clip2)">
     <path style="fill:#ffffff; fill-rule:evenodd;stroke:none;" d="M0 27.1502 C0 18.6585 2.27997 12.0105 6.8399 7.20633 C11.3998 2.40211 17.2859 0 24.498 0 C29.2208 0 33.4783 1.12835 37.2705 3.38505 C41.0627 5.64176 43.9534 8.78834 45.9425 12.8248 C47.9317 16.8613 48.9262 21.4387 48.9262 26.557 C48.9262 31.7451 47.8793 36.3864 45.7855 40.4811 C43.6916 44.5757 40.7253 47.6757 36.8866 49.7812 C33.0479 51.8867 28.9067 52.9394 24.4631 52.9394 C19.6473 52.9394 15.3433 51.7762 11.5511 49.4497 C7.75887 47.1232 4.88564 43.9475 2.93139 39.9227 C0.977129 35.8979 0 31.6404 0 27.1502 Z M6.97949 27.2549 C6.97949 33.4201 8.63712 38.2767 11.9524 41.8246 C15.2676 45.3725 19.4263 47.1465 24.4282 47.1465 C29.5233 47.1465 33.7168 45.3551 37.0088 41.7723 C40.3008 38.1895 41.9467 33.1061 41.9467 26.5221 C41.9467 22.3576 41.243 18.7225 39.8355 15.6166 C38.4279 12.5107 36.369 10.1028 33.6586 8.39284 C30.9482 6.68286 27.9063 5.82788 24.5329 5.82788 C19.7403 5.82788 15.6166 7.47387 12.1618 10.7659 C8.70692 14.0579 6.97949 19.5542 6.97949 27.2549 Z" transform="translate(812.689, 585.933)"/>
     <path style="fill:#ffffff; fill-rule:evenodd;stroke:none;" d="M0 27.1502 C0 18.6585 2.27997 12.0105 6.8399 7.20633 C11.3998 2.40211 17.2859 0 24.498 0 C29.2208 0 33.4783 1.12835 37.2705 3.38505 C41.0627 5.64176 43.9534 8.78834 45.9425 12.8248 C47.9317 16.8613 48.9262 21.4387 48.9262 26.557 C48.9262 31.7451 47.8793 36.3864 45.7855 40.4811 C43.6916 44.5757 40.7253 47.6757 36.8866 49.7812 C33.0479 51.8867 28.9067 52.9394 24.4631 52.9394 C19.6473 52.9394 15.3433 51.7762 11.5511 49.4497 C7.75887 47.1232 4.88564 43.9475 2.93139 39.9227 C0.977129 35.8979 0 31.6404 0 27.1502 Z M6.97949 27.2549 C6.97949 33.4201 8.63712 38.2767 11.9524 41.8246 C15.2676 45.3725 19.4263 47.1465 24.4282 47.1465 C29.5233 47.1465 33.7168 45.3551 37.0088 41.7723 C40.3008 38.1895 41.9467 33.1061 41.9467 26.5221 C41.9467 22.3576 41.243 18.7225 39.8355 15.6166 C38.4279 12.5107 36.369 10.1028 33.6586 8.39284 C30.9482 6.68286 27.9063 5.82788 24.5329 5.82788 C19.7403 5.82788 15.6166 7.47387 12.1618 10.7659 C8.70692 14.0579 6.97949 19.5542 6.97949 27.2549 Z" transform="translate(644.689, 682.933)"/>
     <path style="fill:#ffffff; fill-rule:evenodd;stroke:none;" d="M0 27.1502 C0 18.6585 2.27997 12.0105 6.8399 7.20633 C11.3998 2.40211 17.2859 0 24.498 0 C29.2208 0 33.4783 1.12835 37.2705 3.38505 C41.0627 5.64176 43.9534 8.78834 45.9425 12.8248 C47.9317 16.8613 48.9262 21.4387 48.9262 26.557 C48.9262 31.7451 47.8793 36.3864 45.7855 40.4811 C43.6916 44.5757 40.7253 47.6757 36.8866 49.7812 C33.0479 51.8867 28.9067 52.9394 24.4631 52.9394 C19.6473 52.9394 15.3433 51.7762 11.5511 49.4497 C7.75887 47.1232 4.88564 43.9475 2.93139 39.9227 C0.977129 35.8979 0 31.6404 0 27.1502 Z M6.97949 27.2549 C6.97949 33.4201 8.63712 38.2767 11.9524 41.8246 C15.2676 45.3725 19.4263 47.1465 24.4282 47.1465 C29.5233 47.1465 33.7168 45.3551 37.0088 41.7723 C40.3008 38.1895 41.9467 33.1061 41.9467 26.5221 C41.9467 22.3576 41.243 18.7225 39.8355 15.6166 C38.4279 12.5107 36.369 10.1028 33.6586 8.39284 C30.9482 6.68286 27.9063 5.82788 24.5329 5.82788 C19.7403 5.82788 15.6166 7.47387 12.1618 10.7659 C8.70692 14.0579 6.97949 19.5542 6.97949 27.2549 Z" transform="translate(700.689, 195.933)"/>
     <path style="fill:#ffffff; fill-rule:evenodd;stroke:none;" d="M0 27.1502 C0 18.6585 2.27997 12.0105 6.8399 7.20633 C11.3998 2.40211 17.2859 0 24.498 3.55271e-15 C29.2208 0 33.4783 1.12835 37.2705 3.38505 C41.0627 5.64176 43.9534 8.78834 45.9425 12.8248 C47.9317 16.8613 48.9262 21.4387 48.9262 26.557 C48.9262 31.7451 47.8793 36.3864 45.7855 40.4811 C43.6916 44.5757 40.7253 47.6757 36.8866 49.7812 C33.0479 51.8867 28.9067 52.9394 24.4631 52.9394 C19.6473 52.9394 15.3433 51.7762 11.5511 49.4497 C7.75887 47.1232 4.88564 43.9475 2.93139 39.9227 C0.977129 35.8979 0 31.6404 0 27.1502 Z M6.97949 27.2549 C6.97949 33.4201 8.63712 38.2767 11.9524 41.8246 C15.2676 45.3725 19.4263 47.1465 24.4282 47.1465 C29.5233 47.1465 33.7168 45.3551 37.0088 41.7723 C40.3008 38.1895 41.9467 33.1061 41.9467 26.5221 C41.9467 22.3576 41.243 18.7225 39.8355 15.6166 C38.4279 12.5107 36.369 10.1028 33.6586 8.39284 C30.9482 6.68286 27.9063 5.82788 24.5329 5.82788 C19.7403 5.82788 15.6166 7.47387 12.1618 10.7659 C8.70692 14.0579 6.97949 19.5542 6.97949 27.2549 Z" transform="translate(700.689, 1.93299)"/>
     <path style="fill:#ffffff; fill-rule:evenodd;stroke:none;" d="M5.68434e-14 27.1502 C0 18.6585 2.27997 12.0105 6.8399 7.20633 C11.3998 2.40211 17.2859 0 24.498 0 C29.2208 0 33.4783 1.12835 37.2705 3.38505 C41.0627 5.64176 43.9534 8.78834 45.9425 12.8248 C47.9317 16.8613 48.9262 21.4387 48.9262 26.557 C48.9262 31.7451 47.8793 36.3864 45.7855 40.4811 C43.6916 44.5757 40.7253 47.6757 36.8866 49.7812 C33.0479 51.8867 28.9067 52.9394 24.4631 52.9394 C19.6473 52.9394 15.3433 51.7762 11.5511 49.4497 C7.75887 47.1232 4.88564 43.9475 2.93139 39.9227 C0.977129 35.8979 0 31.6404 5.68434e-14 27.1502 Z M6.97949 27.2549 C6.97949 33.4201 8.63712 38.2767 11.9524 41.8246 C15.2676 45.3725 19.4263 47.1465 24.4282 47.1465 C29.5233 47.1465 33.7168 45.3551 37.0088 41.7723 C40.3008 38.1895 41.9467 33.1061 41.9467 26.5221 C41.9467 22.3576 41.243 18.7225 39.8355 15.6166 C38.4279 12.5107 36.369 10.1028 33.6586 8.39284 C30.9482 6.68286 27.9063 5.82788 24.5329 5.82788 C19.7403 5.82788 15.6166 7.47387 12.1618 10.7659 C8.70692 14.0579 6.97949 19.5542 6.97949 27.2549 Z" transform="translate(475.689, 195.933)"/>
     <path style="fill:#ffffff; fill-rule:evenodd;stroke:none;" d="M0 27.1502 C0 18.6585 2.27997 12.0105 6.8399 7.20633 C11.3998 2.40211 17.2859 0 24.498 0 C29.2208 0 33.4783 1.12835 37.2705 3.38505 C41.0627 5.64176 43.9534 8.78834 45.9425 12.8248 C47.9317 16.8613 48.9262 21.4387 48.9262 26.557 C48.9262 31.7451 47.8793 36.3864 45.7855 40.4811 C43.6916 44.5757 40.7253 47.6757 36.8866 49.7812 C33.0479 51.8867 28.9067 52.9394 24.4631 52.9394 C19.6473 52.9394 15.3433 51.7762 11.5511 49.4497 C7.75887 47.1232 4.88564 43.9475 2.93139 39.9227 C0.977129 35.8979 0 31.6404 0 27.1502 Z M6.97949 27.2549 C6.97949 33.4201 8.63712 38.2767 11.9524 41.8246 C15.2676 45.3725 19.4263 47.1465 24.4282 47.1465 C29.5233 47.1465 33.7168 45.3551 37.0088 41.7723 C40.3008 38.1895 41.9467 33.1061 41.9467 26.5221 C41.9467 22.3576 41.243 18.7225 39.8355 15.6166 C38.4279 12.5107 36.369 10.1028 33.6586 8.39284 C30.9482 6.68286 27.9063 5.82788 24.5329 5.82788 C19.7403 5.82788 15.6166 7.47387 12.1618 10.7659 C8.70692 14.0579 6.97949 19.5542 6.97949 27.2549 Z" transform="translate(138.689, 585.933)"/>
     <path style="fill:#ffffff; fill-rule:evenodd;stroke:none;" d="M0 27.1502 C0 18.6585 2.27997 12.0105 6.8399 7.20633 C11.3998 2.40211 17.2859 5.68434e-14 24.498 0 C29.2208 5.68434e-14 33.4783 1.12835 37.2705 3.38505 C41.0627 5.64176 43.9534 8.78834 45.9425 12.8248 C47.9317 16.8613 48.9262 21.4387 48.9262 26.557 C48.9262 31.7451 47.8793 36.3864 45.7855 40.4811 C43.6916 44.5757 40.7253 47.6757 36.8866 49.7812 C33.0479 51.8867 28.9067 52.9394 24.4631 52.9394 C19.6473 52.9394 15.3433 51.7762 11.5511 49.4497 C7.75887 47.1232 4.88564 43.9475 2.93139 39.9227 C0.977129 35.8979 0 31.6404 0 27.1502 Z M6.97949 27.2549 C6.97949 33.4201 8.63712 38.2767 11.9524 41.8246 C15.2676 45.3725 19.4263 47.1465 24.4282 47.1465 C29.5233 47.1465 33.7168 45.3551 37.0088 41.7723 C40.3008 38.1895 41.9467 33.1061 41.9467 26.5221 C41.9467 22.3576 41.243 18.7225 39.8355 15.6166 C38.4279 12.5107 36.369 10.1028 33.6586 8.39284 C30.9482 6.68286 27.9063 5.82788 24.5329 5.82788 C19.7403 5.82788 15.6166 7.47387 12.1618 10.7659 C8.70692 14.0579 6.97949 19.5542 6.97949 27.2549 Z" transform="translate(138.689, 390.933)"/>
     <path style="fill:#ffffff; fill-rule:evenodd;stroke:none;" d="M0 27.1502 C0 18.6585 2.27997 12.0105 6.8399 7.20633 C11.3998 2.40211 17.2859 0 24.498 0 C29.2208 0 33.4783 1.12835 37.2705 3.38505 C41.0627 5.64176 43.9534 8.78834 45.9425 12.8248 C47.9317 16.8613 48.9262 21.4387 48.9262 26.557 C48.9262 31.7451 47.8793 36.3864 45.7855 40.4811 C43.6916 44.5757 40.7253 47.6757 36.8866 49.7812 C33.0479 51.8867 28.9067 52.9394 24.4631 52.9394 C19.6473 52.9394 15.3433 51.7762 11.5511 49.4497 C7.75887 47.1232 4.88564 43.9475 2.93139 39.9227 C0.977129 35.8979 0 31.6404 0 27.1502 Z M6.97949 27.2549 C6.97949 33.4201 8.63712 38.2767 11.9524 41.8246 C15.2676 45.3725 19.4263 47.1465 24.4282 47.1465 C29.5233 47.1465 33.7168 45.3551 37.0088 41.7723 C40.3008 38.1895 41.9467 33.1061 41.9467 26.5221 C41.9467 22.3576 41.243 18.7225 39.8355 15.6166 C38.4279 12.5107 36.369 10.1028 33.6586 8.39284 C30.9482 6.68286 27.9063 5.82788 24.5329 5.82788 C19.7403 5.82788 15.6166 7.47387 12.1618 10.7659 C8.70692 14.0579 6.97949 19.5542 6.97949 27.2549 Z" transform="translate(3.68922, 74.933)"/>
     <path style="fill:none;stroke:#ffffff; stroke-width:4.66963; stroke-linecap:round; stroke-linejoin:bevel; stroke-dasharray:none;" d="M33.9076 58.7297 L0 0 " transform="translate(856.69, 652.616)"/>
     <path style="fill:none;stroke:#ffffff; stroke-width:4.66963; stroke-linecap:round; stroke-linejoin:bevel; stroke-dasharray:none;" d="M67.8153 0 L0 0 " transform="translate(722.054, 614.037)"/>
     <path style="fill:none;stroke:#ffffff; stroke-width:4.66963; stroke-linecap:round; stroke-linejoin:bevel; stroke-dasharray:none;" d="M36.8269 0 L0 63.7861 " transform="translate(696.904, 614.037)"/>
     <path style="fill:none;stroke:#ffffff; stroke-width:4.66963; stroke-linecap:round; stroke-linejoin:bevel; stroke-dasharray:none;" d="M36.8269 0 L0 63.7861 " transform="translate(679.388, 603.924)"/>
     <path style="fill:#ffffff; fill-rule:nonzero;stroke:none;" d="M4.04407 0 L0 2.33478 L49.3368 100.811 L70.4895 100.811 " transform="translate(663.85, 515.56)"/>
     <path style="fill:none;stroke:#ffffff; stroke-width:4.66963; stroke-linecap:round; stroke-linejoin:bevel; stroke-dasharray:none;" d="M0 97.3092 L56.1815 0 " transform="translate(665.872, 419.418)"/>
     <path style="fill:none;stroke:#ffffff; stroke-width:4.66963; stroke-linecap:round; stroke-linejoin:bevel; stroke-dasharray:none;" d="M56.1815 97.3092 L0 0 " transform="translate(665.872, 322.109)"/>
     <path style="fill:#ffffff; fill-rule:nonzero;stroke:none;" d="M0 62.0568 L4.04407 64.3917 L43.7144 8.98901 L28.1449 0 " transform="translate(663.85, 258.885)"/>
     <path style="fill:none;stroke:#ffffff; stroke-width:4.66963; stroke-linecap:round; stroke-linejoin:bevel; stroke-dasharray:none;" d="M33.9076 58.7297 L0 0 " transform="translate(665.872, 127.491)"/>
     <path style="fill:none;stroke:#ffffff; stroke-width:4.66963; stroke-linecap:round; stroke-linejoin:bevel; stroke-dasharray:none;" d="M112.363 0 L0 5.68434e-14 " transform="translate(553.509, 127.491)"/>
     <path style="fill:none;stroke:#ffffff; stroke-width:4.66963; stroke-linecap:round; stroke-linejoin:bevel; stroke-dasharray:none;" d="M0 63.7861 L36.8269 0 " transform="translate(654.195, 63.7046)"/>
     <path style="fill:none;stroke:#ffffff; stroke-width:4.66963; stroke-linecap:round; stroke-linejoin:bevel; stroke-dasharray:none;" d="M0 63.7861 L36.8269 0 " transform="translate(671.711, 73.8173)"/>
     <path style="fill:none;stroke:#ffffff; stroke-width:4.66963; stroke-linecap:round; stroke-linejoin:bevel; stroke-dasharray:none;" d="M112.363 0 L0 5.68434e-14 " transform="translate(553.509, 322.109)"/>
     <path style="fill:none;stroke:#ffffff; stroke-width:4.66963; stroke-linecap:round; stroke-linejoin:bevel; stroke-dasharray:none;" d="M36.8269 63.7861 L0 0 " transform="translate(510.844, 268.436)"/>
     <path style="fill:none;stroke:#ffffff; stroke-width:4.66963; stroke-linecap:round; stroke-linejoin:bevel; stroke-dasharray:none;" d="M36.8269 63.7861 L0 0 " transform="translate(528.359, 258.323)"/>
     <path style="fill:#ffffff; fill-rule:nonzero;stroke:none;" d="M0 98.4766 L4.04404 100.811 L70.4895 0 L49.3368 0 " transform="translate(495.306, 319.774)"/>
     <path style="fill:none;stroke:#ffffff; stroke-width:4.66963; stroke-linecap:round; stroke-linejoin:bevel; stroke-dasharray:none;" d="M0 0 L56.1815 97.3092 " transform="translate(497.328, 419.418)"/>
     <path style="fill:none;stroke:#ffffff; stroke-width:4.66963; stroke-linecap:round; stroke-linejoin:bevel; stroke-dasharray:none;" d="M112.363 1.13687e-13 L0 0 " transform="translate(553.509, 516.728)"/>
     <path style="fill:#ffffff; fill-rule:nonzero;stroke:none;" d="M4.04401 0 L0 2.33478 L50.4188 102.971 L65.9882 93.9821 " transform="translate(551.487, 515.56)"/>
     <path style="fill:none;stroke:#ffffff; stroke-width:4.66963; stroke-linecap:round; stroke-linejoin:bevel; stroke-dasharray:none;" d="M56.1815 0 L0 97.3092 " transform="translate(497.328, 516.728)"/>
     <path style="fill:none;stroke:#ffffff; stroke-width:4.66963; stroke-linecap:round; stroke-linejoin:bevel; stroke-dasharray:none;" d="M112.363 0 L0 0 " transform="translate(384.965, 614.037)"/>
     <path style="fill:none;stroke:#ffffff; stroke-width:4.66963; stroke-linecap:round; stroke-linejoin:bevel; stroke-dasharray:none;" d="M56.1815 97.3092 L0 0 " transform="translate(328.783, 516.728)"/>
     <path style="fill:#ffffff; fill-rule:nonzero;stroke:none;" d="M120.528 11.8074 L120.528 7.13776 L0 0 L10.5764 18.3188 " transform="translate(208.255, 507.255)"/>
     <path style="fill:none;stroke:#ffffff; stroke-width:4.66963; stroke-linecap:round; stroke-linejoin:bevel; stroke-dasharray:none;" d="M36.8269 0 L0 63.7861 " transform="translate(191.27, 516.728)"/>
     <path style="fill:none;stroke:#ffffff; stroke-width:4.66963; stroke-linecap:round; stroke-linejoin:bevel; stroke-dasharray:none;" d="M36.8269 0 L0 63.7861 " transform="translate(173.755, 506.615)"/>
     <path style="fill:none;stroke:#ffffff; stroke-width:4.66963; stroke-linecap:round; stroke-linejoin:bevel; stroke-dasharray:none;" d="M33.9076 58.7297 L0 0 " transform="translate(182.513, 457.998)"/>
     <path style="fill:none;stroke:#ffffff; stroke-width:4.66963; stroke-linecap:round; stroke-linejoin:bevel; stroke-dasharray:none;" d="M0 58.7297 L33.9076 0 " transform="translate(182.513, 322.109)"/>
     <path style="fill:none;stroke:#ffffff; stroke-width:4.66963; stroke-linecap:round; stroke-linejoin:bevel; stroke-dasharray:none;" d="M0 0 L112.363 1.13687e-13 " transform="translate(216.42, 322.109)"/>
     <path style="fill:none;stroke:#ffffff; stroke-width:4.66963; stroke-linecap:round; stroke-linejoin:bevel; stroke-dasharray:none;" d="M0 0 L56.1815 97.3092 " transform="translate(328.783, 322.109)"/>
     <path style="fill:none;stroke:#ffffff; stroke-width:4.66963; stroke-linecap:round; stroke-linejoin:bevel; stroke-dasharray:none;" d="M112.363 0 L0 1.13687e-13 " transform="translate(384.965, 419.418)"/>
     <path style="fill:none;stroke:#ffffff; stroke-width:4.66963; stroke-linecap:round; stroke-linejoin:bevel; stroke-dasharray:none;" d="M0 97.3092 L56.1815 0 " transform="translate(328.783, 419.418)"/>
     <path style="fill:#ffffff; fill-rule:nonzero;stroke:none;" d="M0 100.636 L4.04401 102.971 L65.9882 8.98901 L50.4188 0 " transform="translate(382.943, 317.615)"/>
     <path style="fill:none;stroke:#ffffff; stroke-width:4.66963; stroke-linecap:round; stroke-linejoin:bevel; stroke-dasharray:none;" d="M0 8.96 L15.5192 0 " transform="translate(152.661, 220.634)"/>
     <path style="fill:none;stroke:#ffffff; stroke-width:4.66963; stroke-linecap:round; stroke-linejoin:bevel; stroke-dasharray:none;" d="M0 8 L13.8564 0 " transform="translate(159.492, 231.507)"/>
     <path style="fill:none;stroke:#ffffff; stroke-width:4.66963; stroke-linecap:round; stroke-linejoin:bevel; stroke-dasharray:none;" d="M0 7.04 L12.1936 0 " transform="translate(166.323, 242.379)"/>
     <path style="fill:none;stroke:#ffffff; stroke-width:4.66963; stroke-linecap:round; stroke-linejoin:bevel; stroke-dasharray:none;" d="M0 6.08 L10.5309 0 " transform="translate(173.155, 253.251)"/>
     <path style="fill:none;stroke:#ffffff; stroke-width:4.66963; stroke-linecap:round; stroke-linejoin:bevel; stroke-dasharray:none;" d="M0 5.12 L8.8681 0 " transform="translate(179.986, 264.123)"/>
     <path style="fill:none;stroke:#ffffff; stroke-width:4.66963; stroke-linecap:round; stroke-linejoin:bevel; stroke-dasharray:none;" d="M0 4.16 L7.20533 0 " transform="translate(186.818, 274.996)"/>
     <path style="fill:none;stroke:#ffffff; stroke-width:4.66963; stroke-linecap:round; stroke-linejoin:bevel; stroke-dasharray:none;" d="M0 3.2 L5.54256 0 " transform="translate(193.649, 285.868)"/>
     <path style="fill:none;stroke:#ffffff; stroke-width:4.66963; stroke-linecap:round; stroke-linejoin:bevel; stroke-dasharray:none;" d="M0 2.24 L3.87979 0 " transform="translate(200.48, 296.74)"/>
     <path style="fill:none;stroke:#ffffff; stroke-width:4.66963; stroke-linecap:round; stroke-linejoin:bevel; stroke-dasharray:none;" d="M0 1.28 L2.21703 0 " transform="translate(207.312, 307.613)"/>
     <path style="fill:none;stroke:#ffffff; stroke-width:4.66963; stroke-linecap:round; stroke-linejoin:bevel; stroke-dasharray:none;" d="M0 0.32 L0.554256 0 " transform="translate(214.143, 318.485)"/>
     <path style="fill:none;stroke:#ffffff; stroke-width:4.66963; stroke-linecap:round; stroke-linejoin:bevel; stroke-dasharray:none;" d="M111.747 11.7451 L0 0 " transform="translate(48.4912, 213.055)"/>
     <path style="fill:none;stroke:#ffffff; stroke-width:4.66963; stroke-linecap:round; stroke-linejoin:bevel; stroke-dasharray:none;" d="M82.5193 8.67313 L0 0 " transform="translate(65.2194, 194.476)"/>
     <path style="fill:none;stroke:#ffffff; stroke-width:4.66963; stroke-linecap:round; stroke-linejoin:bevel; stroke-dasharray:none;" d="M14.0996 66.3333 L0 0 " transform="translate(34.3916, 146.721)"/>
     <path style="fill:none;stroke:#ffffff; stroke-width:4.66963; stroke-linecap:round; stroke-linejoin:bevel; stroke-dasharray:none;" d="M0 33.9076 L58.7297 0 " transform="translate(63.7091, 46.9657)"/>
     <path style="fill:none;stroke:#ffffff; stroke-width:4.66963; stroke-linecap:round; stroke-linejoin:bevel; stroke-dasharray:none;" d="M0 0 L83.502 75.1855 " transform="translate(122.439, 46.9657)"/>
     <path style="fill:none;stroke:#ffffff; stroke-width:4.66963; stroke-linecap:round; stroke-linejoin:bevel; stroke-dasharray:none;" d="M0 0 L61.6616 55.5203 " transform="translate(119.826, 71.8286)"/>
     <path style="fill:none;stroke:#ffffff; stroke-width:4.66963; stroke-linecap:round; stroke-linejoin:bevel; stroke-dasharray:none;" d="M0 102.649 L45.7021 0 " transform="translate(160.239, 122.151)"/>
    </g>
   </g>
  </g>
 </g>
</svg>
