<?xml version="1.0" encoding="utf-8"?>
<!-- Generator: Adobe Illustrator 23.0.0, SVG Export Plug-In . SVG Version: 6.00 Build 0)  -->
<svg version="1.1"
	 id="svg230" xmlns:cc="http://creativecommons.org/ns#" xmlns:dc="http://purl.org/dc/elements/1.1/" xmlns:rdf="http://www.w3.org/1999/02/22-rdf-syntax-ns#" xmlns:svg="http://www.w3.org/2000/svg"
	 xmlns="http://www.w3.org/2000/svg" xmlns:xlink="http://www.w3.org/1999/xlink" x="0px" y="0px" viewBox="0 0 237.6 178.9"
	 style="enable-background:new 0 0 237.6 178.9;" xml:space="preserve">
<style type="text/css">
	.st0{display:none;}
	.st1{display:inline;}
	.st2{fill:#00ADEE;}
	.st3{fill:#EC297B;}
	.st4{fill:#4FFF88;}
	.st5{fill:#6E31CC;}
</style>
<g id="Layer_1" transform="translate(0.47426841,-9.041)" class="st0">
	<g id="g38" class="st1">
		<g id="g26">
			<g id="g4">
				<path id="path2" class="st2" d="M278.8,52.1h73.5v24.4h-24.7v69h-24.5v-69h-24.2V52.1z"/>
			</g>
			<g id="g8">
				<path id="path6" class="st2" d="M409.1,145.5l-14.4-24.7h-15.2v24.7H355V52.3h39.3c18.9,0,34.3,15.4,34.3,34.3
					c0,9.9-4.4,18.9-11.1,25.1l19.8,33.8L409.1,145.5L409.1,145.5z M379.5,99.6h15.2c7.5,0,13.4-5.8,13.4-13.3
					c0-7.5-6-13.4-13.4-13.4h-15.2V99.6z"/>
			</g>
			<g id="g12">
				<path id="path10" class="st2" d="M435,52.3h24.5v93.2H435V52.3z"/>
			</g>
			<g id="g16">
				<path id="path14" class="st2" d="M464.1,52.3h39.3c18.9,0,34.3,15.4,34.3,34.3c0,18.8-15.3,34.2-33.8,34.2h-15.3v24.7h-24.5
					L464.1,52.3z M488.6,99.6h15.2c7.5,0,13.4-5.8,13.4-13.3c0-7.5-6-13.4-13.4-13.4h-15.2V99.6z"/>
			</g>
			<g id="g20">
				<path id="path18" class="st2" d="M587.2,147h-47.5V50.8h42.6c15.8,0,29.1,13.4,29.1,29.2c0,5.8-1.9,11.6-5.4,16.5
					c6.3,5.6,10,13.6,10,21.6C616,133.8,602.8,147,587.2,147z M542.7,144h44.5c14,0,25.8-11.8,25.8-25.8c0-7.6-3.7-15.2-10-20.2
					l-1.2-0.9l0.9-1.2c3.6-4.6,5.6-10.3,5.6-15.9c0-14.2-11.9-26.2-26.1-26.2h-39.6V144z M582.1,126.8h-17.9v-19.2h17.9
					c5.2,0,9.6,4.4,9.6,9.6C591.6,122.5,587.3,126.8,582.1,126.8L582.1,126.8z M567.1,123.8h14.9c3.6,0,6.6-3,6.6-6.6
					c0-3.5-3.1-6.6-6.6-6.6h-14.9V123.8z M577.5,90.2h-13.3V71h13.3c5.3,0,9.6,4.3,9.6,9.6C587,85.9,582.7,90.2,577.5,90.2z
					 M567.1,87.2h10.3c3.6,0,6.6-3,6.6-6.6c0-3.6-3-6.6-6.6-6.6h-10.3V87.2z"/>
			</g>
			<g id="g24">
				<path id="path22" class="st2" d="M662.8,147h-27.2v-35.4l-35.2-60.8h31.7l17,29.6l17.2-29.6H698l-35.2,60.8V147z M638.6,144
					h21.2v-33.2l0.2-0.3l32.8-56.7h-24.8l-18.9,32.6l-18.8-32.6h-24.7l33,57L638.6,144L638.6,144z"/>
			</g>
		</g>
		<g id="g36">
			<g id="g30">
				<path id="path28" class="st2" d="M173,39.2v62.5v4.8h4.8h28.4v51.8h-61.6h-4.8v4.8V192H88.8v-62.5v-4.8H84H55.6V72.9h61.6h4.8
					v-4.8V39.2L173,39.2 M177.8,34.4h-60.6v33.7H50.8l0,0v61.4H84v67.4l0,0h60.6v-33.7H211l0,0v-61.4h-33.2V34.4z"/>
			</g>
			<g id="g34">
				<path id="path32" class="st3" d="M195.9,5.8v62.4V73h4.8h28.6v51.7h-62h-4.8v4.8v28.8h-51.3V95.9v-4.8h-4.8H77.7V39.4h62h4.8
					v-4.8V5.8H195.9 M200.7,1h-61v33.6H72.9l0,0v61.3h33.4v67.3l0,0h61v-33.6h66.9l0,0V68.2h-33.4V1z"/>
			</g>
		</g>
	</g>
</g>
<g transform="translate(0.47426841,-9.041)" class="st0">
	<g id="g77" class="st1">
		<g id="g49">
			<g id="g43">
				<path id="path41" class="st2" d="M151,172.2H30.4V48.5h47.8V1.1h120.6v123.7H151V172.2z M35.7,166.9h110v-47.4h47.8V6.4h-110
					v47.4H35.7V166.9z"/>
			</g>
			<g id="g47">
				<path id="path45" class="st3" d="M186,195.9H64.6V72.2h48.1V24.8h121.3v123.7H186L186,195.9L186,195.9z M69.9,190.6h110.7v-47.4
					h48.1V30.1H118.1v47.4H69.9V190.6z"/>
			</g>
		</g>
		<g id="g75">
			<g id="g53">
				<path id="path51" class="st2" d="M278.7,51.7h73.5v24.4h-24.7v69H303v-69h-24.2V51.7z"/>
			</g>
			<g id="g57">
				<path id="path55" class="st2" d="M409,145.1l-14.4-24.7h-15.2v24.7H355V51.9h39.3c18.9,0,34.3,15.4,34.3,34.3
					c0,9.9-4.4,18.9-11.1,25.1l19.8,33.8L409,145.1L409,145.1z M379.5,99.2h15.2c7.5,0,13.4-5.8,13.4-13.3s-6-13.4-13.4-13.4h-15.2
					V99.2z"/>
			</g>
			<g id="g61">
				<path id="path59" class="st2" d="M435,51.9h24.5v93.3H435V51.9z"/>
			</g>
			<g id="g65">
				<path id="path63" class="st2" d="M464.1,51.9h39.3c18.9,0,34.3,15.4,34.3,34.3c0,18.8-15.3,34.2-33.8,34.2h-15.3v24.7h-24.5
					V51.9z M488.6,99.2h15.2c7.5,0,13.4-5.8,13.4-13.3s-6-13.4-13.4-13.4h-15.2V99.2z"/>
			</g>
			<g id="g69">
				<path id="path67" class="st2" d="M587.2,146.6h-47.5V50.4h42.7c15.8,0,29.1,13.4,29.1,29.2c0,5.8-1.9,11.6-5.4,16.5
					c6.3,5.6,10,13.6,10,21.6C616.1,133.4,602.8,146.6,587.2,146.6z M542.7,143.6h44.5c14,0,25.9-11.8,25.9-25.9
					c0-7.6-3.7-15.2-10-20.2l-1.2-0.9l0.9-1.2c3.6-4.7,5.6-10.3,5.6-15.9c0-14.2-12-26.2-26.1-26.2h-39.7L542.7,143.6L542.7,143.6z
					 M582.1,126.5h-17.9v-19.2h17.9c5.2,0,9.6,4.4,9.6,9.6C591.7,122.2,587.4,126.5,582.1,126.5z M567.2,123.5h14.9
					c3.6,0,6.6-3,6.6-6.6c0-3.5-3.1-6.6-6.6-6.6h-14.9V123.5z M577.5,89.8h-13.3V70.6h13.3c5.3,0,9.6,4.3,9.6,9.6
					C587.1,85.5,582.8,89.8,577.5,89.8L577.5,89.8z M567.2,86.8h10.3c3.6,0,6.6-3,6.6-6.6c0-3.6-3-6.6-6.6-6.6h-10.3L567.2,86.8z"/>
			</g>
			<g id="g73">
				<path id="path71" class="st2" d="M662.9,146.6h-27.2v-35.4l-35.2-60.8h31.7l17,29.6l17.2-29.6h31.7l-35.2,60.8L662.9,146.6z
					 M638.7,143.6h21.2v-33.2l0.2-0.3l32.8-56.7h-24.8l-18.9,32.6l-18.8-32.6h-24.8l33,57L638.7,143.6z"/>
			</g>
		</g>
	</g>
</g>
<g id="Layer_3" transform="translate(0.47426841,-9.041)" class="st0">
	<g id="g120" class="st1">
		<g id="g92">
			<g id="g84">
				<g id="g82">
					<path id="path80" class="st2" d="M130.5,186.8H-0.4V58.9h51.8V10.2h130.9v127.9h-51.8L130.5,186.8L130.5,186.8z M5.6,180.8
						h118.9v-48.7h51.8V16.2H57.4v48.7H5.6V180.8z"/>
				</g>
			</g>
			<g id="g90">
				<g id="g88">
					<path id="path86" class="st3" d="M182.3,186.8H51.4V58.9h51.8V10.2h130.9v127.9h-51.8V186.8z M57.4,180.8h118.9v-48.7h51.8
						V16.2H109.2v48.7H57.4V180.8z"/>
				</g>
			</g>
		</g>
		<g id="g118">
			<g id="g96">
				<path id="path94" class="st2" d="M278.4,51.7H352v24.4h-24.8v69.1h-24.5V76.1h-24.3V51.7z"/>
			</g>
			<g id="g100">
				<path id="path98" class="st2" d="M408.9,145.3l-14.4-24.8h-15.2v24.8h-24.5V51.9h39.4c18.9,0,34.4,15.4,34.4,34.4
					c0,10-4.4,18.9-11.1,25.2l19.8,33.9L408.9,145.3L408.9,145.3z M379.3,99.3h15.2c7.5,0,13.4-5.9,13.4-13.3s-6-13.4-13.4-13.4
					h-15.2V99.3z"/>
			</g>
			<g id="g104">
				<path id="path102" class="st2" d="M434.9,51.9h24.5v93.4h-24.5V51.9z"/>
			</g>
			<g id="g108">
				<path id="path106" class="st2" d="M464.1,51.9h39.4c18.9,0,34.4,15.4,34.4,34.4c0,18.8-15.3,34.2-33.9,34.2h-15.3v24.8h-24.5
					L464.1,51.9L464.1,51.9z M488.6,99.3h15.2c7.5,0,13.4-5.9,13.4-13.3s-6-13.4-13.4-13.4h-15.2V99.3z"/>
			</g>
			<g id="g112">
				<path id="path110" class="st2" d="M587.3,146.8h-47.6V50.4h42.7c15.8,0,29.1,13.4,29.1,29.3c0,5.8-1.9,11.6-5.4,16.6
					c6.3,5.6,10,13.6,10,21.7C616.2,133.5,603,146.8,587.3,146.8L587.3,146.8z M542.8,143.8h44.6c14,0,25.9-11.9,25.9-25.9
					c0-7.6-3.7-15.2-10-20.3l-1.2-0.9l0.9-1.2c3.6-4.7,5.7-10.3,5.7-15.9c0-14.2-12-26.3-26.1-26.3h-39.7L542.8,143.8L542.8,143.8z
					 M582.2,126.6h-17.9v-19.2h17.9c5.2,0,9.6,4.4,9.6,9.6C591.8,122.3,587.5,126.6,582.2,126.6z M567.3,123.6h14.9
					c3.6,0,6.6-3,6.6-6.6c0-3.5-3.1-6.6-6.6-6.6h-14.9L567.3,123.6z M577.6,89.9h-13.3V70.7h13.3c5.3,0,9.6,4.3,9.6,9.6
					S582.9,89.9,577.6,89.9z M567.3,86.8h10.3c3.6,0,6.6-3,6.6-6.6s-3-6.6-6.6-6.6h-10.3V86.8z"/>
			</g>
			<g id="g116">
				<path id="path114" class="st2" d="M663.2,146.8h-27.3v-35.5l-35.2-60.9h31.7L649.5,80l17.2-29.6h31.7l-35.2,60.9L663.2,146.8
					L663.2,146.8z M638.9,143.8h21.3v-33.3l33-57.1h-24.8L649.5,86l-18.8-32.6h-24.8l33,57.1L638.9,143.8L638.9,143.8z"/>
			</g>
		</g>
	</g>
</g>
<g id="Layer_4" transform="translate(0.47426841,-9.041)">
	<g id="g161">
		<g id="g127">
			<g id="g125">
				<path id="path123" class="st4" d="M132.1,188H-0.5V58.4h132.6L132.1,188L132.1,188z M5.5,181.9h120.6V64.5H5.5V181.9z"/>
			</g>
		</g>
		<g id="g133">
			<g id="g131">
				<path id="path129" class="st4" d="M184.6,138.6H52V9h132.6L184.6,138.6L184.6,138.6z M58,132.5h120.6V15.1H58V132.5z"/>
			</g>
		</g>
		<g id="g141">
			<g id="g139">
				<g id="g137">
					
						<rect id="rect135" x="-8.2" y="33" transform="matrix(0.7283 -0.6853 0.6853 0.7283 -17.0916 28.8505)" class="st4" width="72.1" height="6"/>
				</g>
			</g>
		</g>
		<g id="g147">
			<g id="g145">
				
					<rect id="rect143" x="120.3" y="32.9" transform="matrix(0.7283 -0.6853 0.6853 0.7283 17.843 116.8855)" class="st4" width="72.1" height="6"/>
			</g>
		</g>
		<g id="g153">
			<g id="g151">
				
					<rect id="rect149" x="-7.3" y="157.2" transform="matrix(0.7283 -0.6853 0.6853 0.7283 -102.0003 63.2602)" class="st4" width="72.1" height="6"/>
			</g>
		</g>
		<g id="g159">
			<g id="g157">
				
					<rect id="rect155" x="120.3" y="158.1" transform="matrix(0.7283 -0.6853 0.6853 0.7283 -67.9086 150.8824)" class="st4" width="72.1" height="6"/>
			</g>
		</g>
	</g>
	<g id="g225">
		<g id="g193">
			<g id="g191">
				
					<rect id="rect189" x="44.2" y="32.9" transform="matrix(0.7283 -0.6853 0.6853 0.7283 -2.8167 64.7753)" class="st5" width="72.1" height="6"/>
			</g>
		</g>
		<g id="g199">
			<g id="g197">
				
					<rect id="rect195" x="171.8" y="33.7" transform="matrix(0.7283 -0.6853 0.6853 0.7283 31.2912 152.4283)" class="st5" width="72.1" height="6"/>
			</g>
		</g>
		<g id="g205">
			<g id="g203">
				
					<rect id="rect201" x="45.2" y="157.2" transform="matrix(0.7283 -0.6853 0.6853 0.7283 -87.7391 99.2312)" class="st5" width="72.1" height="6"/>
			</g>
		</g>
		<g id="g211">
			<g id="g209">
				
					<rect id="rect207" x="172.8" y="158.1" transform="matrix(0.7283 -0.6853 0.6853 0.7283 -53.6474 186.8535)" class="st5" width="72.1" height="6"/>
			</g>
		</g>
		<g id="g217">
			<g id="g215">
				<path id="path213" class="st5" d="M184.6,188H52V58.4h132.6L184.6,188L184.6,188z M58,181.9h120.6V64.5H58V181.9z"/>
			</g>
		</g>
		<g id="g223">
			<g id="g221">
				<path id="path219" class="st5" d="M237.1,138.6H104.5V9h132.6V138.6z M110.5,132.5h120.6V15.1H110.5L110.5,132.5L110.5,132.5z"
					/>
			</g>
		</g>
	</g>
</g>
</svg>
