<?xml version="1.0" encoding="UTF-8" standalone="no"?>
<svg
   xmlns:dc="http://purl.org/dc/elements/1.1/"
   xmlns:cc="http://creativecommons.org/ns#"
   xmlns:rdf="http://www.w3.org/1999/02/22-rdf-syntax-ns#"
   xmlns:svg="http://www.w3.org/2000/svg"
   xmlns="http://www.w3.org/2000/svg"
   id="svg230"
   xml:space="preserve"
   enable-background="new 0 0 698 197"
   viewBox="0 0 237.58627 178.92473"
   height="178.92473"
   width="237.58627"
   y="0px"
   x="0px"
   version="1.1"><metadata
     id="metadata236"><rdf:RDF><cc:Work
         rdf:about=""><dc:format>image/svg+xml</dc:format><dc:type
           rdf:resource="http://purl.org/dc/dcmitype/StillImage" /><dc:title></dc:title></cc:Work></rdf:RDF></metadata><defs
     id="defs234" /><g
     transform="translate(0.47426841,-9.041)"
     style="display:none"
     display="none"
     id="Layer_1"><g
       style="display:inline"
       id="g38"
       display="inline"><g
         id="g26"><g
           id="g4"><path
             style="fill:#00adee"
             id="path2"
             d="m 278.819,52.132 h 73.456 v 24.361 h -24.734 v 68.982 H 303.056 V 76.493 h -24.237 z" /></g><g
           id="g8"><path
             style="fill:#00adee"
             id="path6"
             d="M 409.069,145.474 394.652,120.74 h -15.164 v 24.734 H 355.003 V 52.256 h 39.277 c 18.893,0 34.305,15.413 34.305,34.305 0,9.943 -4.351,18.892 -11.063,25.106 l 19.761,33.808 H 409.069 Z M 379.487,99.612 h 15.164 c 7.457,0 13.423,-5.842 13.423,-13.299 0,-7.457 -5.965,-13.424 -13.423,-13.424 h -15.164 z" /></g><g
           id="g12"><path
             style="fill:#00adee"
             id="path10"
             d="m 435.04,52.256 h 24.485 v 93.218 H 435.04 Z" /></g><g
           id="g16"><path
             style="fill:#00adee"
             id="path14"
             d="m 464.118,52.256 h 39.276 c 18.891,0 34.305,15.413 34.305,34.305 0,18.768 -15.29,34.179 -33.808,34.179 h -15.288 v 24.734 h -24.485 z m 24.486,47.356 h 15.163 c 7.457,0 13.423,-5.842 13.423,-13.299 0,-7.457 -5.965,-13.424 -13.423,-13.424 h -15.163 z" /></g><g
           id="g20"><path
             style="fill:#00adee"
             id="path18"
             d="M 587.152,146.974 H 539.664 V 50.757 h 42.641 c 15.768,0 29.09,13.379 29.09,29.216 0,5.785 -1.915,11.606 -5.418,16.544 6.299,5.58 10.019,13.557 10.019,21.615 0,15.634 -13.208,28.842 -28.844,28.842 z m -44.489,-2.999 h 44.489 c 14.011,0 25.845,-11.835 25.845,-25.844 0,-7.619 -3.74,-15.173 -10.004,-20.21 l -1.154,-0.927 0.914,-1.166 c 3.64,-4.648 5.643,-10.278 5.643,-15.856 0,-14.211 -11.949,-26.217 -26.091,-26.217 h -39.642 z m 39.393,-17.136 H 564.15 v -19.158 h 17.906 c 5.192,0 9.579,4.386 9.579,9.578 0,5.283 -4.296,9.58 -9.579,9.58 z m -14.907,-2.999 h 14.907 c 3.629,0 6.581,-2.952 6.581,-6.581 0,-3.504 -3.075,-6.579 -6.581,-6.579 H 567.149 Z M 577.458,90.173 H 564.15 V 71.015 h 13.308 c 5.28,0 9.577,4.298 9.577,9.58 0,5.282 -4.297,9.578 -9.577,9.578 z m -10.309,-2.999 h 10.309 c 3.626,0 6.578,-2.952 6.578,-6.579 0,-3.629 -2.952,-6.581 -6.578,-6.581 h -10.309 z" /></g><g
           id="g24"><path
             style="fill:#00adee"
             id="path22"
             d="m 662.848,146.974 h -27.233 v -35.4 L 600.46,50.757 h 31.676 l 17.039,29.578 17.153,-29.578 H 698 l -35.152,60.817 z m -24.235,-2.999 h 21.235 v -33.206 l 0.202,-0.347 32.754,-56.666 h -24.75 L 649.161,86.327 630.4,53.756 h -24.747 l 32.959,57.013 v 33.206 z" /></g></g><g
         id="g36"><g
           id="g30"><path
             style="fill:#00adee"
             id="path28"
             d="m 172.972,39.212 v 62.541 4.821 h 4.821 28.388 v 51.777 h -61.595 -4.821 v 4.821 28.86 H 88.85 V 129.49 124.669 H 84.029 55.641 V 72.892 h 61.595 4.821 v -4.821 -28.86 h 50.915 m 4.82,-4.82 H 117.236 V 68.072 H 50.82 v 0 61.418 h 33.208 v 67.361 0 h 60.556 V 163.17 H 211 v 0 -61.418 H 177.792 V 34.391 Z" /></g><g
           id="g34"><path
             style="fill:#ec297b"
             id="path32"
             d="m 195.859,5.783 v 62.436 4.821 h 4.821 28.609 v 51.681 h -62.038 -4.821 v 4.821 28.808 H 111.112 V 95.913 91.092 H 106.291 77.683 V 39.41 h 62.038 4.821 V 34.589 5.783 h 51.317 M 200.68,0.962 H 139.721 V 34.59 H 72.863 v 0 61.323 h 33.429 v 67.257 0 h 60.959 v -33.629 h 66.858 v 0 -61.322 H 200.68 V 0.962 Z" /></g></g></g></g><g
     transform="translate(0.47426841,-9.041)"
     style="display:none"
     display="none"
     id="Layer_2"><g
       style="display:inline"
       id="g77"
       display="inline"><g
         id="g49"><g
           id="g43"><path
             style="fill:#00adee"
             id="path41"
             d="M 150.985,172.169 H 30.413 V 48.46 H 78.208 V 1.098 H 198.78 V 124.807 H 150.985 Z M 35.716,166.866 h 109.966 v -47.362 h 47.795 V 6.401 H 83.511 V 53.763 H 35.716 Z" /></g><g
           id="g47"><path
             style="fill:#ec297b"
             id="path45"
             d="M 185.994,195.902 H 64.645 V 72.193 h 48.117 V 24.831 H 234.109 V 148.54 h -48.116 v 47.362 z M 69.948,190.599 h 110.743 v -47.362 h 48.116 V 30.134 H 118.065 V 77.496 H 69.948 Z" /></g></g><g
         id="g75"><g
           id="g53"><path
             style="fill:#00adee"
             id="path51"
             d="m 278.745,51.735 h 73.485 v 24.37 h -24.744 v 69.008 H 302.991 V 76.106 h -24.246 z" /></g><g
           id="g57"><path
             style="fill:#00adee"
             id="path55"
             d="M 409.045,145.114 394.622,120.37 h -15.17 v 24.744 H 354.957 V 51.86 h 39.292 c 18.9,0 34.318,15.419 34.318,34.318 0,9.947 -4.353,18.899 -11.067,25.116 l 19.769,33.821 h -28.224 z m -29.593,-45.88 h 15.17 c 7.46,0 13.428,-5.844 13.428,-13.305 0,-7.461 -5.968,-13.429 -13.428,-13.429 h -15.17 z" /></g><g
           id="g61"><path
             style="fill:#00adee"
             id="path59"
             d="m 435.026,51.86 h 24.495 v 93.254 h -24.495 z" /></g><g
           id="g65"><path
             style="fill:#00adee"
             id="path63"
             d="m 464.116,51.86 h 39.291 c 18.898,0 34.318,15.419 34.318,34.318 0,18.775 -15.296,34.193 -33.821,34.193 h -15.293 v 24.744 h -24.495 z m 24.495,47.374 h 15.169 c 7.46,0 13.428,-5.844 13.428,-13.305 0,-7.461 -5.968,-13.429 -13.428,-13.429 h -15.169 z" /></g><g
           id="g69"><path
             style="fill:#00adee"
             id="path67"
             d="M 587.197,146.614 H 539.691 V 50.36 h 42.657 c 15.774,0 29.101,13.385 29.101,29.227 0,5.788 -1.916,11.611 -5.42,16.55 6.302,5.583 10.023,13.562 10.023,21.623 0,15.641 -13.213,28.854 -28.855,28.854 z m -44.506,-3 h 44.506 c 14.016,0 25.855,-11.839 25.855,-25.854 0,-7.622 -3.741,-15.179 -10.008,-20.218 l -1.154,-0.927 0.914,-1.166 c 3.642,-4.65 5.646,-10.282 5.646,-15.862 0,-14.217 -11.953,-26.227 -26.101,-26.227 h -39.657 v 90.254 z m 39.408,-17.142 h -17.912 v -19.165 h 17.912 c 5.194,0 9.583,4.387 9.583,9.582 0,5.284 -4.298,9.583 -9.583,9.583 z m -14.912,-3 h 14.912 c 3.63,0 6.583,-2.953 6.583,-6.583 0,-3.505 -3.076,-6.582 -6.583,-6.582 h -14.912 z m 10.312,-33.68 H 564.186 V 70.627 h 13.313 c 5.282,0 9.58,4.299 9.58,9.583 0.001,5.284 -4.297,9.582 -9.58,9.582 z m -10.312,-3 H 577.5 c 3.627,0 6.58,-2.953 6.58,-6.582 0,-3.63 -2.953,-6.583 -6.58,-6.583 h -10.313 z" /></g><g
           id="g73"><path
             style="fill:#00adee"
             id="path71"
             d="M 662.922,146.614 H 635.678 V 111.201 L 600.51,50.36 h 31.688 l 17.045,29.588 17.16,-29.588 h 31.685 l -35.166,60.841 z m -24.244,-3 h 21.244 v -33.219 l 0.202,-0.347 32.766,-56.688 h -24.759 l -18.9,32.582 -18.768,-32.582 h -24.756 l 32.971,57.035 z" /></g></g></g></g><g
     transform="translate(0.47426841,-9.041)"
     style="display:none"
     display="none"
     id="Layer_3"><g
       style="display:inline"
       id="g120"
       display="inline"><g
         id="g92"><g
           id="g84"><g
             id="g82"><path
               style="fill:#00adee"
               id="path80"
               d="M 130.524,186.81 H -0.396 V 58.936 H 51.396 V 10.19 H 182.318 V 138.065 H 130.525 V 186.81 Z M 5.613,180.801 h 118.901 v -48.746 h 51.793 V 16.199 H 57.405 V 64.945 H 5.613 Z" /></g></g><g
           id="g90"><g
             id="g88"><path
               style="fill:#ec297b"
               id="path86"
               d="M 182.318,186.81 H 51.396 V 58.936 h 51.793 V 10.19 H 234.11 V 138.065 H 182.318 Z M 57.405,180.801 H 176.308 V 132.055 H 228.1 V 16.199 H 109.199 V 64.945 H 57.405 Z" /></g></g></g><g
         id="g118"><g
           id="g96"><path
             style="fill:#00adee"
             id="path94"
             d="m 278.387,51.737 h 73.601 v 24.409 h -24.783 v 69.117 H 302.671 V 76.146 h -24.284 z" /></g><g
           id="g100"><path
             style="fill:#00adee"
             id="path98"
             d="m 408.894,145.264 -14.446,-24.783 h -15.194 v 24.783 H 354.72 V 51.862 h 39.354 c 18.93,0 34.372,15.443 34.372,34.372 0,9.962 -4.36,18.929 -11.085,25.155 l 19.8,33.874 h -28.267 z m -29.64,-45.953 h 15.194 c 7.472,0 13.449,-5.854 13.449,-13.326 0,-7.472 -5.977,-13.45 -13.449,-13.45 h -15.194 z" /></g><g
           id="g104"><path
             style="fill:#00adee"
             id="path102"
             d="m 434.915,51.862 h 24.534 v 93.402 h -24.534 z" /></g><g
           id="g108"><path
             style="fill:#00adee"
             id="path106"
             d="m 464.052,51.862 h 39.353 c 18.928,0 34.372,15.443 34.372,34.372 0,18.805 -15.32,34.247 -33.874,34.247 h -15.318 v 24.783 H 464.051 V 51.862 Z m 24.533,47.449 h 15.193 c 7.472,0 13.449,-5.854 13.449,-13.326 0,-7.472 -5.977,-13.45 -13.449,-13.45 h -15.193 z" /></g><g
           id="g112"><path
             style="fill:#00adee"
             id="path110"
             d="m 587.327,146.766 h -47.58 V 50.36 h 42.723 c 15.8,0 29.149,13.404 29.149,29.273 0,5.795 -1.919,11.629 -5.43,16.576 6.31,5.59 10.039,13.583 10.039,21.656 0,15.667 -13.236,28.901 -28.901,28.901 z m -44.575,-3.004 h 44.575 c 14.037,0 25.896,-11.858 25.896,-25.896 0,-7.635 -3.747,-15.203 -10.025,-20.25 l -1.156,-0.93 0.916,-1.168 c 3.649,-4.654 5.657,-10.297 5.657,-15.884 0,-14.238 -11.972,-26.269 -26.144,-26.269 h -39.718 v 90.397 z m 39.471,-17.17 H 564.28 v -19.197 h 17.942 c 5.203,0 9.597,4.396 9.597,9.598 0.001,5.295 -4.304,9.599 -9.596,9.599 z m -14.938,-3.004 h 14.938 c 3.634,0 6.592,-2.958 6.592,-6.594 0,-3.512 -3.081,-6.594 -6.592,-6.594 H 567.285 Z M 577.613,89.854 H 564.28 V 70.657 h 13.332 c 5.292,0 9.597,4.305 9.597,9.598 0,5.293 -4.304,9.599 -9.596,9.599 z m -10.328,-3.005 h 10.328 c 3.634,0 6.592,-2.958 6.592,-6.594 0,-3.636 -2.958,-6.594 -6.592,-6.594 h -10.328 z" /></g><g
           id="g116"><path
             style="fill:#00adee"
             id="path114"
             d="m 663.173,146.766 h -27.29 V 111.295 L 600.659,50.36 H 632.4 l 17.069,29.634 17.188,-29.634 h 31.738 l -35.223,60.935 v 35.471 z m -24.285,-3.004 h 21.28 v -33.27 L 693.187,53.365 H 668.388 L 649.46,85.998 630.662,53.365 h -24.796 l 33.021,57.127 v 33.27 z" /></g></g></g></g><g
     transform="translate(0.47426841,-9.041)"
     id="Layer_4"><g
       id="g161"><g
         id="g127"><g
           id="g125"><path
             d="M 132.133,187.959 H -0.473 V 58.441 H 132.132 V 187.959 Z M 5.54,181.947 H 126.12 V 64.454 H 5.54 Z"
             id="path123"
             style="fill:#00adee" /></g></g><g
         id="g133"><g
           id="g131"><path
             d="M 184.622,138.556 H 52.016 V 9.041 H 184.621 V 138.556 Z M 58.029,132.543 h 120.58 V 15.053 H 58.029 Z"
             id="path129"
             style="fill:#00adee" /></g></g><g
         id="g141"><g
           id="g139"><g
             id="g137"><rect
               x="24.829"
               y="-0.063000001"
               transform="matrix(0.6853,0.7283,-0.7283,0.6853,34.9604,-8.9506)"
               width="6.0149999"
               height="72.080002"
               id="rect135"
               style="fill:#00adee" /></g></g></g><g
         id="g147"><g
           id="g145"><rect
             x="153.30901"
             y="-0.104"
             transform="matrix(0.6853,0.7283,-0.7283,0.6853,75.3628,-102.5296)"
             width="6.0149999"
             height="72.080002"
             id="rect143"
             style="fill:#00adee" /></g></g><g
         id="g153"><g
           id="g151"><rect
             x="25.771"
             y="124.211"
             transform="matrix(0.6853,0.7283,-0.7283,0.6853,125.7607,29.4726)"
             width="6.0149999"
             height="72.082001"
             id="rect149"
             style="fill:#00adee" /></g></g><g
         id="g159"><g
           id="g157"><rect
             x="153.30901"
             y="125.027"
             transform="matrix(0.6853,0.7283,-0.7283,0.6853,166.4908,-63.1512)"
             width="6.0149999"
             height="72.082001"
             id="rect155"
             style="fill:#00adee" /></g></g></g><g
       id="g225"><g
         id="g193"><g
           id="g191"><rect
             x="77.267998"
             y="-0.104"
             transform="matrix(0.6853,0.7283,-0.7283,0.6853,51.4331,-47.1524)"
             width="6.0149999"
             height="72.081001"
             id="rect189"
             style="fill:#ec297b" /></g></g><g
         id="g199"><g
           id="g197"><rect
             x="204.853"
             y="0.70700002"
             transform="matrix(0.6853,0.7283,-0.7283,0.6853,92.1743,-139.812)"
             width="6.0149999"
             height="72.081001"
             id="rect195"
             style="fill:#ec297b" /></g></g><g
         id="g205"><g
           id="g203"><rect
             x="78.261002"
             y="124.21"
             transform="matrix(0.6853,0.7283,-0.7283,0.6853,142.279,-8.7535)"
             width="6.0149999"
             height="72.083"
             id="rect201"
             style="fill:#ec297b" /></g></g><g
         id="g211"><g
           id="g209"><rect
             x="205.799"
             y="125.026"
             transform="matrix(0.6853,0.7283,-0.7283,0.6853,183.0092,-101.3772)"
             width="6.0149999"
             height="72.083"
             id="rect207"
             style="fill:#ec297b" /></g></g><g
         id="g217"><g
           id="g215"><path
             d="M 184.622,187.959 H 52.016 V 58.441 H 184.621 V 187.959 Z M 58.029,181.947 h 120.58 V 64.454 H 58.029 Z"
             id="path213"
             style="fill:#ec297b" /></g></g><g
         id="g223"><g
           id="g221"><path
             d="M 237.112,138.556 H 104.507 V 9.041 H 237.112 Z M 110.519,132.543 H 231.1 V 15.053 H 110.52 v 117.49 z"
             id="path219"
             style="fill:#ec297b" /></g></g></g></g></svg>