<?xml version="1.0" standalone="no"?>
<!DOCTYPE svg PUBLIC "-//W3C//DTD SVG 20010904//EN"
 "http://www.w3.org/TR/2001/REC-SVG-20010904/DTD/svg10.dtd">
<svg version="1.0" xmlns="http://www.w3.org/2000/svg"
 width="952.000000pt" height="952.000000pt" viewBox="0 0 952.000000 952.000000"
 preserveAspectRatio="xMidYMid meet">
<metadata>
Created by potrace 1.11, written by Peter Selinger 2001-2013
</metadata>
<g transform="translate(0.000000,952.000000) scale(0.100000,-0.100000)"
fill="#000000" stroke="none">
<path d="M2035 8274 c-67 -63 -293 -277 -360 -339 -98 -92 -313 -295 -345
-325 -21 -19 -98 -92 -171 -161 -74 -70 -150 -141 -169 -159 -50 -46 -262
-246 -325 -305 -29 -27 -108 -102 -175 -165 -67 -63 -141 -133 -165 -155 -174
-166 -308 -291 -316 -293 -5 -2 -9 -1016 -9 -2603 l0 -2599 3709 0 3708 0 45
43 c25 23 105 98 178 167 73 69 152 143 175 165 23 22 93 87 154 145 62 58
143 134 181 170 37 36 120 114 184 174 64 60 136 127 160 150 24 22 98 93 166
156 67 63 148 140 180 170 31 30 106 100 165 155 59 55 131 123 160 150 69 66
277 261 321 301 l34 32 0 2596 0 2596 -3707 0 -3708 0 -70 -66z m1888 -196
c-10 -12 -36 -38 -57 -57 -21 -20 -63 -58 -92 -86 -29 -27 -107 -102 -175
-165 -67 -63 -139 -131 -159 -150 -20 -19 -97 -91 -170 -160 -73 -69 -154
-145 -181 -170 -46 -44 -247 -233 -318 -299 -84 -78 -318 -300 -364 -344 -28
-26 -53 -45 -56 -41 -3 3 -6 340 -6 749 l0 743 798 0 799 1 -19 -21z m2984
-62 c-76 -72 -214 -202 -362 -341 -104 -97 -310 -292 -369 -348 -34 -32 -96
-91 -139 -130 -43 -40 -115 -108 -161 -152 -46 -44 -128 -120 -181 -170 -53
-49 -120 -112 -149 -140 -29 -27 -113 -106 -186 -175 -73 -69 -149 -141 -170
-161 l-38 -36 -339 -1 c-186 0 -345 1 -353 4 -13 3 -15 104 -13 841 1 461 2
850 2 864 l1 25 1271 0 1270 0 -84 -80z m2106 6 c-155 -147 -336 -317 -397
-375 -33 -32 -104 -98 -156 -147 -52 -49 -118 -110 -146 -137 -197 -186 -324
-305 -354 -333 -19 -18 -71 -67 -116 -109 -104 -98 -339 -320 -383 -360 -18
-17 -36 -31 -40 -31 -4 0 -7 1471 -2 1552 1 15 66 16 838 16 l837 0 -81 -76z
m-6910 -834 c0 -441 -2 -808 -2 -815 -1 -8 -30 -11 -101 -10 -55 1 -100 -2
-100 -6 0 -5 -5 -5 -10 -2 -6 4 -39 6 -73 5 -34 -1 -66 -1 -72 -1 -37 1 -126
1 -185 0 -25 0 -49 -1 -55 0 -11 0 -89 1 -120 1 -36 -1 -270 -1 -280 -1 -40 1
-126 1 -185 0 -25 0 -49 -1 -55 0 -14 1 -97 1 -115 0 -8 0 -41 1 -73 3 -31 2
-57 -1 -57 -5 0 -5 -5 -5 -10 -2 -6 4 -39 6 -73 5 -34 -1 -69 -1 -77 -1 -8 1
-34 1 -57 1 -34 0 -41 3 -36 15 3 9 7 14 9 12 3 -2 33 23 68 57 35 34 123 117
196 186 73 69 152 143 175 165 146 137 318 299 378 355 38 36 91 85 117 110
26 25 102 97 170 160 67 63 149 140 180 170 32 30 105 99 162 152 57 53 141
132 188 176 46 44 87 79 90 77 3 -2 4 -365 3 -807z m2103 -5 l-1 -818 -874 -1
-874 -1 80 76 c72 68 255 240 373 351 25 23 105 99 179 168 125 118 181 171
336 317 33 31 107 100 164 153 56 53 136 129 176 167 40 39 119 113 175 165
56 52 136 128 178 167 43 40 80 73 83 73 3 0 5 -368 5 -817z m2969 -35 l0
-783 -45 -3 c-25 -1 -54 -2 -65 -2 -11 0 -40 -1 -65 -1 -25 0 -49 -1 -55 0
-22 1 -118 1 -185 0 -25 0 -49 -1 -55 0 -22 1 -118 1 -185 0 -25 0 -49 -1 -55
0 -35 1 -802 2 -810 0 -5 -1 -14 0 -20 1 -5 1 -38 2 -73 1 l-63 -1 62 57 c34
32 80 76 104 98 23 22 99 94 170 160 70 66 149 140 175 165 45 43 241 227 341
322 26 23 102 95 169 158 68 63 144 135 170 160 26 25 105 99 175 165 70 66
167 157 214 202 47 45 88 83 91 83 3 0 5 -352 5 -782z m2101 750 c-1 -18 2
-43 6 -55 4 -13 4 -23 0 -23 -8 0 -7 -125 2 -139 4 -5 2 -12 -4 -16 -6 -4 -8
-10 -5 -14 2 -5 5 -30 5 -57 0 -27 0 -78 0 -114 0 -36 0 -69 0 -75 0 -5 -1
-69 -1 -141 -1 -72 1 -136 5 -142 3 -6 3 -13 -2 -15 -4 -3 -6 -23 -5 -44 4
-48 4 -79 1 -123 -1 -20 1 -43 5 -52 3 -10 3 -19 -1 -22 -4 -2 -6 -19 -5 -38
4 -63 6 -186 4 -225 -1 -7 -1 -42 -1 -78 0 -36 0 -73 0 -82 0 -10 -1 -66 -1
-124 -1 -58 1 -111 5 -118 4 -6 4 -11 -1 -11 -4 0 -8 -25 -8 -55 0 -30 3 -55
7 -55 4 0 4 -10 0 -22 -9 -27 -8 -70 2 -86 3 -6 3 -13 -1 -15 -9 -6 -9 -59 0
-73 3 -6 2 -15 -1 -22 -7 -9 -7 -68 -1 -98 1 -5 1 -13 -1 -19 -1 -5 -1 -57 0
-115 1 -130 1 -123 -2 -162 -2 -18 0 -43 4 -55 4 -13 4 -23 0 -23 -4 0 -7 -25
-7 -55 0 -30 3 -55 7 -55 4 0 5 -7 1 -16 -9 -24 -10 -66 -1 -91 4 -13 4 -23 0
-23 -4 0 -6 -60 -4 -132 3 -153 3 -148 0 -190 -2 -18 0 -43 4 -55 4 -13 4 -23
0 -23 -4 0 -7 -25 -7 -55 0 -30 3 -55 7 -55 4 0 5 -7 1 -16 -9 -24 -10 -66 -1
-91 4 -13 4 -23 0 -23 -8 0 -7 -202 2 -225 3 -8 2 -15 -2 -15 -4 0 -7 -25 -7
-55 0 -30 3 -55 7 -55 4 0 4 -10 0 -22 -9 -27 -8 -70 2 -86 3 -6 3 -13 -1 -15
-7 -4 -9 -62 -3 -77 1 -3 1 -9 0 -15 -6 -24 -5 -72 2 -92 4 -12 3 -25 -3 -28
-5 -4 -7 -10 -4 -14 4 -8 5 -30 5 -163 0 -32 0 -70 0 -85 0 -16 -1 -61 -2
-100 l-1 -73 -929 0 -928 0 0 108 c-1 318 -1 2669 0 2680 0 13 22 35 180 182
56 52 123 115 149 140 99 93 327 309 361 340 19 18 95 89 169 159 73 69 150
141 170 160 20 18 95 89 166 156 159 150 196 184 360 338 71 67 166 157 210
199 44 43 83 78 86 78 3 0 6 -15 5 -32z m-7176 -1821 c1 -23 1 -653 1 -1401 0
-1321 -1 -1359 -19 -1375 -17 -14 -196 -182 -317 -296 -178 -169 -326 -308
-355 -335 -19 -18 -96 -89 -170 -160 -74 -70 -151 -143 -171 -161 -20 -19 -95
-89 -165 -155 -71 -67 -147 -139 -169 -159 -22 -21 -98 -93 -170 -160 -72 -68
-150 -142 -175 -165 -25 -22 -63 -58 -85 -79 -22 -21 -45 -41 -52 -44 -8 -5
-11 74 -11 311 0 174 -1 322 -2 327 -1 6 -1 15 0 20 3 12 2 925 -1 940 -1 6 0
15 1 20 3 12 2 925 -1 940 -1 6 0 15 1 20 3 12 2 925 -1 940 -1 6 0 15 1 20 1
6 2 228 2 495 0 267 2 488 4 492 3 4 421 7 929 7 l925 0 0 -42z m2105 -1322
l0 -1360 -927 -3 c-739 -2 -928 0 -929 10 -3 29 -5 2704 -2 2709 1 4 420 6
930 5 l928 -1 0 -1360z m868 0 l0 -1360 -312 -2 -311 -2 -1 22 c-1 28 -1 2678
0 2693 1 9 84 12 313 10 l311 -1 0 -1360z m2098 1357 c4 -24 3 -2705 -1 -2712
-3 -5 -421 -8 -930 -7 l-925 2 -1 1362 -1 1362 929 0 c510 0 929 -3 929 -7z
m-3205 -3016 c-64 -61 -151 -142 -325 -306 -68 -63 -149 -140 -181 -170 -32
-30 -111 -104 -176 -165 -64 -60 -143 -135 -175 -165 -32 -30 -115 -109 -185
-175 -70 -66 -144 -136 -165 -155 -20 -19 -80 -75 -133 -125 -53 -49 -137
-128 -186 -175 -50 -48 -91 -86 -91 -86 -1 1 -2 355 -3 789 l-1 787 839 0 838
0 -56 -54z m1105 35 c1 -21 1 -1635 0 -1682 l-1 -35 -1265 0 c-696 0 -1265 1
-1265 3 0 3 20 23 44 46 53 51 295 280 351 332 34 31 195 183 335 315 20 19
95 89 165 155 70 66 147 138 170 160 50 48 267 252 345 324 30 28 58 51 62 51
4 0 8 5 8 10 0 6 17 25 37 43 34 29 72 65 253 235 l64 60 348 0 c316 0 348 -2
349 -17z m1984 8 c4 -5 2 -9 -2 -9 -5 0 -38 -27 -74 -61 -35 -33 -118 -111
-183 -172 -66 -62 -146 -137 -177 -167 -32 -30 -104 -98 -161 -152 -57 -53
-124 -116 -149 -140 -25 -23 -106 -99 -179 -168 -74 -69 -155 -145 -181 -170
-25 -25 -98 -93 -160 -151 -63 -59 -141 -132 -174 -164 -171 -162 -288 -270
-294 -273 -4 -1 -7 366 -7 817 l0 819 868 0 c522 0 870 -3 873 -9z m2108 3
c-6 -4 -67 -59 -135 -123 -214 -202 -232 -219 -240 -219 -4 0 -8 -5 -8 -10 0
-6 -17 -25 -37 -43 -20 -18 -73 -66 -117 -107 -43 -41 -96 -91 -117 -110 -54
-50 -285 -268 -335 -315 -23 -22 -99 -94 -169 -160 -70 -66 -145 -136 -165
-155 -20 -19 -97 -91 -170 -160 -74 -69 -158 -149 -188 -179 -30 -29 -57 -49
-61 -43 -4 8 -7 1616 -2 1630 1 1 396 2 879 2 482 0 872 -4 865 -8z m-7059
-939 l0 -788 -840 -2 -839 -2 85 80 c372 352 383 363 540 509 67 63 141 133
165 155 110 104 315 297 355 335 38 35 157 147 340 320 68 64 193 180 194 180
0 0 1 -354 0 -787z m5070 -35 c-1 -408 -2 -746 -3 -750 0 -4 -359 -7 -796 -7
-614 0 -794 3 -788 12 4 7 25 29 48 49 22 20 72 67 111 105 40 37 122 115 184
173 61 58 142 134 180 170 37 36 119 113 181 171 63 59 140 131 171 160 31 30
109 104 174 164 65 61 141 133 170 160 29 28 105 100 170 160 65 61 134 126
154 146 19 20 37 35 40 34 3 -2 4 -338 4 -747z"/>
</g>
</svg>
