<?xml version="1.0" standalone="no"?>
<!DOCTYPE svg PUBLIC "-//W3C//DTD SVG 20010904//EN"
 "http://www.w3.org/TR/2001/REC-SVG-20010904/DTD/svg10.dtd">
<svg version="1.0" xmlns="http://www.w3.org/2000/svg"
 width="952.000000pt" height="952.000000pt" viewBox="0 0 952.000000 952.000000"
 preserveAspectRatio="xMidYMid meet">
<metadata>
Created by potrace 1.11, written by Peter Selinger 2001-2013
</metadata>
<g transform="translate(0.000000,952.000000) scale(0.100000,-0.100000)"
fill="#000000" stroke="none">
<path d="M1053 7347 l-1053 -992 0 -2592 0 -2593 3710 0 3710 0 1049 987 1050
988 1 2598 0 2597 -3707 -1 -3708 0 -1052 -992z m2827 690 c-302 -287 -1524
-1433 -1531 -1435 -5 -2 -9 293 -9 747 l0 751 803 0 802 -1 -65 -62z m5198 55
c-5 -13 -1652 -1562 -1660 -1562 -10 0 -11 1554 -1 1563 10 10 1665 8 1661 -1z
m-2128 -36 c-19 -19 -433 -408 -919 -865 l-883 -831 -349 0 -349 0 0 865 0
865 1267 0 1268 0 -35 -34z m-4853 -1693 c-2 -2 -394 -2 -871 -1 l-868 3 869
817 868 817 3 -816 c1 -449 1 -818 -1 -820z m2111 820 l-3 -818 -868 -3 c-642
-1 -868 1 -865 9 5 15 1719 1629 1730 1629 4 0 7 -368 6 -817z m2970 -35 l-3
-783 -833 -3 c-517 -1 -832 1 -830 7 5 14 1650 1561 1660 1561 4 0 7 -352 6
-782z m2100 -1485 l-3 -2268 -927 -3 -928 -2 0 1402 1 1403 922 867 c507 477
925 868 930 868 4 0 6 -1020 5 -2267z m-7178 -943 l0 -1400 -921 -867 c-507
-478 -926 -869 -930 -871 -5 -2 -9 992 -9 2267 l0 2271 930 0 930 0 0 -1400z
m2108 32 l-3 -1357 -927 -3 -928 -2 0 1362 0 1363 930 -3 930 -2 -2 -1358z
m2962 3 l0 -1365 -927 2 -928 3 -3 1350 c-1 743 0 1356 3 1363 3 9 199 12 930
12 l925 0 0 -1365z m-2100 -5 l0 -1360 -310 0 -310 0 0 1360 0 1360 310 0 310
0 0 -1360z m-1065 -1610 c-9 -14 -1646 -1554 -1656 -1558 -10 -4 -13 1551 -2
1561 11 11 1665 8 1658 -3z m5155 6 c0 -4 -1570 -1483 -1712 -1614 l-28 -26 0
822 0 822 870 0 c479 0 870 -2 870 -4z m-4092 -868 l-3 -863 -1263 -3 c-803
-1 -1262 1 -1260 8 1 5 412 394 912 865 l909 855 354 0 353 0 -2 -862z m1982
858 c0 -4 -1607 -1519 -1697 -1600 l-43 -38 0 821 0 821 870 0 c479 0 870 -2
870 -4z m-4950 -936 l0 -790 -835 0 c-459 0 -835 3 -834 8 1 6 1659 1570 1667
1572 1 0 2 -355 2 -790z m5070 -40 l0 -750 -795 0 c-437 0 -795 3 -794 8 1 7
1578 1492 1585 1492 2 0 4 -337 4 -750z"/>
</g>
</svg>
